<svg width="178" height="44" viewBox="0 0 178 44" fill="none" xmlns="http://www.w3.org/2000/svg">
<path fill-rule="evenodd" clip-rule="evenodd" d="M139.547 38.8764C139.109 40.1212 138.595 41.6001 137.946 43.4907H133.879L142.844 19.4648H147.04L155.968 43.4907H151.919C151.277 41.6214 150.762 40.141 150.318 38.8764H139.547ZM144.997 23.4038H144.924C142.619 30.2688 141.754 32.6728 140.728 35.5466H149.142C148.093 32.589 147.182 30.0102 144.997 23.4038Z" fill="black"/>
<path d="M173.057 43.2953L161.953 25.4315V43.4899H158.053V19.4492H162.436L173.792 37.6692V19.4492H177.693V43.4899H173.181L173.057 43.2953Z" fill="black"/>
<path d="M127.929 25.9237L121.728 43.4898H118.008L111.743 25.9022V43.4898H107.777V19.4492H112.929L119.896 38.9015L126.742 19.4492H131.895V43.4898H127.929V25.9237Z" fill="black"/>
<path fill-rule="evenodd" clip-rule="evenodd" d="M40.0762 43.4566V19.4492H50.7045C53.2079 19.4492 55.1776 20.0561 56.6496 21.27C58.1036 22.4841 58.8396 24.1769 58.8396 26.3481C58.8396 27.9849 58.4531 29.3098 57.6801 30.303C56.907 31.2967 55.803 31.9769 54.3857 32.3266V32.3636C56.0826 32.6814 57.3065 33.9224 57.8096 35.5459C58.5596 37.9691 58.9044 40.7627 59.1922 43.4566H55.2006C54.9905 40.9641 54.5608 38.1781 53.8704 36.3741C53.3036 34.8886 51.8644 34.1851 50.3365 34.1851H44.0743V43.4566H40.0762ZM44.0743 22.8339V30.7631H49.8584C51.7585 30.7631 53.7802 30.5384 54.5882 28.5552C54.7907 28.0589 54.8826 27.4698 54.8826 26.8077C54.8826 26.1456 54.7907 25.5565 54.5882 25.0602C54.0197 23.6651 52.8074 23.0472 51.349 22.9256C50.9258 22.8705 50.429 22.8527 49.8584 22.8527H44.0743V22.8339Z" fill="black"/>
<path d="M95.2191 43.9504C89.7437 43.9504 85.6914 41.3035 85.6914 35.4701V35.054H89.3082V35.4701C89.3082 39.1614 92.0772 40.525 95.4093 40.525C96.7892 40.525 98.3517 40.3465 99.4523 39.6454C100.979 38.6733 101.434 36.4062 100.099 35.0848C99.2974 34.2912 98.0176 33.873 96.9502 33.5949L91.2223 32.0765C88.2285 31.2963 86.3874 29.5053 86.3874 26.2991C86.3874 21.3152 90.4146 18.9258 94.9977 18.9258C99.8608 18.9258 103.861 21.1846 103.861 26.4891V26.905H100.245V26.4891C100.245 23.2835 97.7435 22.2245 94.9028 22.2245C92.6656 22.2245 90.1624 23.3291 90.1624 25.8884C90.1624 27.9164 91.9779 28.4661 93.6466 28.9021H93.65L98.1026 30.0941C100.113 30.6318 101.864 31.0757 103.274 32.7291C105.732 35.6106 104.81 40.2482 101.721 42.2855C99.943 43.4579 97.5698 43.9504 95.2191 43.9504Z" fill="black"/>
<path d="M72.3098 43.9982C68.8445 43.9982 65.937 42.7593 63.8954 40.5741C61.8755 38.4119 60.7148 35.3302 60.7148 31.6151C60.7148 27.8799 61.8895 24.6956 63.9277 22.4436C65.9627 20.195 68.8482 18.8828 72.278 18.8828C75.7851 18.8828 78.685 20.1854 80.7167 22.4518C82.7531 24.724 83.9045 27.9566 83.9045 31.8054C83.9045 35.3546 82.738 38.4318 80.6711 40.6094C78.6521 42.7364 75.783 43.9982 72.3098 43.9982ZM72.278 22.3206C69.9712 22.3206 68.0389 23.2587 66.682 24.8672C64.2967 27.6953 64.1864 35.343 66.6447 38.1412C68.0053 39.6908 69.9612 40.5608 72.3098 40.5608C74.6409 40.5608 76.5962 39.6911 77.962 38.157C80.4511 35.3618 80.3078 27.6899 77.9418 24.8696C76.5859 23.2539 74.6416 22.3206 72.278 22.3206Z" fill="black"/>
<path fill-rule="evenodd" clip-rule="evenodd" d="M14.3362 24.6007H12.0617L10.8274 38.5995C11.6981 39.9356 12.3197 41.6146 12.5849 43.4816H0V0C5.95819 0.00484998 11.685 0.014711 17.9897 0.0253974C28.8346 0.0480033 35.195 7.04349 30.359 17.3325L26.2964 25.9744L23.1752 32.8213C21.8038 35.8289 25.0406 36.305 25.4878 34.2016L26.0752 30.6217H32.0333V34.3092C32.0333 39.6616 29.1447 43.4816 23.5134 43.4816C20.5768 43.4816 17.9503 42.0842 16.2674 39.9212C14.3606 37.4709 14.3362 35.4562 14.3362 32.5788V24.6007Z" fill="black"/>
<path fill-rule="evenodd" clip-rule="evenodd" d="M24.8126 17.0691C24.8126 24.3334 14.9375 24.3334 14.9375 17.0691C14.9375 9.80511 24.8126 9.80511 24.8126 17.0691Z" fill="white"/>
<path fill-rule="evenodd" clip-rule="evenodd" d="M25.7617 15.5032C25.7617 17.4487 24.1838 19.0256 22.2375 19.0256C20.2908 19.0256 18.7129 17.4487 18.7129 15.5032C18.7129 13.5574 20.2908 11.9805 22.2375 11.9805C24.1838 11.9805 25.7617 13.5574 25.7617 15.5032Z" fill="black"/>
</svg>
