<svg width="20" height="21" viewBox="0 0 20 21" fill="none" xmlns="http://www.w3.org/2000/svg">
<g id="Icon / 20px" clip-path="url(#clip0_7305_26418)">
<g id="Group 1948753643">
<path id="Vector 22" d="M3.7 6.43164H2V16.2916H19V6.43164H17.3" stroke="black" stroke-width="1.3" stroke-linejoin="round"/>
<path id="Vector" d="M10.5053 14.838V5.40528M10.5053 14.838L9.03382 13.9796C7.51657 13.0946 5.65523 13.0346 4.08414 13.8201L4 13.8622V4.42948L4.08414 4.38741C5.65523 3.60187 7.51657 3.66185 9.03382 4.54691L10.5053 5.40528M10.5053 14.838L11.9768 13.9796C13.494 13.0946 15.3554 13.0346 16.9265 13.8201L17.0106 13.8622V4.42948L16.9265 4.38741C15.3554 3.60187 13.4941 3.66185 11.9768 4.54691L10.5053 5.40528" stroke="black" stroke-width="1.3" stroke-linejoin="round"/>
</g>
</g>
<defs>
<clipPath id="clip0_7305_26418">
<rect width="20" height="20" fill="white" transform="translate(0 0.837891)"/>
</clipPath>
</defs>
</svg>
