<svg width="88" height="86" viewBox="0 0 88 86" fill="none" xmlns="http://www.w3.org/2000/svg">
<rect width="88" height="88" fill="#F5F5F5"/>
<g clip-path="url(#clip0_6262_66974)">
<path d="M37.7 25.5938H36V35.4537H53V25.5938H51.3" stroke="black" stroke-width="1.3" stroke-linejoin="round"/>
<path d="M44.5053 34.0001V24.5674M44.5053 34.0001L43.0338 33.1417C41.5166 32.2567 39.6552 32.1967 38.0841 32.9822L38 33.0243V23.5916L38.0841 23.5495C39.6552 22.764 41.5166 22.824 43.0338 23.709L44.5053 24.5674M44.5053 34.0001L45.9768 33.1417C47.494 32.2567 49.3554 32.1967 50.9265 32.9822L51.0106 33.0243V23.5916L50.9265 23.5495C49.3554 22.764 47.4941 22.824 45.9768 23.709L44.5053 24.5674" stroke="black" stroke-width="1.3" stroke-linejoin="round"/>
</g>
<path d="M23.8341 54.11C23.1595 54.11 22.5398 53.945 21.9751 53.615C21.4105 53.2777 20.9631 52.8083 20.6331 52.207C20.3105 51.6057 20.1491 50.92 20.1491 50.15C20.1491 49.38 20.3105 48.6943 20.6331 48.093C20.9631 47.4917 21.4105 47.026 21.9751 46.696C22.5398 46.3587 23.1595 46.19 23.8341 46.19C24.6628 46.19 25.3815 46.421 25.9901 46.883C26.6061 47.345 27.0241 47.9757 27.2441 48.775H26.3091C26.1185 48.225 25.8031 47.796 25.3631 47.488C24.9231 47.1727 24.4135 47.015 23.8341 47.015C23.3208 47.015 22.8478 47.147 22.4151 47.411C21.9898 47.675 21.6525 48.0453 21.4031 48.522C21.1538 48.9987 21.0291 49.5413 21.0291 50.15C21.0291 50.7587 21.1538 51.3013 21.4031 51.778C21.6525 52.2547 21.9898 52.625 22.4151 52.889C22.8478 53.153 23.3208 53.285 23.8341 53.285C24.4135 53.285 24.9231 53.1273 25.3631 52.812C25.8031 52.4893 26.1185 52.042 26.3091 51.47H27.2441C27.0241 52.2913 26.6061 52.9367 25.9901 53.406C25.3815 53.8753 24.6628 54.11 23.8341 54.11ZM29.2293 54H28.4043V48.5H29.9443L31.4293 53.065H31.6493L33.1343 48.5H34.6743V54H33.8493V49.49H33.6293L32.1443 54H30.9343L29.4493 49.49H29.2293V54ZM38.5238 54.11C38.0325 54.11 37.5852 53.989 37.1818 53.747C36.7785 53.505 36.4595 53.1677 36.2248 52.735C35.9975 52.3023 35.8838 51.8073 35.8838 51.25C35.8838 50.6927 35.9975 50.1977 36.2248 49.765C36.4595 49.3323 36.7785 48.995 37.1818 48.753C37.5852 48.511 38.0325 48.39 38.5238 48.39C39.0152 48.39 39.4625 48.511 39.8658 48.753C40.2692 48.995 40.5845 49.3323 40.8118 49.765C41.0465 50.1977 41.1638 50.6927 41.1638 51.25C41.1638 51.8073 41.0465 52.3023 40.8118 52.735C40.5845 53.1677 40.2692 53.505 39.8658 53.747C39.4625 53.989 39.0152 54.11 38.5238 54.11ZM38.5238 53.34C38.8538 53.34 39.1582 53.2557 39.4368 53.087C39.7155 52.911 39.9355 52.6653 40.0968 52.35C40.2582 52.0273 40.3388 51.6607 40.3388 51.25C40.3388 50.8393 40.2582 50.4763 40.0968 50.161C39.9355 49.8383 39.7155 49.5927 39.4368 49.424C39.1582 49.248 38.8538 49.16 38.5238 49.16C38.1938 49.16 37.8895 49.248 37.6108 49.424C37.3322 49.5927 37.1122 49.8383 36.9508 50.161C36.7895 50.4763 36.7088 50.8393 36.7088 51.25C36.7088 51.6607 36.7895 52.0273 36.9508 52.35C37.1122 52.6653 37.3322 52.911 37.6108 53.087C37.8895 53.2557 38.1938 53.34 38.5238 53.34ZM44.2443 54H43.4193V49.27H41.5493V48.5H46.1143V49.27H44.2443V54ZM47.0527 56.2V48.5H47.7677L47.8777 49.27H47.9327C48.16 48.984 48.4167 48.7677 48.7027 48.621C48.9887 48.467 49.3187 48.39 49.6927 48.39C50.1694 48.39 50.5984 48.511 50.9797 48.753C51.3684 48.995 51.6727 49.3323 51.8927 49.765C52.1127 50.1977 52.2227 50.6927 52.2227 51.25C52.2227 51.8073 52.1127 52.3023 51.8927 52.735C51.6727 53.1677 51.3684 53.505 50.9797 53.747C50.5984 53.989 50.1694 54.11 49.6927 54.11C49.3187 54.11 48.9887 54.0367 48.7027 53.89C48.4167 53.736 48.16 53.516 47.9327 53.23H47.8777V56.2H47.0527ZM49.6377 53.34C49.953 53.34 50.2427 53.252 50.5067 53.076C50.778 52.9 50.9944 52.6543 51.1557 52.339C51.317 52.0237 51.3977 51.6607 51.3977 51.25C51.3977 50.8393 51.317 50.4763 51.1557 50.161C50.9944 49.8457 50.778 49.6 50.5067 49.424C50.2427 49.248 49.953 49.16 49.6377 49.16C49.3224 49.16 49.029 49.248 48.7577 49.424C48.4937 49.6 48.281 49.8457 48.1197 50.161C47.9584 50.4763 47.8777 50.8393 47.8777 51.25C47.8777 51.6607 47.9584 52.0237 48.1197 52.339C48.281 52.6543 48.4937 52.9 48.7577 53.076C49.029 53.252 49.3224 53.34 49.6377 53.34ZM55.7436 54.11C55.2522 54.11 54.8049 53.989 54.4016 53.747C53.9982 53.505 53.6792 53.1677 53.4446 52.735C53.2172 52.3023 53.1036 51.8073 53.1036 51.25C53.1036 50.6927 53.2172 50.1977 53.4446 49.765C53.6792 49.3323 53.9982 48.995 54.4016 48.753C54.8049 48.511 55.2522 48.39 55.7436 48.39C56.2129 48.39 56.6419 48.5037 57.0306 48.731C57.4192 48.9583 57.7236 49.2737 57.9436 49.677C58.1636 50.073 58.2736 50.524 58.2736 51.03C58.2736 51.3233 58.2552 51.525 58.2186 51.635H53.9286C53.9799 52.1483 54.1779 52.5627 54.5226 52.878C54.8672 53.186 55.2742 53.34 55.7436 53.34C56.0736 53.34 56.3669 53.263 56.6236 53.109C56.8876 52.955 57.0892 52.7387 57.2286 52.46H58.1086C57.9179 52.988 57.6172 53.395 57.2066 53.681C56.8032 53.967 56.3156 54.11 55.7436 54.11ZM57.4486 50.865C57.4192 50.3663 57.2432 49.9593 56.9206 49.644C56.6052 49.3213 56.2129 49.16 55.7436 49.16C55.2522 49.16 54.8416 49.3213 54.5116 49.644C54.1816 49.9593 53.9872 50.3663 53.9286 50.865H57.4486ZM61.3566 54H60.5316V49.27H58.6616V48.5H63.2266V49.27H61.3566V54ZM64.165 54V48.5H64.99V50.37H66.695C67.0544 50.37 67.377 50.4507 67.663 50.612C67.949 50.766 68.169 50.9823 68.323 51.261C68.4844 51.5323 68.565 51.8403 68.565 52.185C68.565 52.5297 68.4844 52.8413 68.323 53.12C68.169 53.3913 67.949 53.6077 67.663 53.769C67.377 53.923 67.0544 54 66.695 54H64.165ZM66.695 53.23C66.9957 53.23 67.245 53.131 67.443 52.933C67.641 52.735 67.74 52.4857 67.74 52.185C67.74 51.8843 67.641 51.635 67.443 51.437C67.245 51.239 66.9957 51.14 66.695 51.14H64.99V53.23H66.695ZM16.5829 66.11C16.0916 66.11 15.6443 65.989 15.2409 65.747C14.8376 65.505 14.5186 65.1677 14.2839 64.735C14.0566 64.3023 13.9429 63.8073 13.9429 63.25C13.9429 62.6927 14.0566 62.1977 14.2839 61.765C14.5186 61.3323 14.8376 60.995 15.2409 60.753C15.6443 60.511 16.0916 60.39 16.5829 60.39C17.1916 60.39 17.7123 60.5587 18.1449 60.896C18.5776 61.226 18.8636 61.6807 19.0029 62.26H18.1779C18.0679 61.908 17.8699 61.6367 17.5839 61.446C17.3053 61.2553 16.9716 61.16 16.5829 61.16C16.2529 61.16 15.9486 61.248 15.6699 61.424C15.3913 61.5927 15.1713 61.8383 15.0099 62.161C14.8486 62.4763 14.7679 62.8393 14.7679 63.25C14.7679 63.6607 14.8486 64.0273 15.0099 64.35C15.1713 64.6653 15.3913 64.911 15.6699 65.087C15.9486 65.2557 16.2529 65.34 16.5829 65.34C16.9789 65.34 17.3163 65.241 17.5949 65.043C17.8736 64.845 18.0679 64.559 18.1779 64.185H19.0029C18.8636 64.7863 18.5776 65.2593 18.1449 65.604C17.7123 65.9413 17.1916 66.11 16.5829 66.11ZM22.4696 66.11C21.9783 66.11 21.531 65.989 21.1276 65.747C20.7243 65.505 20.4053 65.1677 20.1706 64.735C19.9433 64.3023 19.8296 63.8073 19.8296 63.25C19.8296 62.6927 19.9433 62.1977 20.1706 61.765C20.4053 61.3323 20.7243 60.995 21.1276 60.753C21.531 60.511 21.9783 60.39 22.4696 60.39C22.961 60.39 23.4083 60.511 23.8116 60.753C24.215 60.995 24.5303 61.3323 24.7576 61.765C24.9923 62.1977 25.1096 62.6927 25.1096 63.25C25.1096 63.8073 24.9923 64.3023 24.7576 64.735C24.5303 65.1677 24.215 65.505 23.8116 65.747C23.4083 65.989 22.961 66.11 22.4696 66.11ZM22.4696 65.34C22.7996 65.34 23.104 65.2557 23.3826 65.087C23.6613 64.911 23.8813 64.6653 24.0426 64.35C24.204 64.0273 24.2846 63.6607 24.2846 63.25C24.2846 62.8393 24.204 62.4763 24.0426 62.161C23.8813 61.8383 23.6613 61.5927 23.3826 61.424C23.104 61.248 22.7996 61.16 22.4696 61.16C22.1396 61.16 21.8353 61.248 21.5566 61.424C21.278 61.5927 21.058 61.8383 20.8966 62.161C20.7353 62.4763 20.6546 62.8393 20.6546 63.25C20.6546 63.6607 20.7353 64.0273 20.8966 64.35C21.058 64.6653 21.278 64.911 21.5566 65.087C21.8353 65.2557 22.1396 65.34 22.4696 65.34ZM25.4375 67.32V65.23H25.5475C25.7968 65.23 25.9802 65.1713 26.0975 65.054C26.2222 64.9293 26.2955 64.7313 26.3175 64.46L26.6475 60.5H30.3325V65.23H31.1025V67.32H30.2775V66H26.2625V67.32H25.4375ZM29.5075 65.23V61.27H27.4175L27.1425 64.46C27.1278 64.658 27.0912 64.8267 27.0325 64.966C26.9812 65.1053 26.9262 65.1933 26.8675 65.23H29.5075ZM34.4042 66.11C33.9129 66.11 33.4656 65.989 33.0622 65.747C32.6589 65.505 32.3399 65.1677 32.1052 64.735C31.8779 64.3023 31.7642 63.8073 31.7642 63.25C31.7642 62.6927 31.8779 62.1977 32.1052 61.765C32.3399 61.3323 32.6589 60.995 33.0622 60.753C33.4656 60.511 33.9129 60.39 34.4042 60.39C34.8736 60.39 35.3026 60.5037 35.6912 60.731C36.0799 60.9583 36.3842 61.2737 36.6042 61.677C36.8242 62.073 36.9342 62.524 36.9342 63.03C36.9342 63.3233 36.9159 63.525 36.8792 63.635H32.5892C32.6406 64.1483 32.8386 64.5627 33.1832 64.878C33.5279 65.186 33.9349 65.34 34.4042 65.34C34.7342 65.34 35.0276 65.263 35.2842 65.109C35.5482 64.955 35.7499 64.7387 35.8892 64.46H36.7692C36.5786 64.988 36.2779 65.395 35.8672 65.681C35.4639 65.967 34.9762 66.11 34.4042 66.11ZM36.1092 62.865C36.0799 62.3663 35.9039 61.9593 35.5812 61.644C35.2659 61.3213 34.8736 61.16 34.4042 61.16C33.9129 61.16 33.5022 61.3213 33.1722 61.644C32.8422 61.9593 32.6479 62.3663 32.5892 62.865H36.1092ZM38.1421 68.2V60.5H38.8571L38.9671 61.27H39.0221C39.2494 60.984 39.5061 60.7677 39.7921 60.621C40.0781 60.467 40.4081 60.39 40.7821 60.39C41.2587 60.39 41.6877 60.511 42.0691 60.753C42.4577 60.995 42.7621 61.3323 42.9821 61.765C43.2021 62.1977 43.3121 62.6927 43.3121 63.25C43.3121 63.8073 43.2021 64.3023 42.9821 64.735C42.7621 65.1677 42.4577 65.505 42.0691 65.747C41.6877 65.989 41.2587 66.11 40.7821 66.11C40.4081 66.11 40.0781 66.0367 39.7921 65.89C39.5061 65.736 39.2494 65.516 39.0221 65.23H38.9671V68.2H38.1421ZM40.7271 65.34C41.0424 65.34 41.3321 65.252 41.5961 65.076C41.8674 64.9 42.0837 64.6543 42.2451 64.339C42.4064 64.0237 42.4871 63.6607 42.4871 63.25C42.4871 62.8393 42.4064 62.4763 42.2451 62.161C42.0837 61.8457 41.8674 61.6 41.5961 61.424C41.3321 61.248 41.0424 61.16 40.7271 61.16C40.4117 61.16 40.1184 61.248 39.8471 61.424C39.5831 61.6 39.3704 61.8457 39.2091 62.161C39.0477 62.4763 38.9671 62.8393 38.9671 63.25C38.9671 63.6607 39.0477 64.0237 39.2091 64.339C39.3704 64.6543 39.5831 64.9 39.8471 65.076C40.1184 65.252 40.4117 65.34 40.7271 65.34ZM44.5281 66H43.5381L45.7931 63.195L43.7031 60.5H44.6931L46.6731 63.085V60.5H47.4981V63.085L49.4781 60.5H50.4681L48.3781 63.195L50.6331 66H49.6431L47.4981 63.305V66H46.6731V63.305L44.5281 66ZM52.8881 66.11C52.3161 66.11 51.8504 65.9523 51.4911 65.637C51.1391 65.3143 50.9631 64.9037 50.9631 64.405C50.9631 63.855 51.1428 63.426 51.5021 63.118C51.8688 62.8027 52.4224 62.645 53.1631 62.645H54.6481V62.48C54.6481 62.0693 54.5308 61.7467 54.2961 61.512C54.0614 61.2773 53.7388 61.16 53.3281 61.16C52.9321 61.16 52.6094 61.2517 52.3601 61.435C52.1181 61.611 51.9824 61.831 51.9531 62.095H51.1281C51.1501 61.7943 51.2491 61.5157 51.4251 61.259C51.6011 60.995 51.8504 60.786 52.1731 60.632C52.5031 60.4707 52.8881 60.39 53.3281 60.39C53.9954 60.39 54.5198 60.577 54.9011 60.951C55.2824 61.3177 55.4731 61.8273 55.4731 62.48V66H54.7581L54.6481 65.34H54.5931C54.4684 65.538 54.2521 65.7177 53.9441 65.879C53.6434 66.033 53.2914 66.11 52.8881 66.11ZM52.8881 65.34C53.4381 65.34 53.8671 65.1897 54.1751 64.889C54.4904 64.581 54.6481 64.163 54.6481 63.635V63.415H53.1631C52.6938 63.415 52.3454 63.5067 52.1181 63.69C51.8981 63.8733 51.7881 64.1117 51.7881 64.405C51.7881 64.6837 51.8834 64.911 52.0741 65.087C52.2648 65.2557 52.5361 65.34 52.8881 65.34ZM57.8411 66H57.0161V60.5H57.8411V62.865H60.7561V60.5H61.5811V66H60.7561V63.635H57.8411V66ZM64.5477 66H63.1177V60.5H63.9427V65.01H64.1627L66.2527 60.5H67.6827V66H66.8577V61.49H66.6377L64.5477 66ZM71.5292 66.11C71.0379 66.11 70.5906 65.989 70.1872 65.747C69.7839 65.505 69.4649 65.1677 69.2302 64.735C69.0029 64.3023 68.8892 63.8073 68.8892 63.25C68.8892 62.6927 69.0029 62.1977 69.2302 61.765C69.4649 61.3323 69.7839 60.995 70.1872 60.753C70.5906 60.511 71.0379 60.39 71.5292 60.39C71.9986 60.39 72.4276 60.5037 72.8162 60.731C73.2049 60.9583 73.5092 61.2737 73.7292 61.677C73.9492 62.073 74.0592 62.524 74.0592 63.03C74.0592 63.3233 74.0409 63.525 74.0042 63.635H69.7142C69.7656 64.1483 69.9636 64.5627 70.3082 64.878C70.6529 65.186 71.0599 65.34 71.5292 65.34C71.8592 65.34 72.1526 65.263 72.4092 65.109C72.6732 64.955 72.8749 64.7387 73.0142 64.46H73.8942C73.7036 64.988 73.4029 65.395 72.9922 65.681C72.5889 65.967 72.1012 66.11 71.5292 66.11ZM73.2342 62.865C73.2049 62.3663 73.0289 61.9593 72.7062 61.644C72.3909 61.3213 71.9986 61.16 71.5292 61.16C71.0379 61.16 70.6272 61.3213 70.2972 61.644C69.9672 61.9593 69.7729 62.3663 69.7142 62.865H73.2342Z" fill="black"/>
<defs>
<clipPath id="clip0_6262_66974">
<rect width="20" height="20" fill="white" transform="translate(34 20)"/>
</clipPath>
</defs>
</svg>
