<?xml version="1.0" encoding="utf-8"?>
<svg width="111" height="105" viewBox="0 0 111 105" xml:space="preserve" xmlns="http://www.w3.org/2000/svg">
<path d="M56.815 67.868L59.7892 67.3826L58.7483 68.3642C57.4055 80.6111 53.9181 89.3989 49.2031 101.294L33.0118 100.729L40.4179 70.7741L39.9095 66.515L38.7361 46.3893C41.4351 46.4862 44.0095 46.5778 46.5422 46.6689L46.5425 46.6619L56.4826 47.0467C68.2887 47.4822 66.3143 62.2946 63.9759 61.7637C63.5054 61.6571 61.5135 69.424 61.2766 66.9563L60.8378 62.4042L61.3973 65.3647L56.02 67.8403L56.815 67.868Z" fill="black"/>
<path d="M59.1239 77.4437L43.0111 75.1048L54.1574 50.4858C55.2692 47.4343 56.806 44.9923 58.6492 43.1516C60.8228 40.9797 63.4164 39.645 66.2295 39.1303C69.0302 38.6195 72.0447 38.9231 75.0746 40.0245C78.3881 41.2287 81.7218 43.3899 84.8126 46.483L93.9666 55.6445C94.606 56.2701 95.1015 56.6119 95.48 56.7316C95.7268 56.8111 95.9028 56.7713 96.0267 56.6469C96.1919 56.4806 96.3261 56.2121 96.3438 55.8203C96.3621 55.4563 96.2824 54.9933 96.0516 54.4183L96.0469 54.4027C95.5551 53.0379 95.0706 51.7411 94.5889 50.4502C93.6608 47.9637 92.7415 45.5011 91.9148 42.9722C91.1282 40.8817 90.8702 38.7806 91.0907 36.8693C91.2838 35.1999 91.8402 33.6733 92.7283 32.4176C93.6241 31.1511 94.8551 30.1639 96.3863 29.5881C97.6987 29.0932 99.2277 28.904 100.948 29.1025L104.721 29.4618L103.414 38.2243L100.998 38.3133C100.963 38.3191 100.933 38.325 100.908 38.3338C100.769 38.3788 100.646 38.4758 100.566 38.6117C100.479 38.7584 100.439 38.9554 100.473 39.1865C100.484 39.2564 100.501 39.3275 100.524 39.3979C100.653 39.8057 100.925 40.2548 101.154 40.6328L101.298 40.8764C101.806 41.7387 102.4 42.6479 102.996 43.5589C103.458 44.2672 103.923 44.9765 104.362 45.6919L104.442 45.8222C107.634 51.0139 110.243 55.1607 107.485 61.5975C106.69 63.4511 105.374 65.1049 103.678 66.4822C101.96 67.8767 99.8436 68.9924 97.4796 69.7474L83.8116 74.1171L82.837 81.1029C74.9228 79.9531 67.0087 78.8032 59.0928 77.6546L59.1239 77.4437Z" fill="black"/>
<path d="M48.1011 75.4404L68.5913 56.4899C65.7864 53.0727 64.4227 52.3026 63.1914 49.2831L64.5211 48.0926C66.3398 32.5856 63.9396 25.8773 53.2495 23.3853C28.758 19.1472 31.7155 21.0457 17.0019 6.63652L5.31174 19.2418C15.9742 32.4906 17.6041 34.9697 30.0362 40.8225C26.208 54.6078 34.3628 68.6369 48.1011 75.4404Z" fill="black"/>
<path fill-rule="evenodd" clip-rule="evenodd" d="M53.3552 76.5536C55.6101 83.8878 57.6767 91.2115 58.4072 101.737L74.125 101.846C73.3756 91.1831 72.6901 82.6265 69.4005 72.7245L56.3963 67.8044L53.3552 76.5536Z" fill="black"/>
<path d="M53.2344 77.2184L52.74 77.0461L52.6831 77.2088L52.7339 77.373L53.2344 77.2184ZM58.2864 102.402L57.7651 102.438L57.7985 102.921L58.2835 102.926L58.2864 102.402ZM74.0042 102.511L73.9999 103.035L74.5654 103.04L74.5269 102.475L74.0042 102.511ZM69.2798 73.3893L69.7763 73.2236L69.6971 72.9863L69.4646 72.8993L69.2798 73.3893ZM56.2756 68.4692L56.4604 67.9792L55.957 67.7883L55.7799 68.2965L56.2756 68.4692ZM52.7339 77.373C54.985 84.6918 57.0364 91.972 57.7651 102.438L58.8092 102.365C58.0737 91.7806 55.9947 84.4122 53.735 77.0642L52.7339 77.373ZM58.2835 102.926L73.9999 103.035L74.0072 101.987L58.2908 101.878L58.2835 102.926ZM74.5269 102.475C73.7775 91.8119 73.0884 83.1957 69.7763 73.2236L68.7819 73.5533C72.0489 83.3869 72.7322 91.8836 73.4815 102.548L74.5269 102.475ZM69.4646 72.8993L56.4604 67.9792L56.0895 68.9588L69.0933 73.879L69.4646 72.8993ZM55.7799 68.2965L52.74 77.0461L53.7289 77.3911L56.7701 68.6403L55.7799 68.2965Z" fill="black"/>
<path d="M70.8541 93.0063C74.7678 95.2793 76.7691 97.8435 77.0562 102.648L60.351 102.065L60.1191 100.769L58.6484 92.5801L70.8541 93.0063Z" fill="black"/>
<path d="M46.1312 92.4177C49.5963 94.675 51.1653 97.2242 51.4814 102.03L33.6449 101.407L33.6832 100.12L34.975 91.7536L46.1312 92.4177Z" fill="black"/>
<path fill-rule="evenodd" clip-rule="evenodd" d="M87.367 62.3214C87.0073 72.6214 73.0112 72.1327 73.3709 61.8327C73.7305 51.5323 87.7267 52.0211 87.367 62.3214Z" fill="white"/>
<g>
    <path fill-rule="evenodd" clip-rule="evenodd" d="M88.644 59.6328C88.5476 62.3914 86.2331 64.5497 83.4746 64.4534C80.716 64.357 78.5574 62.0425 78.6537 59.284C78.75 56.5254 81.0649 54.3672 83.8234 54.4635C86.582 54.5598 88.7403 56.8743 88.644 59.6328Z" fill="black"/>
    <animateTransform attributeName="transform" type="rotate" dur="3200ms" values="-5 60 60; 15 60 60; -5 60 60" repeatCount="indefinite"/>
</g>
<path fill-rule="evenodd" clip-rule="evenodd" d="M13.8307 24.4299C9.79277 25.2762 6.88892 24.5758 3.28611 21.3843L16.3381 9.21189L22.7624 16.1011L13.8307 24.4299Z" fill="black"/>
<g>
    <path fill-rule="evenodd" clip-rule="evenodd" d="M40.563 37.2383L41.5512 36.8513L35.3726 28.3291L38.1275 10.0251C36.1289 7.8173 35.4635 5.00153 35.8811 2.09615L55.4005 4.10484L54.1491 26.8009C53.9284 32.0162 54.1362 34.7548 59.3883 44.6771C63.5958 54.2231 63.026 58.8299 49.4891 63.6494L40.563 37.2383Z" fill="black"/>
    <animateTransform attributeName="transform" type="rotate" dur="3200ms" values="-5 50 50; 15 50 50; -5 50 50" repeatCount="indefinite"/>
</g>
</svg>
