<svg width="130" height="130" viewBox="0 0 130 130" fill="none" xmlns="http://www.w3.org/2000/svg">
<path fill-rule="evenodd" clip-rule="evenodd" d="M4.09856 75.7359L10.3781 39.2408C17.2199 -0.498847 51.9275 -10.6393 79.6456 17.2734C85.3992 23.0694 95.2973 33.1205 100.956 38.513C106.461 43.7596 110.857 37.0917 106.482 34.5335L99.1779 29.8907L105.567 16.2912C111.318 18.7237 116.97 21.0771 121.189 24.3676C134.049 34.3976 128.443 58.6691 110.515 60.7282C105.875 61.2623 100.682 60.4774 95.3652 58.728L73.324 53.4457L80.3867 98.4561L103.967 102.971C107.226 99.3356 112.485 98.8443 116.05 99.4911L112.518 129.481L31.1502 126.515C13.7011 127.032 7.40898 122.942 4.16229 115.034C0.538691 106.204 1.191 92.6285 4.09856 75.7359Z" fill="black"/>
<path fill-rule="evenodd" clip-rule="evenodd" d="M68.8409 25.6638C75.2883 41.6041 55.2049 49.7242 48.7602 33.7869C42.3128 17.8472 62.3962 9.72423 68.8409 25.6638Z" fill="white"/>
</svg>
