<?xml version="1.0" encoding="utf-8"?>
<svg width="131" height="172" viewBox="0 0 131 192" x="0px" y="0px" xmlns="http://www.w3.org/2000/svg" xml:space="preserve">
    <g>
        <path d="M25.7703 119.616L61.0899 110.344C83.4694 125.616 83.3305 127.08 76.2978 160.424C79.2329 162.759 80.1824 166.967 79.9682 169.446L47.9116 168.403L50.1891 138.423L25.7703 119.616Z" fill="black" />
        <animateTransform attributeName="transform" type="rotate" dur="2s" values="5 30 30; -8 30 30; 5 30 30" repeatCount="indefinite"/>
    </g>
    <path d="M5.09856 75.7359L11.3781 39.2408C18.2199 -0.498849 52.9275 -10.6393 80.6456 17.2734C86.3992 23.0694 96.2973 33.1205 101.956 38.513C107.461 43.7596 111.857 37.0917 107.482 34.5335L100.178 29.8907L106.567 16.2912C112.318 18.7237 117.97 21.0771 122.189 24.3676C135.049 34.3976 129.443 58.6691 111.515 60.7282C106.875 61.2623 101.682 60.4774 96.3652 58.728L74.324 53.4457L81.3868 98.4561L104.967 102.971C108.226 99.3356 113.485 98.8443 117.05 99.4911L113.518 129.481L32.1502 126.515C14.7011 127.032 8.40898 122.942 5.16229 115.034C1.53869 106.204 2.191 92.6285 5.09856 75.7359Z" fill="black"/>
    <path d="M69.8409 25.6648C76.2883 41.605 56.2049 49.7252 49.7602 33.7879C43.3128 17.8482 63.3962 9.7252 69.8409 25.6648Z" fill="white"/>
    <g>
        <path d="M66.3652 35.2429C68.0919 39.5133 66.0301 44.3725 61.7603 46.0991C57.4922 47.8259 52.6309 45.7643 50.9063 41.4967C49.1797 37.2269 51.239 32.3671 55.5088 30.6405C59.7792 28.9138 64.6385 30.9753 66.3652 35.2429Z" fill="black"/>
        <animateTransform attributeName="transform" type="rotate" dur="2s" values="0 50 50; 20 100 60; 0 50 50" repeatCount="indefinite"/>
    </g>
</svg>