<?xml version="1.0" encoding="utf-8"?>
<svg version="1.1" id="Слой_1" xmlns="http://www.w3.org/2000/svg" x="0px" y="0px" viewBox="0 0 298 455.5" xml:space="preserve">
	<g>
		<path fill="#E3E3E2" d="M71.7,276.3c7.3-18.5,16.7-31.8,28.3-39.8c11.9-7.9,28.4-12.8,49.5-14.7c12.8-1.3,23.3-4.8,31.6-10.7
		c8.3-5.9,14.7-14.5,19.2-26.1c5.7-14.6,5.3-28.6-1.3-42.1c-6.6-13.5-18-23.4-34.1-29.7c-16.1-6.3-31.2-6.8-45.2-1.5
		c-13.6,5.2-23,14.4-28.3,27.8l-48.3-19c6.8-17.3,17.2-31.2,31.2-41.9c14.3-10.5,30.9-16.6,49.8-18.2c19-2,38.7,1.1,59.1,9.1
		c20,7.9,36.2,19,48.5,33.3c12.6,14.4,20.3,30.3,23.4,47.6c3.3,17.4,1.6,34.6-5.1,51.6c-14.6,37-42,57.2-82.3,60.6
		c-14.2,1.4-25,4.7-32.3,9.9c-7.3,5.2-12.9,12.6-16.7,22.3l-9.3,23.7L62.4,300L71.7,276.3z M79.1,401.8l-51.5-20.3l20.3-51.4
		l51.5,20.3L79.1,401.8z"/>
		<animateTransform attributeName="transform" type="rotate" dur="5s" values="5 0 350; -2 0 350; 5 0 350" repeatCount="indefinite"/>
	</g>
	<path fill="black" d="M159,275.6l2.2,31.8c-2.2,1.7-3.9,3.8-4.1,8.1h23.5l2.4-38.6l-31.6-17.6l0.1,16.1
		C155.3,275.7,158.1,275.6,159,275.6z"/>
	<path fill="re" d="M118,218.5l-0.8-22.8c39.1-4.6,78.3-9.4,117.4-14.1l4.2,22.3c-2.7,0-6.7-0.7-8.9-2.1l-24.2,9.6
		c-0.9,10.4-3.3,40.8-3.7,44.3c-1.1,13.4-4.3,24-13.1,29.9c-5.6,3.8-14.1,6.2-22.6,3.4l6.1-28.4l-23-0.6l-1.1-12l8-3.2l-9.1-30.1
		l-20.8-0.2C124.4,217.6,120.7,218.6,118,218.5z"/>
	<path fill="#FFFFFF" d="M155.4,274.9c-7.9-9.8,4.4-19.8,12.3-10C175.7,274.7,163.4,284.7,155.4,274.9z"/>
	<path fill="black" d="M162.2,274.1c-2.1-2.6-1.7-6.5,0.9-8.6c2.6-2.1,6.5-1.7,8.6,0.9c2.1,2.6,1.7,6.5-0.9,8.6
		C168.2,277.1,164.3,276.7,162.2,274.1z"/>
	<path fill="black" d="M196.7,254l-0.5,12.7c-0.4,9.8-3.5,16.8-10.3,20.4c-6.1,3.3-15.5,4.1-23.8-0.2l-14.7-7.6l-11.7-5.8
		c-5.1-2.6-6.2,3-2.5,3.9l6.2,1.2l-0.4,10.3l-6.4-0.2c-9.3-0.3-15.7-5.6-15.4-15.3c0.2-5.1,2.8-9.5,6.6-12.3
		c4.4-3.1,7.9-3.1,12.8-2.9l13.8,0.5l0.1-3.6C163.2,253.7,186,251.8,196.7,254z"/>
	<path fill="#FFFFFF" d="M162.8,278c-12.6-0.5-12-17.6,0.6-17.1C176.1,261.4,175.4,278.5,162.8,278z"/>
	<g>
		<path fill="black" d="M157.2,277.9c-3.4-0.1-6-3-5.9-6.3c0.1-3.4,2.9-6,6.3-5.9c3.4,0.1,6,3,5.9,6.3S160.6,278,157.2,277.9z"/>
		<animateTransform attributeName="transform" type="rotate" dur="2.4s" values="0 130 130; 8 190 290; 0 130 130;"  repeatCount="indefinite"/>
	</g>
	<g>
		<path fill="black" d="M188.8,235.6l32.9-7.5c1.5-2.8,2.8-5.1,7.9-6.9l6.8,23.5l-39.4,16.2l-26.7-26.7l16.4-5.5
		C188.2,232.6,188.6,234.6,188.8,235.6z"/>
		<animateTransform attributeName="transform" type="rotate" dur="2s" values="-5 150 233; 8 170 223; -5 150 233" repeatCount="indefinite"/>
	</g>
	<rect fill="#4498FC" x="100" y="315.5" class="st3" width="140" height="140"/>
	<rect fill="#FF8500"  x="226" y="383.5" class="st4" width="72" height="72"/>
	<circle fill="#33C15B"  class="st5" cx="50" cy="405.5" r="50"/>
</svg>
