<svg width="43" height="40" viewBox="0 0 43 40" fill="none" xmlns="http://www.w3.org/2000/svg">
<g id="Frame">
<g id="Group">
<path id="Vector" d="M37.815 3.29919V1.14302H35.3027V0H42.0737V3.1108C42.0737 3.78729 41.8899 4.31911 41.5422 4.68458C40.7785 5.48768 39.1492 5.4749 38.3661 4.70005C38.0184 4.35541 37.815 3.86916 37.815 3.29919ZM41.1026 2.9854V1.14302H38.7861V2.9854C38.7861 3.35393 38.8829 3.64531 39.06 3.84175C39.4633 4.28901 40.4262 4.28864 40.8287 3.84175C41.0062 3.64531 41.1026 3.35393 41.1026 2.9854Z" fill="black"/>
<path id="Vector_2" d="M35.1387 8.97284C35.1387 7.9946 35.4887 7.17371 36.1058 6.59716C36.7166 6.02681 37.5869 5.69922 38.6362 5.69922C39.6913 5.69922 40.5909 6.03107 41.2268 6.60642C41.8621 7.18066 42.2326 7.99571 42.2326 8.96404C42.2326 9.95387 41.8648 10.7728 41.2245 11.3462C40.5827 11.9213 39.6697 12.2462 38.5825 12.2462C37.5799 12.2462 36.7109 11.917 36.0957 11.3335C35.4953 10.7635 35.1387 9.95349 35.1387 8.97284ZM41.2615 8.96404C41.2615 8.16789 40.8448 7.43693 40.1034 7.12592C39.4771 6.86306 38.5644 6.79629 37.8142 6.93948C36.7394 7.14482 36.1096 7.84446 36.1096 8.97284C36.1096 10.0426 36.6916 10.7623 37.7165 10.9869C38.4375 11.1452 39.3324 11.0993 39.9791 10.8674C40.805 10.5714 41.2615 9.83967 41.2615 8.96404Z" fill="black"/>
<path id="Vector_3" d="M35.1387 15.9948C35.1387 13.9549 36.7383 12.8906 38.6462 12.8906C40.5681 12.8906 42.2326 13.9426 42.2326 16.0308C42.2326 17.5466 41.4129 18.5654 39.9479 18.8313L39.8094 18.8564V17.7315L39.9039 17.7118C40.8436 17.5169 41.2615 16.8971 41.2615 15.932C41.2615 14.4852 39.8815 14.034 38.6551 14.034C37.3762 14.034 36.1096 14.5585 36.1096 16.0037C36.1096 17.1492 36.7761 17.6698 37.8211 17.8365L37.9207 17.8522V18.9822L37.7891 18.9672C36.1146 18.7731 35.1387 17.7318 35.1387 15.9948Z" fill="black"/>
<path id="Vector_4" d="M35.293 38.8567H38.2734V35.6528H35.293V34.5078H42.0739V35.6528H39.2459V38.8567H42.0739V40.0017H35.293V38.8567Z" fill="black"/>
<path id="Vector_5" d="M35.1387 30.567C35.1387 32.6069 36.7383 33.6713 38.6462 33.6713C40.5681 33.6713 42.2326 32.6192 42.2326 30.531C42.2326 29.0152 41.4129 27.8857 39.9479 27.6201L39.8094 27.595V28.72L39.9039 28.7397C40.8436 28.9342 41.2615 29.628 41.2615 30.5928C41.2615 31.8097 40.286 32.3353 39.2463 32.4719V29.6339H38.2738V32.4938C37.1357 32.3989 36.1096 31.859 36.1096 30.5581C36.1096 29.4127 36.7761 28.8551 37.8211 28.6888L37.9207 28.6729V27.543L37.7891 27.558C36.1146 27.7521 35.1387 28.83 35.1387 30.567Z" fill="black"/>
<path id="Vector_6" d="M40.2487 25.4508L35.2871 23.7003V22.6499L40.2549 20.8813H35.2871V19.7617H42.0776V21.2162L36.5833 23.1829L42.0776 25.1155V26.5704H35.2871V25.4508H40.2487Z" fill="black"/>
<path id="Vector_7" fill-rule="evenodd" clip-rule="evenodd" d="M13.1735 22.6149L11.083 22.6148L9.94923 35.4835C10.7492 36.7119 11.3204 38.2555 11.5642 39.9721H0V0C5.4749 0.00463096 10.7373 0.013525 16.5302 0.0235279C26.4953 0.0443672 32.3399 6.47556 27.8961 15.9335L24.1631 23.878L21.2951 30.1718C20.0351 32.9365 23.0097 33.3745 23.4199 31.4407L23.9602 28.1496H29.4344V31.5395C29.4344 36.4599 26.7805 39.9721 21.6057 39.9721C18.9075 39.9721 16.4943 38.687 14.948 36.6988C13.1956 34.4458 13.1735 32.5942 13.1735 29.9492V22.6149Z" fill="black"/>
<path id="Vector_8" fill-rule="evenodd" clip-rule="evenodd" d="M22.8048 15.7271C22.8048 22.405 13.7305 22.405 13.7305 15.7271C13.7305 9.04929 22.8048 9.04929 22.8048 15.7271Z" fill="white"/>
<path id="Vector_9" fill-rule="evenodd" clip-rule="evenodd" d="M23.6725 14.2738C23.6725 16.0624 22.2226 17.5123 20.4339 17.5123C18.6456 17.5123 17.1953 16.0624 17.1953 14.2738C17.1953 12.485 18.6456 11.0352 20.4339 11.0352C22.2226 11.0352 23.6725 12.485 23.6725 14.2738Z" fill="black"/>
</g>
</g>
</svg>
