<svg width="303" height="302" viewBox="0 0 303 302" fill="none" xmlns="http://www.w3.org/2000/svg">
<path d="M151.259 301.691C234.555 301.691 302.08 234.166 302.08 150.871C302.08 67.5752 234.555 0.0507812 151.259 0.0507812C67.9637 0.0507812 0.439453 67.5752 0.439453 150.871C0.439453 234.166 67.9637 301.691 151.259 301.691Z" fill="#FFF145"/>
<mask id="mask0_3979_149387" style="mask-type:luminance" maskUnits="userSpaceOnUse" x="0" y="0" width="303" height="302">
<path d="M151.26 301.691C234.555 301.691 302.08 234.166 302.08 150.871C302.08 67.5752 234.555 0.0507812 151.26 0.0507812C67.9642 0.0507812 0.439453 67.5752 0.439453 150.871C0.439453 234.166 67.9642 301.691 151.26 301.691Z" fill="white"/>
</mask>
<g mask="url(#mask0_3979_149387)">
<path d="M-17.1499 100.98L197.69 315.82L176.51 337L-38.7598 131L-17.1499 100.98Z" fill="#FFDC32"/>
<path d="M82.4399 -14.4805L314.96 218.03L289.56 243.43L50.25 17.7195L82.4399 -14.4805Z" fill="#FFDC32"/>
<path d="M217.08 303.22L1.89014 78.7695L-8.5 89.1595L211.32 308.98L217.08 303.22Z" fill="#FFDC32"/>
<path d="M130.38 -43.3301L327.721 174.23L321.96 179.99L102.141 -39.8301L130.38 -43.3301Z" fill="#FFDC32"/>
</g>
</svg>
