<svg width="400" height="400" viewBox="0 0 400 400" fill="none" xmlns="http://www.w3.org/2000/svg">
<path d="M200.008 400C310.46 400 400 310.457 400 200C400 89.543 310.46 0 200.008 0C89.5552 0 0.015625 89.543 0.015625 200C0.015625 310.457 89.5552 400 200.008 400Z" fill="#FFF145"/>
<mask id="mask0_4877_63948" style="mask-type:luminance" maskUnits="userSpaceOnUse" x="0" y="0" width="400" height="400">
<path d="M199.992 400C310.445 400 399.984 310.457 399.984 200C399.984 89.5431 310.445 0 199.992 0C89.5395 0 0 89.5431 0 200C0 310.457 89.5395 400 199.992 400Z" fill="white"/>
</mask>
<g mask="url(#mask0_4877_63948)">
<path d="M107.858 84.7505L170.831 52.646L216.195 92.2031L297.454 66.2914L350.946 80.0164L389.547 59.3692L425.43 166.915L322.503 268.055L292.031 255.391L274.434 181.727L205.361 217.518L168.126 181.727L179.636 160.351L153.898 140.274L110.563 172.1L84.8383 172.776L64.5234 145.697L76.7097 118.605V92.8794L103.588 78.6505L107.858 84.7505Z" fill="#FFDC32"/>
<path d="M74.4563 213.632C75.7824 213.632 113.72 197.388 113.72 197.388L173.736 205.503L200.88 247.036L167.451 299.403L162.77 342.289L132.271 347.355L114.224 285.864L66.8184 264.196L74.4563 213.632Z" fill="#FFDC32"/>
<path d="M257.09 381.382C257.793 380.679 269.024 352.685 269.024 352.685L304.244 325.858L339.728 333.298L349.501 377.642L369.246 402.228L356.065 420.607L314.958 398.17L279.274 411.431L257.09 381.382Z" fill="#FFDC32"/>
</g>
</svg>
