<?xml version="1.0" encoding="utf-8"?>
<!-- Generator: Adobe Illustrator 26.5.0, SVG Export Plug-In . SVG Version: 6.00 Build 0)  -->
<svg version="1.1" id="Слой_1" xmlns="http://www.w3.org/2000/svg" xmlns:xlink="http://www.w3.org/1999/xlink" x="0px" y="0px"
	 viewBox="0 0 105.4 100.9" style="enable-background:new 0 0 105.4 100.9;" xml:space="preserve">
<style type="text/css">
	.st0{fill-rule:evenodd;clip-rule:evenodd;}
	.st1{fill-rule:evenodd;clip-rule:evenodd;fill:#FFFFFF;}
</style>
<path class="st0" d="M53.5,65.8l3-0.5l-1,1c-1.3,12.2-4.8,21-9.5,32.9l-16.2-0.6l7.4-30l-0.5-4.3l-1.2-20.1c2.7,0.1,5.3,0.2,7.8,0.3
	l0,0l9.9,0.4C65,45.4,63,60.2,60.7,59.7c-0.5-0.1-2.5,7.7-2.7,5.2l-0.4-4.6l0.6,3l-5.4,2.5L53.5,65.8z"/>
<path class="st0" d="M55.8,75.3L39.7,73l11.1-24.6c1.1-3.1,2.6-5.5,4.5-7.3c2.2-2.2,4.8-3.5,7.6-4c2.8-0.5,5.8-0.2,8.8,0.9
	c3.3,1.2,6.6,3.4,9.7,6.5l9.2,9.2c0.6,0.6,1.1,1,1.5,1.1c0.2,0.1,0.4,0,0.5-0.1c0.2-0.2,0.3-0.4,0.3-0.8c0-0.4-0.1-0.8-0.3-1.4l0,0
	c-0.5-1.4-1-2.7-1.5-4c-0.9-2.5-1.8-4.9-2.7-7.5c-0.8-2.1-1-4.2-0.8-6.1c0.2-1.7,0.7-3.2,1.6-4.5c0.9-1.3,2.1-2.3,3.7-2.8
	c1.3-0.5,2.8-0.7,4.6-0.5l3.8,0.4l-1.3,8.8l-2.4,0.1c0,0-0.1,0-0.1,0c-0.1,0-0.3,0.1-0.3,0.3c-0.1,0.1-0.1,0.3-0.1,0.6
	c0,0.1,0,0.1,0.1,0.2c0.1,0.4,0.4,0.9,0.6,1.2l0.1,0.2c0.5,0.9,1.1,1.8,1.7,2.7c0.5,0.7,0.9,1.4,1.4,2.1l0.1,0.1
	c3.2,5.2,5.8,9.3,3,15.8c-0.8,1.9-2.1,3.5-3.8,4.9c-1.7,1.4-3.8,2.5-6.2,3.3L80.5,72l-1,7c-7.9-1.1-15.8-2.3-23.7-3.4L55.8,75.3z"/>
<path class="st0" d="M83.5,55.8c-0.1,2.6-2.3,4.6-4.8,4.5c-2.6-0.1-4.6-2.3-4.5-4.8c0.1-2.6,2.3-4.6,4.8-4.5
	C81.5,51.1,83.6,53.3,83.5,55.8z"/>
<path class="st0" d="M44.8,73.3l20.5-19c-2.8-3.4-4.2-4.2-5.4-7.2l1.3-1.2c1.8-15.5-0.6-22.2-11.3-24.7C25.5,17.1,28.4,19,13.7,4.5
	L2,17.1c10.7,13.2,12.3,15.7,24.7,21.6C22.9,52.5,31.1,66.5,44.8,73.3z"/>
<path d="M65.3,55.1l0.4,0.4l0.4-0.3l-0.3-0.4L65.3,55.1z M59.9,47.9l-0.3-0.4l-0.3,0.2l0.1,0.3L59.9,47.9z M61.3,46.7l0.3,0.4
	l0.1-0.1l0-0.2L61.3,46.7z M50,22l0.1-0.5l0,0l0,0L50,22z M13.7,5.3l0.4-0.4l-0.4-0.4l-0.4,0.4L13.7,5.3z M2,17.9l-0.4-0.4l-0.3,0.3
	l0.3,0.4L2,17.9z M26.8,39.5l0.5,0.1l0.1-0.4L27,39L26.8,39.5z M45.2,74.5l20.5-19L65,54.8L44.5,73.7L45.2,74.5z M65.7,54.8
	c-0.7-0.9-1.3-1.6-1.9-2.2c-0.5-0.6-1-1.1-1.4-1.6c-0.8-1-1.4-1.9-2-3.3l-1,0.4c0.6,1.6,1.3,2.6,2.2,3.6c0.4,0.5,0.9,1,1.4,1.6
	c0.5,0.6,1.1,1.3,1.8,2.1L65.7,54.8z M60.3,48.3l1.3-1.2l-0.7-0.8l-1.3,1.2L60.3,48.3z M61.8,46.8c0.9-7.8,0.8-13.4-1-17.5
	c-1.8-4.1-5.2-6.5-10.7-7.8l-0.2,1c5.2,1.2,8.3,3.4,10,7.2c1.6,3.8,1.8,9.2,0.9,17L61.8,46.8z M50.1,21.5
	c-6.1-1.1-10.5-1.7-13.9-2.4c-3.4-0.6-5.7-1.2-7.7-2.1c-4.1-1.8-6.9-4.8-14.3-12.1l-0.7,0.7C20.7,12.8,23.7,16.1,28,18
	c2.1,1,4.6,1.6,8,2.2c3.4,0.6,7.8,1.3,13.9,2.4L50.1,21.5z M13.3,4.9L1.7,17.5l0.8,0.7L14.1,5.6L13.3,4.9z M1.6,18.2
	c5.3,6.6,8.4,10.6,11.8,13.6c3.4,3.1,6.9,5.2,13.2,8.1L27,39c-6.2-2.9-9.7-5-12.9-7.9c-3.3-3-6.3-6.9-11.6-13.5L1.6,18.2z
	 M26.3,39.3c-3.9,14.1,4.4,28.3,18.3,35.2l0.5-0.9c-13.6-6.7-21.5-20.5-17.8-34L26.3,39.3z"/>
<path class="st0" d="M50.1,74.5c2.3,7.3,4.3,14.7,5.1,25.2l15.7,0.1c-0.7-10.7-1.4-19.2-4.7-29.1l-13-4.9L50.1,74.5z"/>
<path d="M49.9,75.1L49.5,75l-0.1,0.2l0.1,0.2L49.9,75.1z M55,100.3l-0.5,0l0,0.5l0.5,0L55,100.3z M70.7,100.4l0,0.5l0.6,0l0-0.6
	L70.7,100.4z M66,71.3l0.5-0.2l-0.1-0.2l-0.2-0.1L66,71.3z M53,66.4l0.2-0.5l-0.5-0.2l-0.2,0.5L53,66.4z M49.4,75.3
	c2.3,7.3,4.3,14.6,5,25.1l1-0.1c-0.7-10.6-2.8-18-5.1-25.3L49.4,75.3z M55,100.8l15.7,0.1l0-1L55,99.8L55,100.8z M71.2,100.4
	c-0.7-10.7-1.4-19.3-4.8-29.3l-1,0.3c3.3,9.8,4,18.3,4.7,29L71.2,100.4z M66.2,70.8l-13-4.9l-0.4,1l13,4.9L66.2,70.8z M52.5,66.2
	l-3,8.7l1,0.3l3-8.8L52.5,66.2z"/>
<path class="st0" d="M67.6,90.9c3.9,2.3,5.9,4.8,6.2,9.6L57.1,100l-0.2-1.3l-1.5-8.2L67.6,90.9z"/>
<path class="st0" d="M42.8,90.3c3.5,2.3,5,4.8,5.4,9.6l-17.8-0.6l0-1.3l1.3-8.4L42.8,90.3z"/>
<path class="st1" d="M84.1,60.2c-0.4,10.3-14.4,9.8-14-0.5C70.4,49.4,84.4,49.9,84.1,60.2z"/>
<path class="st1" d="M84.1,60.2c-0.4,10.3-14.4,9.8-14-0.5C70.4,49.4,84.4,49.9,84.1,60.2z"/>
<path class="st0" d="M85.4,57.5c-0.1,2.8-2.4,4.9-5.2,4.8c-2.8-0.1-4.9-2.4-4.8-5.2c0.1-2.8,2.4-4.9,5.2-4.8
	C83.3,52.5,85.5,54.8,85.4,57.5z"/>
<path class="st0" d="M10.5,22.3c-4,0.8-6.9,0.1-10.5-3L13.1,7.1l6.4,6.9L10.5,22.3z"/>
<path class="st0" d="M37.3,35.1l1-0.4l-6.2-8.5l2.8-18.3c-2-2.2-2.7-5-2.2-7.9l19.5,2l-1.3,22.7c-0.2,5.2,0,8,5.2,17.9
	c4.2,9.5,3.6,14.2-9.9,19L37.3,35.1z"/>
</svg>
