<?xml version="1.0" encoding="utf-8"?>
<!-- Generator: Adobe Illustrator 26.5.0, SVG Export Plug-In . SVG Version: 6.00 Build 0)  -->
<svg version="1.1" id="Слой_1" xmlns="http://www.w3.org/2000/svg" xmlns:xlink="http://www.w3.org/1999/xlink" x="0px" y="0px"
	 viewBox="0 0 11 10.7" style="enable-background:new 0 0 11 10.7;" xml:space="preserve">
<style type="text/css">
	.st0{fill-rule:evenodd;clip-rule:evenodd;}
</style>
<path class="st0" d="M7.7,0C7.8,0,8,0,8.1,0c0.1,0,0.3,0,0.4,0.1c0.1,0,0.3,0.1,0.6,0.2L2.3,7.4L0.9,5.8l2.3-2.5
	c1.6-1.6,2.4-2.5,2.5-2.6C5.8,0.7,6,0.5,6.1,0.5c0.1-0.1,0.3-0.2,0.4-0.2c0.1,0,0.3-0.1,0.4-0.1C7.1,0.1,7.3,0,7.4,0
	C7.4,0,7.6,0,7.7,0z M3.2,0c0.1,0,0.3,0,0.4,0c0.1,0,0.3,0,0.3,0.1c0.1,0,0.2,0.1,0.3,0.1c0.1,0,0.3,0.1,0.4,0.1
	c0.1,0,0.2,0.1,0.3,0.2c0.1,0.1,0.2,0.1,0.2,0.2c0,0,0.1,0.1,0.1,0.1c0,0-0.1,0.2-1.4,1.5l-1-1c-0.5-0.6-1-1-0.9-1
	c0,0,0.1-0.1,0.2-0.1c0.1,0,0.3-0.1,0.4-0.1c0.1,0,0.2,0,0.3,0C3,0,3.1,0,3.2,0z M1.8,0.4c0,0,0.5,0.5,2,2.1L2.3,4l-1-1
	c-0.5-0.6-1-1.1-1-1.1c0,0,0-0.1,0.1-0.2c0.1-0.1,0.2-0.3,0.2-0.4C0.8,1.2,0.9,1,1,1c0.1-0.1,0.2-0.2,0.3-0.3
	c0.1-0.1,0.2-0.1,0.3-0.2C1.7,0.4,1.8,0.4,1.8,0.4z M9.3,0.4c0,0,0.1,0.1,0.3,0.2C9.7,0.7,9.9,0.8,10,1c0.1,0.1,0.3,0.3,0.4,0.4
	c0.1,0.1,0.2,0.3,0.3,0.5L4,9.1L3.2,8.4C2.8,7.9,2.5,7.6,2.5,7.6c0,0,1.5-1.6,3.4-3.6C8.3,1.4,9.3,0.4,9.3,0.4z M0.3,2.1
	c0,0,0.4,0.5,1.9,2L0.7,5.7L0.6,5.5C0.6,5.4,0.5,5.3,0.4,5.2C0.4,5.1,0.3,5,0.3,4.8c0-0.1-0.1-0.3-0.1-0.4c0-0.1-0.1-0.3-0.1-0.4
	c0-0.1,0-0.3,0-0.5C0,3.3,0,3.1,0,3c0-0.1,0-0.3,0.1-0.4c0-0.1,0.1-0.3,0.1-0.3C0.2,2.2,0.2,2.1,0.3,2.1z M10.8,2.2
	c0,0,0,0.1,0.1,0.2c0,0.1,0.1,0.3,0.1,0.5c0,0.2,0,0.4,0,0.6c0,0.2,0,0.4,0,0.6c0,0.1-0.1,0.3-0.1,0.4c0,0.1-0.1,0.3-0.1,0.4
	c0,0.1-0.1,0.3-0.2,0.4c-0.1,0.1-0.2,0.3-0.2,0.4c-0.1,0.1-0.5,0.6-1,1.1C8.9,7.2,7.8,8.3,7.1,9.1c-0.8,0.8-1.4,1.5-1.5,1.5
	c0,0-0.1,0-0.1,0s-0.1,0-0.1,0c0,0-0.3-0.3-1.3-1.3l3.3-3.5C9.3,3.8,10.8,2.2,10.8,2.2z"/>
</svg>
