<?xml version="1.0" encoding="utf-8"?>
<!-- Generator: Adobe Illustrator 26.5.0, SVG Export Plug-In . SVG Version: 6.00 Build 0)  -->
<svg version="1.1" id="Слой_1" xmlns="http://www.w3.org/2000/svg" xmlns:xlink="http://www.w3.org/1999/xlink" x="0px" y="0px"
	 viewBox="0 0 11.6 11" style="enable-background:new 0 0 11.6 11;" xml:space="preserve">
<g>
	<g>
		<path d="M2.4,1.2c0,0.5-0.3,0.9-0.8,1.1c-0.5,0.2-1,0.1-1.3-0.3C0,1.7-0.1,1.2,0.1,0.7C0.3,0.3,0.8,0,1.3,0C1.9,0,2.4,0.6,2.4,1.2
			z M2.5,3.3H0V11h2.4V3.3z M6.3,3.3H3.9V11h2.4V7c0-2.2,2.9-2.4,2.9,0v4h2.4V6.2c0-3.8-4.3-3.6-5.3-1.8L6.3,3.3z"/>
	</g>
</g>
</svg>
