<?xml version="1.0" encoding="utf-8"?>
<!-- Generator: Adobe Illustrator 26.5.0, SVG Export Plug-In . SVG Version: 6.00 Build 0)  -->
<svg version="1.1" id="Слой_1" xmlns="http://www.w3.org/2000/svg" xmlns:xlink="http://www.w3.org/1999/xlink" x="0px" y="0px"
	 viewBox="0 0 10.5 12" style="enable-background:new 0 0 10.5 12;" xml:space="preserve">
<g>
	<g>
		<path d="M10.5,4.9c-1,0-2-0.3-2.9-0.9v4.2c0,0.8-0.2,1.5-0.7,2.2c-0.4,0.6-1.1,1.1-1.8,1.4c-0.7,0.3-1.5,0.3-2.3,0.1
			c-0.8-0.2-1.4-0.6-1.9-1.2C0.4,10.1,0.1,9.4,0,8.6c-0.1-0.8,0.1-1.6,0.4-2.2c0.4-0.7,0.9-1.2,1.6-1.6c0.7-0.4,1.5-0.5,2.2-0.4v2.1
			C4,6.4,3.6,6.4,3.3,6.5C2.9,6.6,2.6,6.9,2.4,7.2c-0.2,0.3-0.3,0.7-0.3,1c0,0.4,0.1,0.7,0.3,1c0.2,0.3,0.5,0.5,0.9,0.6
			C3.6,10,4,10,4.4,9.9C4.7,9.7,5,9.5,5.2,9.2c0.2-0.3,0.3-0.7,0.3-1V0h2.1c0,0.2,0,0.3,0,0.5c0.1,0.4,0.2,0.7,0.4,1.1
			c0.2,0.3,0.5,0.6,0.8,0.8c0.5,0.3,1,0.5,1.6,0.5V4.9z"/>
	</g>
</g>
</svg>
