<?xml version="1.0" encoding="utf-8"?>
<!-- Generator: Adobe Illustrator 26.5.0, SVG Export Plug-In . SVG Version: 6.00 Build 0)  -->
<svg version="1.1" id="Слой_1" xmlns="http://www.w3.org/2000/svg" xmlns:xlink="http://www.w3.org/1999/xlink" x="0px" y="0px"
	 viewBox="0 0 14.8 12" style="enable-background:new 0 0 14.8 12;" xml:space="preserve">
<g>
	<g>
		<path d="M14.8,1.4c-0.6,0.2-1.1,0.4-1.7,0.5c0.6-0.4,1.1-1,1.3-1.7c-0.6,0.4-1.2,0.6-1.9,0.7c-0.6-0.6-1.4-1-2.2-1
			c-1.7,0-3,1.4-3,3c0,0.2,0,0.5,0.1,0.7C4.8,3.6,2.5,2.4,1,0.6C0.8,1,0.6,1.5,0.6,2.1c0,1.1,0.5,2,1.3,2.5c-0.5,0-1-0.1-1.4-0.4
			c0,0,0,0,0,0c0,1.5,1,2.7,2.4,3C2.8,7.3,2.5,7.3,2.2,7.3c-0.2,0-0.4,0-0.6-0.1C2,8.5,3.2,9.4,4.5,9.4c-1.1,0.8-2.4,1.3-3.8,1.3
			c-0.2,0-0.5,0-0.7,0C1.4,11.5,3,12,4.6,12c5.6,0,8.6-4.6,8.6-8.6c0-0.1,0-0.3,0-0.4C13.8,2.6,14.4,2,14.8,1.4z"/>
	</g>
</g>
</svg>
