<?xml version="1.0" encoding="utf-8"?>
<!-- Generator: Adobe Illustrator 26.5.0, SVG Export Plug-In . SVG Version: 6.00 Build 0)  -->
<svg version="1.1" id="Слой_1" xmlns="http://www.w3.org/2000/svg" xmlns:xlink="http://www.w3.org/1999/xlink" x="0px" y="0px"
	 viewBox="0 0 16 9.6" style="enable-background:new 0 0 16 9.6;" xml:space="preserve">
<style type="text/css">
	.st0{fill-rule:evenodd;clip-rule:evenodd;}
</style>
<path class="st0" d="M15.6,0.7c0.1-0.4,0-0.6-0.5-0.6h-1.7c-0.4,0-0.6,0.2-0.8,0.5c0,0-0.9,2.2-2.2,3.6C10,4.5,9.8,4.7,9.6,4.7
	c-0.1,0-0.3-0.1-0.3-0.5V0.6C9.4,0.2,9.2,0,8.8,0H6.1C5.8,0,5.7,0.2,5.7,0.4c0,0.4,0.6,0.5,0.7,1.7v2.6c0,0.6-0.1,0.7-0.3,0.7
	c-0.6,0-2-2.2-2.9-4.7C3,0.2,2.8,0,2.4,0H0.6C0.1,0,0,0.2,0,0.5C0,1,0.6,3.3,2.8,6.4c1.4,2.1,3.5,3.2,5.3,3.2c1.1,0,1.3-0.3,1.3-0.7
	V7.3c0-0.5,0.1-0.6,0.5-0.6c0.3,0,0.7,0.1,1.7,1.1c1.2,1.2,1.4,1.7,2.1,1.7h1.7c0.5,0,0.7-0.3,0.6-0.8c-0.2-0.5-0.7-1.2-1.5-2.1
	c-0.4-0.5-1-1-1.2-1.3c-0.3-0.3-0.2-0.5,0-0.8C13.3,4.7,15.4,1.7,15.6,0.7"/>
</svg>
