<svg width="74" height="73" viewBox="0 0 74 73" fill="none" xmlns="http://www.w3.org/2000/svg">
<path fill-rule="evenodd" clip-rule="evenodd" d="M46.4422 38.319L51.2578 44.4878C39.5825 61.2913 26.2295 72.9205 25.1093 72.2452C0.971032 57.7088 -3.60289 36.7858 4.27557 25.6081C10.2694 17.102 20.2208 17.4948 29.4974 17.7648C35.1195 17.9284 40.9817 18.3412 45.0012 18.6211C47.9897 18.8293 60.0876 19.3612 59.765 14.5619C59.5522 11.3942 57.1913 10.8936 54.8033 9.11916L60.2049 0C65.7099 3.22985 71.515 5.89423 73.3959 12.6315C75.4277 19.9125 71.1794 25.7637 65.3286 29.5529C59.1373 33.564 52.5031 36.1076 46.4422 38.319Z" fill="black"/>
</svg>
