<svg width="128" height="129" viewBox="0 0 128 129" fill="none" xmlns="http://www.w3.org/2000/svg">
<path fill-rule="evenodd" clip-rule="evenodd" d="M3.10051 74.7359L9.38004 38.2408C16.2219 -1.49885 50.9295 -11.6393 78.6476 16.2734C84.4012 22.0694 94.2992 32.1205 99.9581 37.513C105.463 42.7596 109.859 36.0917 105.484 33.5335L98.1799 28.8907L104.569 15.2912C110.32 17.7237 115.972 20.0771 120.191 23.3676C133.051 33.3976 127.445 57.6691 109.517 59.7282C104.877 60.2623 99.6841 59.4774 94.3672 57.728L72.3259 52.4457L79.3887 97.4561L102.969 101.971C106.228 98.3356 111.487 97.8443 115.052 98.4911L111.52 128.481L30.1521 125.515C12.7031 126.032 6.41093 121.942 3.16424 114.034C-0.459356 105.204 0.192955 91.6285 3.10051 74.7359Z" fill="black"/>
</svg>
