<svg width="20" height="20" viewBox="0 0 20 20" fill="none" xmlns="http://www.w3.org/2000/svg">
<path d="M10.0014 3.27828C11.0271 2.36009 12.3655 1.86964 13.7416 1.90771C15.1177 1.94578 16.427 2.50947 17.4004 3.48296C18.3729 4.45536 18.9367 5.76294 18.9761 7.13766C19.0154 8.51238 18.5275 9.85009 17.6122 10.8766L9.99957 18.5L2.38869 10.8766C1.47235 9.84956 0.98394 8.5107 1.02374 7.13488C1.06354 5.75905 1.62852 4.45066 2.6027 3.47832C3.57688 2.50598 4.88634 1.94347 6.26223 1.90627C7.63813 1.86907 8.97607 2.36 10.0014 3.27828ZM16.1292 4.75144C15.4807 4.1034 14.6087 3.72811 13.6923 3.70257C12.7758 3.67703 11.8843 4.00318 11.2007 4.61409L10.0023 5.68956L8.80291 4.61499C8.11888 4.00334 7.2266 3.67684 6.30935 3.70255C5.3921 3.72826 4.51952 4.10423 3.87083 4.75324C3.22829 5.39574 2.85322 6.25794 2.82124 7.16604C2.78925 8.07414 3.10273 8.9606 3.69847 9.64671L10.0005 15.9586L16.3025 9.64761C16.8989 8.96122 17.2127 8.07412 17.1805 7.16539C17.1483 6.25666 16.7726 5.39396 16.1292 4.75144Z" fill="black"/>
</svg>
