<svg width="20" height="20" viewBox="0 0 20 20" fill="none" xmlns="http://www.w3.org/2000/svg">
<g clip-path="url(#clip0_4859_150822)">
<path d="M9.9 14.05C10.4385 14.05 10.875 14.4865 10.875 15.025C10.875 15.5635 10.4385 16 9.9 16C9.36154 16 8.925 15.5635 8.925 15.025C8.925 14.4865 9.36154 14.05 9.9 14.05ZM9.9 3C12.0539 3 13.8 4.74609 13.8 6.9C13.8 8.30699 13.3108 9.03896 12.0618 10.1C10.8091 11.1643 10.55 11.643 10.55 12.75H9.25C9.25 11.1419 9.76155 10.3484 11.2201 9.10928C12.2061 8.27163 12.5 7.83193 12.5 6.9C12.5 5.46406 11.3359 4.3 9.9 4.3C8.46406 4.3 7.3 5.46406 7.3 6.9V7.55H6V6.9C6 4.74609 7.74609 3 9.9 3Z" fill="white"/>
</g>
<defs>
<clipPath id="clip0_4859_150822">
<rect width="20" height="20" fill="white"/>
</clipPath>
</defs>
</svg>
