<svg width="26" height="26" viewBox="0 0 26 26" fill="none" xmlns="http://www.w3.org/2000/svg">
<path d="M20.1743 0H5.41797V26H20.1743V0Z" fill="#FFF145"/>
<path d="M11.4932 19.9336H8.89844V25.1249H11.4932V19.9336ZM10.6252 24.2583H9.76642V20.8002H10.6252V24.2583Z" fill="black"/>
<path d="M16.7013 13.8242L8.89844 15.1979V20.7965H16.7013V13.8242ZM15.8333 14.857V19.9299H9.7664V15.9251L15.8333 14.857Z" fill="black"/>
<path d="M16.6963 19.9336H14.1016V25.1249H16.6963V19.9336ZM15.8285 24.2583H14.9697V20.8002H15.8285V24.2583Z" fill="black"/>
<path d="M3.7703 16.1008L3.31817 13.5402L3.16736 12.6867L2.31255 12.8374L1.45775 12.9878L1.00544 10.4272L1.86042 10.2768L2.71525 10.1262L2.56441 9.2727L2.11227 6.71229L20.1741 3.53244V2.65234L1.10683 6.00923L1.70961 9.42327L0 9.7243L0.753582 13.9917L2.46335 13.6908L3.06617 17.1047L20.1741 14.0928V13.2129L3.7703 16.1008Z" fill="black"/>
<path d="M7.59741 10.1411C7.62328 10.1365 7.64948 10.1342 7.67505 10.1342C7.88726 10.1342 8.06806 10.2863 8.10499 10.4959C8.14706 10.7336 7.98755 10.9609 7.74962 11.0028C7.72375 11.0074 7.69769 11.0097 7.67197 11.0097C7.45976 11.0097 7.27894 10.8576 7.24205 10.6479C7.19994 10.4103 7.35948 10.183 7.59741 10.1411ZM7.67197 11.8763C7.7473 11.8763 7.82354 11.8697 7.90027 11.8563C8.61068 11.7312 9.085 11.0548 8.95977 10.3455C8.84817 9.71273 8.29698 9.26758 7.67505 9.26758C7.59972 9.26758 7.52348 9.27415 7.44675 9.28762C6.73634 9.41265 6.26198 10.0891 6.38725 10.7984C6.49885 11.4312 7.05004 11.8763 7.67197 11.8763Z" fill="black"/>
<path d="M17.5662 8.52114C17.6048 8.46592 17.6928 8.36931 17.8477 8.34209C17.8734 8.33769 17.8992 8.33538 17.9248 8.33538C18.1358 8.33538 18.3157 8.48672 18.3526 8.69522C18.3798 8.84964 18.3191 8.96522 18.2803 9.0204C18.2416 9.07558 18.1537 9.17203 17.9989 9.1994C17.9732 9.20384 17.9472 9.20611 17.9217 9.20611C17.7108 9.20611 17.5309 9.05477 17.494 8.84627C17.4667 8.69188 17.5275 8.57632 17.5662 8.52114ZM17.9217 10.0727C17.9969 10.0727 18.0732 10.0663 18.1497 10.0527C18.8589 9.92797 19.3323 9.25274 19.2074 8.54465C19.0958 7.91301 18.5457 7.4686 17.9248 7.46875C17.8496 7.46875 17.7734 7.47517 17.6968 7.48864C16.9876 7.61352 16.5142 8.28874 16.6391 8.99684C16.7508 9.62836 17.3009 10.0727 17.9217 10.0727Z" fill="black"/>
</svg>
