<svg width="20" height="20" viewBox="0 0 20 20" fill="none" xmlns="http://www.w3.org/2000/svg">
<g clip-path="url(#clip0_4820_150740)">
<path fill-rule="evenodd" clip-rule="evenodd" d="M17.6234 5.66667C17.742 5.29067 17.6234 5.01733 17.0984 5.01733H15.3527C14.9123 5.01733 14.709 5.25667 14.5903 5.51267C14.5903 5.51267 13.6923 7.69934 12.4383 9.117C12.0317 9.52701 11.8453 9.66367 11.625 9.66367C11.5063 9.66367 11.3537 9.52701 11.3537 9.15134V5.649C11.3537 5.205 11.2183 5 10.8453 5H8.10001C7.82867 5 7.65934 5.205 7.65934 5.41C7.65934 5.837 8.28634 5.93967 8.35401 7.13534V9.73334C8.35401 10.297 8.25401 10.4 8.03201 10.4C7.43901 10.4 5.99867 8.19634 5.13467 5.68533C4.96667 5.188 4.796 5 4.35534 5H2.593C2.08467 5 2 5.239 2 5.49533C2 5.95667 2.593 8.27967 4.762 11.3543C6.20234 13.4543 8.25267 14.583 10.0997 14.583C11.2183 14.583 11.3537 14.3267 11.3537 13.8997V12.311C11.3537 11.7987 11.4553 11.7133 11.8113 11.7133C12.0653 11.7133 12.523 11.8497 13.5567 12.8577C14.7427 14.0533 14.946 14.6 15.607 14.6H17.3524C17.8607 14.6 18.098 14.3437 17.9624 13.8483C17.81 13.353 17.2337 12.6357 16.488 11.7817C16.0814 11.3037 15.4714 10.774 15.285 10.5177C15.031 10.176 15.0987 10.0393 15.285 9.73201C15.268 9.73201 17.4034 6.69134 17.6234 5.66533" fill="#FFF145"/>
</g>
<defs>
<clipPath id="clip0_4820_150740">
<rect width="20" height="20" fill="white"/>
</clipPath>
</defs>
</svg>
