<svg width="20" height="20" viewBox="0 0 20 20" fill="none" xmlns="http://www.w3.org/2000/svg">
<g clip-path="url(#clip0_5341_65669)">
<path d="M3.7 5.59375H2V15.4537H19V5.59375H17.3" stroke="black" stroke-width="1.3" stroke-linejoin="round"/>
<path d="M10.5053 14.0001V4.56739M10.5053 14.0001L9.03382 13.1417C7.51657 12.2567 5.65523 12.1967 4.08414 12.9822L4 13.0243V3.59159L4.08414 3.54952C5.65523 2.76398 7.51657 2.82396 9.03382 3.70902L10.5053 4.56739M10.5053 14.0001L11.9768 13.1417C13.494 12.2567 15.3554 12.1967 16.9265 12.9822L17.0106 13.0243V3.59159L16.9265 3.54952C15.3554 2.76398 13.4941 2.82396 11.9768 3.70902L10.5053 4.56739" stroke="black" stroke-width="1.3" stroke-linejoin="round"/>
</g>
<defs>
<clipPath id="clip0_5341_65669">
<rect width="20" height="20" fill="white"/>
</clipPath>
</defs>
</svg>
