<svg width="129" height="57" viewBox="0 0 129 57" fill="none" xmlns="http://www.w3.org/2000/svg">
<rect width="129" height="56" transform="translate(0 0.837891)" fill="#F5F5F5"/>
<g clip-path="url(#clip0_7305_26416)">
<path d="M19.7 24.4316H18V34.2916H35V24.4316H33.3" stroke="black" stroke-width="1.3" stroke-linejoin="round"/>
<path d="M26.5053 32.838V23.4053M26.5053 32.838L25.0338 31.9796C23.5166 31.0946 21.6552 31.0346 20.0841 31.8201L20 31.8622V22.4295L20.0841 22.3874C21.6552 21.6019 23.5166 21.6618 25.0338 22.5469L26.5053 23.4053M26.5053 32.838L27.9768 31.9796C29.494 31.0946 31.3554 31.0346 32.9265 31.8201L33.0106 31.8622V22.4295L32.9265 22.3874C31.3554 21.6019 29.4941 21.6618 27.9768 22.5469L26.5053 23.4053" stroke="black" stroke-width="1.3" stroke-linejoin="round"/>
</g>
<path d="M56.3341 26.9479C55.6595 26.9479 55.0398 26.7829 54.4751 26.4529C53.9105 26.1156 53.4631 25.6462 53.1331 25.0449C52.8105 24.4436 52.6491 23.7579 52.6491 22.9879C52.6491 22.2179 52.8105 21.5322 53.1331 20.9309C53.4631 20.3296 53.9105 19.8639 54.4751 19.5339C55.0398 19.1966 55.6595 19.0279 56.3341 19.0279C57.1628 19.0279 57.8815 19.2589 58.4901 19.7209C59.1061 20.1829 59.5241 20.8136 59.7441 21.6129H58.8091C58.6185 21.0629 58.3031 20.6339 57.8631 20.3259C57.4231 20.0106 56.9135 19.8529 56.3341 19.8529C55.8208 19.8529 55.3478 19.9849 54.9151 20.2489C54.4898 20.5129 54.1525 20.8832 53.9031 21.3599C53.6538 21.8366 53.5291 22.3792 53.5291 22.9879C53.5291 23.5966 53.6538 24.1392 53.9031 24.6159C54.1525 25.0926 54.4898 25.4629 54.9151 25.7269C55.3478 25.9909 55.8208 26.1229 56.3341 26.1229C56.9135 26.1229 57.4231 25.9652 57.8631 25.6499C58.3031 25.3272 58.6185 24.8799 58.8091 24.3079H59.7441C59.5241 25.1292 59.1061 25.7746 58.4901 26.2439C57.8815 26.7132 57.1628 26.9479 56.3341 26.9479ZM61.7293 26.8379H60.9043V21.3379H62.4443L63.9293 25.9029H64.1493L65.6343 21.3379H67.1743V26.8379H66.3493V22.3279H66.1293L64.6443 26.8379H63.4343L61.9493 22.3279H61.7293V26.8379ZM71.0238 26.9479C70.5325 26.9479 70.0852 26.8269 69.6818 26.5849C69.2785 26.3429 68.9595 26.0056 68.7248 25.5729C68.4975 25.1402 68.3838 24.6452 68.3838 24.0879C68.3838 23.5306 68.4975 23.0356 68.7248 22.6029C68.9595 22.1702 69.2785 21.8329 69.6818 21.5909C70.0852 21.3489 70.5325 21.2279 71.0238 21.2279C71.5152 21.2279 71.9625 21.3489 72.3658 21.5909C72.7692 21.8329 73.0845 22.1702 73.3118 22.6029C73.5465 23.0356 73.6638 23.5306 73.6638 24.0879C73.6638 24.6452 73.5465 25.1402 73.3118 25.5729C73.0845 26.0056 72.7692 26.3429 72.3658 26.5849C71.9625 26.8269 71.5152 26.9479 71.0238 26.9479ZM71.0238 26.1779C71.3538 26.1779 71.6582 26.0936 71.9368 25.9249C72.2155 25.7489 72.4355 25.5032 72.5968 25.1879C72.7582 24.8652 72.8388 24.4986 72.8388 24.0879C72.8388 23.6772 72.7582 23.3142 72.5968 22.9989C72.4355 22.6762 72.2155 22.4306 71.9368 22.2619C71.6582 22.0859 71.3538 21.9979 71.0238 21.9979C70.6938 21.9979 70.3895 22.0859 70.1108 22.2619C69.8322 22.4306 69.6122 22.6762 69.4508 22.9989C69.2895 23.3142 69.2088 23.6772 69.2088 24.0879C69.2088 24.4986 69.2895 24.8652 69.4508 25.1879C69.6122 25.5032 69.8322 25.7489 70.1108 25.9249C70.3895 26.0936 70.6938 26.1779 71.0238 26.1779ZM76.7443 26.8379H75.9193V22.1079H74.0493V21.3379H78.6143V22.1079H76.7443V26.8379ZM79.5527 29.0379V21.3379H80.2677L80.3777 22.1079H80.4327C80.66 21.8219 80.9167 21.6056 81.2027 21.4589C81.4887 21.3049 81.8187 21.2279 82.1927 21.2279C82.6694 21.2279 83.0984 21.3489 83.4797 21.5909C83.8684 21.8329 84.1727 22.1702 84.3927 22.6029C84.6127 23.0356 84.7227 23.5306 84.7227 24.0879C84.7227 24.6452 84.6127 25.1402 84.3927 25.5729C84.1727 26.0056 83.8684 26.3429 83.4797 26.5849C83.0984 26.8269 82.6694 26.9479 82.1927 26.9479C81.8187 26.9479 81.4887 26.8746 81.2027 26.7279C80.9167 26.5739 80.66 26.3539 80.4327 26.0679H80.3777V29.0379H79.5527ZM82.1377 26.1779C82.453 26.1779 82.7427 26.0899 83.0067 25.9139C83.278 25.7379 83.4944 25.4922 83.6557 25.1769C83.817 24.8616 83.8977 24.4986 83.8977 24.0879C83.8977 23.6772 83.817 23.3142 83.6557 22.9989C83.4944 22.6836 83.278 22.4379 83.0067 22.2619C82.7427 22.0859 82.453 21.9979 82.1377 21.9979C81.8224 21.9979 81.529 22.0859 81.2577 22.2619C80.9937 22.4379 80.781 22.6836 80.6197 22.9989C80.4584 23.3142 80.3777 23.6772 80.3777 24.0879C80.3777 24.4986 80.4584 24.8616 80.6197 25.1769C80.781 25.4922 80.9937 25.7379 81.2577 25.9139C81.529 26.0899 81.8224 26.1779 82.1377 26.1779ZM88.2436 26.9479C87.7522 26.9479 87.3049 26.8269 86.9016 26.5849C86.4982 26.3429 86.1792 26.0056 85.9446 25.5729C85.7172 25.1402 85.6036 24.6452 85.6036 24.0879C85.6036 23.5306 85.7172 23.0356 85.9446 22.6029C86.1792 22.1702 86.4982 21.8329 86.9016 21.5909C87.3049 21.3489 87.7522 21.2279 88.2436 21.2279C88.7129 21.2279 89.1419 21.3416 89.5306 21.5689C89.9192 21.7962 90.2236 22.1116 90.4436 22.5149C90.6636 22.9109 90.7736 23.3619 90.7736 23.8679C90.7736 24.1612 90.7552 24.3629 90.7186 24.4729H86.4286C86.4799 24.9862 86.6779 25.4006 87.0226 25.7159C87.3672 26.0239 87.7742 26.1779 88.2436 26.1779C88.5736 26.1779 88.8669 26.1009 89.1236 25.9469C89.3876 25.7929 89.5892 25.5766 89.7286 25.2979H90.6086C90.4179 25.8259 90.1172 26.2329 89.7066 26.5189C89.3032 26.8049 88.8156 26.9479 88.2436 26.9479ZM89.9486 23.7029C89.9192 23.2042 89.7432 22.7972 89.4206 22.4819C89.1052 22.1592 88.7129 21.9979 88.2436 21.9979C87.7522 21.9979 87.3416 22.1592 87.0116 22.4819C86.6816 22.7972 86.4872 23.2042 86.4286 23.7029H89.9486ZM93.8566 26.8379H93.0316V22.1079H91.1616V21.3379H95.7266V22.1079H93.8566V26.8379ZM96.665 26.8379V21.3379H97.49V23.2079H99.195C99.5544 23.2079 99.877 23.2886 100.163 23.4499C100.449 23.6039 100.669 23.8202 100.823 24.0989C100.984 24.3702 101.065 24.6782 101.065 25.0229C101.065 25.3676 100.984 25.6792 100.823 25.9579C100.669 26.2292 100.449 26.4456 100.163 26.6069C99.877 26.7609 99.5544 26.8379 99.195 26.8379H96.665ZM99.195 26.0679C99.4957 26.0679 99.745 25.9689 99.943 25.7709C100.141 25.5729 100.24 25.3236 100.24 25.0229C100.24 24.7222 100.141 24.4729 99.943 24.2749C99.745 24.0769 99.4957 23.9779 99.195 23.9779H97.49V26.0679H99.195ZM49.0829 38.9479C48.5916 38.9479 48.1443 38.8269 47.7409 38.5849C47.3376 38.3429 47.0186 38.0056 46.7839 37.5729C46.5566 37.1402 46.4429 36.6452 46.4429 36.0879C46.4429 35.5306 46.5566 35.0356 46.7839 34.6029C47.0186 34.1702 47.3376 33.8329 47.7409 33.5909C48.1443 33.3489 48.5916 33.2279 49.0829 33.2279C49.6916 33.2279 50.2123 33.3966 50.6449 33.7339C51.0776 34.0639 51.3636 34.5186 51.5029 35.0979H50.6779C50.5679 34.7459 50.3699 34.4746 50.0839 34.2839C49.8053 34.0932 49.4716 33.9979 49.0829 33.9979C48.7529 33.9979 48.4486 34.0859 48.1699 34.2619C47.8913 34.4306 47.6713 34.6762 47.5099 34.9989C47.3486 35.3142 47.2679 35.6772 47.2679 36.0879C47.2679 36.4986 47.3486 36.8652 47.5099 37.1879C47.6713 37.5032 47.8913 37.7489 48.1699 37.9249C48.4486 38.0936 48.7529 38.1779 49.0829 38.1779C49.4789 38.1779 49.8163 38.0789 50.0949 37.8809C50.3736 37.6829 50.5679 37.3969 50.6779 37.0229H51.5029C51.3636 37.6242 51.0776 38.0972 50.6449 38.4419C50.2123 38.7792 49.6916 38.9479 49.0829 38.9479ZM54.9696 38.9479C54.4783 38.9479 54.031 38.8269 53.6276 38.5849C53.2243 38.3429 52.9053 38.0056 52.6706 37.5729C52.4433 37.1402 52.3296 36.6452 52.3296 36.0879C52.3296 35.5306 52.4433 35.0356 52.6706 34.6029C52.9053 34.1702 53.2243 33.8329 53.6276 33.5909C54.031 33.3489 54.4783 33.2279 54.9696 33.2279C55.461 33.2279 55.9083 33.3489 56.3116 33.5909C56.715 33.8329 57.0303 34.1702 57.2576 34.6029C57.4923 35.0356 57.6096 35.5306 57.6096 36.0879C57.6096 36.6452 57.4923 37.1402 57.2576 37.5729C57.0303 38.0056 56.715 38.3429 56.3116 38.5849C55.9083 38.8269 55.461 38.9479 54.9696 38.9479ZM54.9696 38.1779C55.2996 38.1779 55.604 38.0936 55.8826 37.9249C56.1613 37.7489 56.3813 37.5032 56.5426 37.1879C56.704 36.8652 56.7846 36.4986 56.7846 36.0879C56.7846 35.6772 56.704 35.3142 56.5426 34.9989C56.3813 34.6762 56.1613 34.4306 55.8826 34.2619C55.604 34.0859 55.2996 33.9979 54.9696 33.9979C54.6396 33.9979 54.3353 34.0859 54.0566 34.2619C53.778 34.4306 53.558 34.6762 53.3966 34.9989C53.2353 35.3142 53.1546 35.6772 53.1546 36.0879C53.1546 36.4986 53.2353 36.8652 53.3966 37.1879C53.558 37.5032 53.778 37.7489 54.0566 37.9249C54.3353 38.0936 54.6396 38.1779 54.9696 38.1779ZM57.9375 40.1579V38.0679H58.0475C58.2968 38.0679 58.4802 38.0092 58.5975 37.8919C58.7222 37.7672 58.7955 37.5692 58.8175 37.2979L59.1475 33.3379H62.8325V38.0679H63.6025V40.1579H62.7775V38.8379H58.7625V40.1579H57.9375ZM62.0075 38.0679V34.1079H59.9175L59.6425 37.2979C59.6278 37.4959 59.5912 37.6646 59.5325 37.8039C59.4812 37.9432 59.4262 38.0312 59.3675 38.0679H62.0075ZM66.9042 38.9479C66.4129 38.9479 65.9656 38.8269 65.5622 38.5849C65.1589 38.3429 64.8399 38.0056 64.6052 37.5729C64.3779 37.1402 64.2642 36.6452 64.2642 36.0879C64.2642 35.5306 64.3779 35.0356 64.6052 34.6029C64.8399 34.1702 65.1589 33.8329 65.5622 33.5909C65.9656 33.3489 66.4129 33.2279 66.9042 33.2279C67.3736 33.2279 67.8026 33.3416 68.1912 33.5689C68.5799 33.7962 68.8842 34.1116 69.1042 34.5149C69.3242 34.9109 69.4342 35.3619 69.4342 35.8679C69.4342 36.1612 69.4159 36.3629 69.3792 36.4729H65.0892C65.1406 36.9862 65.3386 37.4006 65.6832 37.7159C66.0279 38.0239 66.4349 38.1779 66.9042 38.1779C67.2342 38.1779 67.5276 38.1009 67.7842 37.9469C68.0482 37.7929 68.2499 37.5766 68.3892 37.2979H69.2692C69.0786 37.8259 68.7779 38.2329 68.3672 38.5189C67.9639 38.8049 67.4762 38.9479 66.9042 38.9479ZM68.6092 35.7029C68.5799 35.2042 68.4039 34.7972 68.0812 34.4819C67.7659 34.1592 67.3736 33.9979 66.9042 33.9979C66.4129 33.9979 66.0022 34.1592 65.6722 34.4819C65.3422 34.7972 65.1479 35.2042 65.0892 35.7029H68.6092ZM70.6421 41.0379V33.3379H71.3571L71.4671 34.1079H71.5221C71.7494 33.8219 72.0061 33.6056 72.2921 33.4589C72.5781 33.3049 72.9081 33.2279 73.2821 33.2279C73.7587 33.2279 74.1877 33.3489 74.5691 33.5909C74.9577 33.8329 75.2621 34.1702 75.4821 34.6029C75.7021 35.0356 75.8121 35.5306 75.8121 36.0879C75.8121 36.6452 75.7021 37.1402 75.4821 37.5729C75.2621 38.0056 74.9577 38.3429 74.5691 38.5849C74.1877 38.8269 73.7587 38.9479 73.2821 38.9479C72.9081 38.9479 72.5781 38.8746 72.2921 38.7279C72.0061 38.5739 71.7494 38.3539 71.5221 38.0679H71.4671V41.0379H70.6421ZM73.2271 38.1779C73.5424 38.1779 73.8321 38.0899 74.0961 37.9139C74.3674 37.7379 74.5837 37.4922 74.7451 37.1769C74.9064 36.8616 74.9871 36.4986 74.9871 36.0879C74.9871 35.6772 74.9064 35.3142 74.7451 34.9989C74.5837 34.6836 74.3674 34.4379 74.0961 34.2619C73.8321 34.0859 73.5424 33.9979 73.2271 33.9979C72.9117 33.9979 72.6184 34.0859 72.3471 34.2619C72.0831 34.4379 71.8704 34.6836 71.7091 34.9989C71.5477 35.3142 71.4671 35.6772 71.4671 36.0879C71.4671 36.4986 71.5477 36.8616 71.7091 37.1769C71.8704 37.4922 72.0831 37.7379 72.3471 37.9139C72.6184 38.0899 72.9117 38.1779 73.2271 38.1779ZM77.0281 38.8379H76.0381L78.2931 36.0329L76.2031 33.3379H77.1931L79.1731 35.9229V33.3379H79.9981V35.9229L81.9781 33.3379H82.9681L80.8781 36.0329L83.1331 38.8379H82.1431L79.9981 36.1429V38.8379H79.1731V36.1429L77.0281 38.8379ZM85.3881 38.9479C84.8161 38.9479 84.3504 38.7902 83.9911 38.4749C83.6391 38.1522 83.4631 37.7416 83.4631 37.2429C83.4631 36.6929 83.6428 36.2639 84.0021 35.9559C84.3688 35.6406 84.9224 35.4829 85.6631 35.4829H87.1481V35.3179C87.1481 34.9072 87.0308 34.5846 86.7961 34.3499C86.5614 34.1152 86.2388 33.9979 85.8281 33.9979C85.4321 33.9979 85.1094 34.0896 84.8601 34.2729C84.6181 34.4489 84.4824 34.6689 84.4531 34.9329H83.6281C83.6501 34.6322 83.7491 34.3536 83.9251 34.0969C84.1011 33.8329 84.3504 33.6239 84.6731 33.4699C85.0031 33.3086 85.3881 33.2279 85.8281 33.2279C86.4954 33.2279 87.0198 33.4149 87.4011 33.7889C87.7824 34.1556 87.9731 34.6652 87.9731 35.3179V38.8379H87.2581L87.1481 38.1779H87.0931C86.9684 38.3759 86.7521 38.5556 86.4441 38.7169C86.1434 38.8709 85.7914 38.9479 85.3881 38.9479ZM85.3881 38.1779C85.9381 38.1779 86.3671 38.0276 86.6751 37.7269C86.9904 37.4189 87.1481 37.0009 87.1481 36.4729V36.2529H85.6631C85.1938 36.2529 84.8454 36.3446 84.6181 36.5279C84.3981 36.7112 84.2881 36.9496 84.2881 37.2429C84.2881 37.5216 84.3834 37.7489 84.5741 37.9249C84.7648 38.0936 85.0361 38.1779 85.3881 38.1779ZM90.3411 38.8379H89.5161V33.3379H90.3411V35.7029H93.2561V33.3379H94.0811V38.8379H93.2561V36.4729H90.3411V38.8379ZM97.0477 38.8379H95.6177V33.3379H96.4427V37.8479H96.6627L98.7527 33.3379H100.183V38.8379H99.3577V34.3279H99.1377L97.0477 38.8379ZM104.029 38.9479C103.538 38.9479 103.091 38.8269 102.687 38.5849C102.284 38.3429 101.965 38.0056 101.73 37.5729C101.503 37.1402 101.389 36.6452 101.389 36.0879C101.389 35.5306 101.503 35.0356 101.73 34.6029C101.965 34.1702 102.284 33.8329 102.687 33.5909C103.091 33.3489 103.538 33.2279 104.029 33.2279C104.499 33.2279 104.928 33.3416 105.316 33.5689C105.705 33.7962 106.009 34.1116 106.229 34.5149C106.449 34.9109 106.559 35.3619 106.559 35.8679C106.559 36.1612 106.541 36.3629 106.504 36.4729H102.214C102.266 36.9862 102.464 37.4006 102.808 37.7159C103.153 38.0239 103.56 38.1779 104.029 38.1779C104.359 38.1779 104.653 38.1009 104.909 37.9469C105.173 37.7929 105.375 37.5766 105.514 37.2979H106.394C106.204 37.8259 105.903 38.2329 105.492 38.5189C105.089 38.8049 104.601 38.9479 104.029 38.9479ZM105.734 35.7029C105.705 35.2042 105.529 34.7972 105.206 34.4819C104.891 34.1592 104.499 33.9979 104.029 33.9979C103.538 33.9979 103.127 34.1592 102.797 34.4819C102.467 34.7972 102.273 35.2042 102.214 35.7029H105.734Z" fill="black"/>
<defs>
<clipPath id="clip0_7305_26416">
<rect width="20" height="20" fill="white" transform="translate(16 18.8379)"/>
</clipPath>
</defs>
</svg>
