<svg width="51" height="12" viewBox="0 0 51 12" fill="none" xmlns="http://www.w3.org/2000/svg">
<path d="M5.8826 8.90925C7.1885 8.74367 8.24343 7.68874 8.41006 6.38179C8.46823 5.93571 8.42315 5.48223 8.27829 5.05634C8.13343 4.63045 7.89266 4.24353 7.57457 3.92543C7.25647 3.60734 6.86955 3.36657 6.44366 3.22171C6.01777 3.07685 5.56429 3.03177 5.11821 3.08994C3.81126 3.25657 2.75633 4.3115 2.59075 5.6174C2.53258 6.06348 2.57766 6.51696 2.72252 6.94285C2.86738 7.36874 3.10815 7.75566 3.42624 8.07376C3.74434 8.39185 4.13126 8.63262 4.55715 8.77748C4.98304 8.92234 5.43652 8.96742 5.8826 8.90925ZM6.06067 0.528118C7.31795 0.660473 8.49168 1.22043 9.38562 2.11438C10.2796 3.00832 10.8395 4.18205 10.9719 5.43933C11.3166 8.91758 8.41735 11.8168 4.93805 11.4721C3.68096 11.3395 2.50747 10.7795 1.61374 9.88555C0.720009 8.99163 0.160198 7.81802 0.0278843 6.56091C-0.316817 3.08265 2.58242 0.183417 6.06067 0.528118ZM13.9232 0.745769H21.9742C22.2804 0.745769 22.4532 1.09568 22.2689 1.33936L16.6985 8.68847H21.063C21.8586 8.68847 22.4845 9.41224 22.3199 10.237C22.1991 10.8421 21.6316 11.2545 21.0151 11.2545H12.2715C11.9685 11.2545 11.7967 10.9077 11.9789 10.6671L17.5535 3.31176H13.9711C13.3546 3.31176 12.787 2.89833 12.6662 2.29432C12.5006 1.46954 13.1276 0.745769 13.9232 0.745769ZM48.863 0.774928C49.694 0.599974 50.4251 1.22898 50.4251 2.02876V10.8837C50.4251 11.193 50.0679 11.3649 49.8263 11.1732L42.8812 5.66323V9.97355C42.8812 10.7733 42.1501 11.4023 41.3191 11.2274C40.7234 11.1024 40.3152 10.5474 40.3152 9.93919V1.11546C40.3152 0.80617 40.6724 0.63434 40.914 0.825956L47.8601 6.33597V2.06313C47.8601 1.45496 48.2694 0.900936 48.864 0.774928H48.863ZM30.7792 0.5C35.0312 0.5 38.4782 2.96185 38.4782 5.99855C38.4782 9.03526 35.0312 11.4971 30.7792 11.4971C26.5272 11.4971 23.0802 9.03526 23.0802 5.99855C23.0802 2.96185 26.5272 0.5 30.7792 0.5ZM30.7792 3.06599C27.8414 3.06599 25.6462 4.61454 25.6462 5.99855C25.6462 7.38257 27.8414 8.93112 30.7792 8.93112C33.7169 8.93112 35.9122 7.38361 35.9122 5.99855C35.9122 4.6135 33.7169 3.06599 30.7792 3.06599Z" fill="#005BFF"/>
</svg>
