<svg width="104" height="12" viewBox="0 0 104 12" fill="none" xmlns="http://www.w3.org/2000/svg">
<path d="M3.55732 11.7678L0.425781 0.193848H2.49937L4.9115 9.08065L7.49291 0.193848H9.41838L11.9998 9.12297L14.4119 0.193848H16.4643L13.3328 11.7678H10.9418L8.4239 3.13495L5.92713 11.7678H3.55732Z" fill="#BE11A5"/>
<path d="M17.9023 0.193848H19.8701V11.7678H17.9023V0.193848Z" fill="#BE11A5"/>
<path d="M24.0388 9.94801H28.7995V11.7677H22.1133V0.214844H24.0388V9.94801Z" fill="#BE11A5"/>
<path d="M34.8549 0.214456C36.3572 0.172138 37.8171 0.785752 38.8539 1.88602C40.991 4.19236 40.991 7.7894 38.8539 10.0957C37.8171 11.196 36.3572 11.8096 34.8549 11.7673H30.2422V0.214456H34.8549ZM34.8549 9.94762C35.9551 9.94762 36.865 9.56676 37.5421 8.82619C38.2615 8.06447 38.6423 7.02767 38.6 5.99088C38.6423 4.93293 38.2615 3.91729 37.5421 3.15557C36.8438 2.415 35.8705 1.99182 34.8549 2.03414H32.1677V9.94762H34.8549Z" fill="#BE11A5"/>
<path d="M50.7927 8.46684C50.8139 9.35552 50.433 10.223 49.7771 10.8155C49.1 11.4503 48.2113 11.7888 47.2803 11.7676H42.2656V0.214803H46.9206C47.8093 0.193644 48.6768 0.53219 49.3539 1.12464C50.0098 1.69594 50.3695 2.5423 50.3484 3.40982C50.3907 4.34082 49.9252 5.2295 49.1635 5.75848C50.1791 6.2663 50.8139 7.32425 50.7927 8.46684ZM44.1911 1.99217V5.03907H46.9206C47.767 5.03907 48.4441 4.36198 48.4441 3.51562C48.4441 2.66926 47.767 1.99217 46.9206 1.99217H44.1911ZM47.2803 9.96913C48.169 9.92681 48.8673 9.18625 48.8249 8.29757C48.8038 7.4512 48.1055 6.77411 47.2803 6.75295H44.1911V9.99029L47.2803 9.96913Z" fill="#BE11A5"/>
<path d="M54.5427 9.94801H59.7266V11.7677H52.6172V0.214844H59.642V2.03452H54.5427V5.03911H59.24V6.83763H54.5427V9.94801Z" fill="#BE11A5"/>
<path d="M68.1355 11.7672L65.6387 7.55653H63.3747V11.7672H61.4492V0.193178H66.1465C67.141 0.172019 68.1143 0.57404 68.8126 1.29345C69.532 1.97054 69.934 2.92269 69.9128 3.91717C69.8917 5.3983 68.9818 6.73133 67.5853 7.2603L70.2514 11.7672H68.1355ZM63.3747 1.9917V5.86381H66.1254C67.1833 5.82149 68.0085 4.91165 67.9662 3.83254C67.9239 2.83806 67.1198 2.03402 66.1254 1.9917H63.3747Z" fill="#BE11A5"/>
<path d="M78.3995 11.7672L75.9239 7.55653H73.6599V11.7672H71.7344V0.193178H76.4317C77.4262 0.172019 78.3995 0.57404 79.0977 1.29345C79.8171 1.97054 80.2192 2.92269 80.198 3.91717C80.1768 5.3983 79.267 6.73133 77.8705 7.2603L80.5365 11.7672H78.3995ZM73.6599 1.9917V5.86381H76.4105C77.4896 5.80033 78.2937 4.89049 78.2302 3.81137C78.1667 2.83806 77.3838 2.03402 76.4105 1.9917H73.6599Z" fill="#BE11A5"/>
<path d="M81.9297 0.193848H83.8552V11.7678H81.9297V0.193848Z" fill="#BE11A5"/>
<path d="M88.0466 9.94801H93.2305V11.7677H86.1211V0.214844H93.1459V2.03452H88.0466V5.03911H92.7439V6.83763H88.0466V9.94801Z" fill="#BE11A5"/>
<path d="M94.582 9.14353L96.2536 8.19137C96.7191 9.50323 97.6924 10.138 99.1524 10.138C100.612 10.138 101.332 9.52439 101.332 8.61455C101.353 8.19137 101.12 7.76819 100.739 7.5566C100.358 7.30269 99.6602 7.02762 98.6657 6.73139C97.5443 6.39285 96.9942 6.18126 96.2113 5.67344C95.4284 5.16562 95.0687 4.38274 95.0687 3.34594C95.0264 2.41495 95.4496 1.50511 96.169 0.912654C96.9095 0.299041 97.8617 -0.0183455 98.835 0.00281352C100.591 -0.0606636 102.199 0.954971 102.919 2.5419L101.311 3.45174C100.824 2.39379 99.9988 1.84365 98.8562 1.84365C97.7136 1.84365 97.0153 2.39379 97.0153 3.28247C97.0153 4.17115 97.5866 4.53085 99.3851 5.08099C99.8295 5.2291 100.147 5.3349 100.358 5.41953C100.57 5.50417 100.866 5.60997 101.226 5.75808C101.522 5.86387 101.818 6.03315 102.072 6.22358C102.686 6.71024 103.363 7.49312 103.278 8.59339C103.321 9.56671 102.898 10.4765 102.136 11.0902C101.374 11.7038 100.38 12 99.1312 12C96.8249 11.9788 95.1745 10.8997 94.582 9.14353Z" fill="#BE11A5"/>
</svg>
