<svg width="80" height="65" viewBox="0 0 80 65" fill="none" xmlns="http://www.w3.org/2000/svg">
<path fill-rule="evenodd" clip-rule="evenodd" d="M32.9296 46.0413L20.1996 47.4713L19.3297 57.3713C20.6893 59.5536 21.5656 62.0019 21.8997 64.5513H3.66962L0.809632 26.0213C-0.690368 9.65133 4.00961 0.611328 21.9796 0.611328H32.9796L32.9296 46.0413Z" fill="black"/>
<path fill-rule="evenodd" clip-rule="evenodd" d="M68.6105 25.8618C68.6105 36.4718 54.0605 36.4718 54.0605 25.8618C54.0605 15.2518 68.6105 15.2518 68.6105 25.8618Z" fill="white"/>
<path fill-rule="evenodd" clip-rule="evenodd" d="M53.2294 36.7913H49.8794L48.0594 57.3713C49.43 59.5501 50.3136 61.9993 50.6494 64.5513H32.1094V0.611328H58.6194C74.6194 0.611328 83.9694 10.9313 76.8394 26.0613L70.8394 38.7713L66.2394 48.8313C64.2394 53.2613 68.9894 53.9613 69.6394 50.8313L70.5094 45.5713H79.2894V50.9913C79.2894 58.8613 75.0294 64.4813 66.7294 64.4813C64.6759 64.4873 62.648 64.0259 60.7993 63.1318C58.9506 62.2378 57.3297 60.9347 56.0594 59.3213C53.2494 55.7113 53.2094 52.7513 53.2094 48.5213L53.2294 36.7913Z" fill="black"/>
<path fill-rule="evenodd" clip-rule="evenodd" d="M68.6105 25.8618C68.6105 36.4718 54.0605 36.4718 54.0605 25.8618C54.0605 15.2518 68.6105 15.2518 68.6105 25.8618Z" fill="white"/>
<path fill-rule="evenodd" clip-rule="evenodd" d="M69.9803 23.5212C69.9823 24.5263 69.686 25.5095 69.129 26.3462C68.572 27.1829 67.7793 27.8356 66.8513 28.2216C65.9232 28.6076 64.9015 28.7097 63.9154 28.5148C62.9293 28.3199 62.0232 27.8369 61.3118 27.1268C60.6003 26.4168 60.1155 25.5116 59.9187 24.5259C59.7218 23.5402 59.8219 22.5183 60.2061 21.5895C60.5903 20.6606 61.2414 19.8667 62.077 19.308C62.9126 18.7494 63.8952 18.4512 64.9003 18.4512C65.567 18.4499 66.2273 18.58 66.8436 18.8342C67.4599 19.0884 68.02 19.4617 68.4918 19.9326C68.9637 20.4035 69.338 20.9629 69.5935 21.5787C69.8489 22.1944 69.9803 22.8545 69.9803 23.5212Z" fill="black"/>
</svg>
