<svg width="381" height="381" viewBox="0 0 381 381" fill="none" xmlns="http://www.w3.org/2000/svg">
<path d="M190.649 380.24C295.561 380.24 380.609 295.192 380.609 190.28C380.609 85.3683 295.561 0.320312 190.649 0.320312C85.7374 0.320312 0.689453 85.3683 0.689453 190.28C0.689453 295.192 85.7374 380.24 190.649 380.24Z" fill="#FFF145"/>
<path d="M204.01 339.78C217.778 339.78 228.94 332.352 228.94 323.19C228.94 314.027 217.778 306.6 204.01 306.6C190.241 306.6 179.08 314.027 179.08 323.19C179.08 332.352 190.241 339.78 204.01 339.78Z" fill="#FFDC32"/>
<path d="M156 75.8206C169.769 75.8206 180.931 68.393 180.931 59.2306C180.931 50.0682 169.769 42.6406 156 42.6406C142.232 42.6406 131.07 50.0682 131.07 59.2306C131.07 68.393 142.232 75.8206 156 75.8206Z" fill="#FFDC32"/>
<path d="M99.7897 313.912C103.027 310.674 101.707 304.105 96.8411 299.239C91.9752 294.373 85.406 293.053 82.1686 296.29C78.9311 299.528 80.2513 306.097 85.1172 310.963C89.9831 315.829 96.5523 317.149 99.7897 313.912Z" fill="#FFDC32"/>
<path d="M246.281 55.8914C247.466 51.469 243.038 46.44 236.391 44.659C229.744 42.8779 223.395 45.0192 222.21 49.4417C221.025 53.8641 225.453 58.893 232.1 60.6741C238.747 62.4552 245.096 60.3139 246.281 55.8914Z" fill="#FFDC32"/>
<path d="M157.539 248.861C167.292 248.861 175.199 240.954 175.199 231.201C175.199 221.448 167.292 213.541 157.539 213.541C147.786 213.541 139.879 221.448 139.879 231.201C139.879 240.954 147.786 248.861 157.539 248.861Z" fill="#FFDC32"/>
<path d="M255.29 201.981C276.652 201.981 293.97 184.663 293.97 163.301C293.97 141.939 276.652 124.621 255.29 124.621C233.927 124.621 216.609 141.939 216.609 163.301C216.609 184.663 233.927 201.981 255.29 201.981Z" fill="#FFDC32"/>
<path d="M60.8101 233.68C75.5671 233.68 87.5298 216.363 87.5298 195C87.5298 173.638 75.5671 156.32 60.8101 156.32C46.053 156.32 34.0898 173.638 34.0898 195C34.0898 216.363 46.053 233.68 60.8101 233.68Z" fill="#FFDC32"/>
<path d="M341.908 256.2C344.769 245.525 341.106 235.269 333.728 233.292C326.351 231.315 318.051 238.366 315.191 249.041C312.33 259.715 315.993 269.972 323.37 271.949C330.748 273.925 339.048 266.874 341.908 256.2Z" fill="#FFDC32"/>
</svg>
