<svg width="122" height="30" viewBox="0 0 122 30" fill="none" xmlns="http://www.w3.org/2000/svg">
<path fill-rule="evenodd" clip-rule="evenodd" d="M95.4164 26.5086C95.1174 27.3573 94.7659 28.3656 94.3221 29.6547H91.541L97.671 13.2734H100.54L106.645 29.6547H103.876C103.437 28.3802 103.085 27.3708 102.782 26.5086H95.4164ZM99.1434 15.9591H99.093C97.5173 20.6398 96.9259 22.2789 96.224 24.2382H101.977C101.26 22.2217 100.638 20.4634 99.1434 15.9591Z" fill="black"/>
<path d="M118.33 29.5185L110.737 17.3386V29.6511H108.07V13.2598H111.068L118.832 25.6825V13.2598H121.499V29.6511H118.415L118.33 29.5185Z" fill="black"/>
<path d="M87.4743 17.6742L83.2342 29.6511H80.6906L76.4071 17.6595V29.6511H73.6953V13.2598H77.218L81.9818 26.5227L86.6624 13.2598H90.1861V29.6511H87.4743V17.6742Z" fill="black"/>
<path fill-rule="evenodd" clip-rule="evenodd" d="M27.4023 29.6284V13.2598H34.6696C36.3814 13.2598 37.7282 13.6736 38.7347 14.5012C39.7289 15.329 40.2322 16.4832 40.2322 17.9635C40.2322 19.0796 39.9679 19.9829 39.4393 20.6601C38.9107 21.3376 38.1558 21.8014 37.1867 22.0398V22.0651C38.347 22.2817 39.1839 23.1278 39.5279 24.2348C40.0407 25.887 40.2764 27.7917 40.4732 29.6284H37.7439C37.6002 27.929 37.3064 26.0295 36.8344 24.7994C36.4468 23.7866 35.4627 23.307 34.418 23.307H30.1362V29.6284H27.4023ZM30.1362 15.5675V20.9737H34.0911C35.3903 20.9737 36.7727 20.8206 37.3252 19.4684C37.4636 19.13 37.5265 18.7283 37.5265 18.2769C37.5265 17.8255 37.4636 17.4238 37.3252 17.0854C36.9365 16.1343 36.1075 15.713 35.1103 15.6301C34.821 15.5925 34.4813 15.5803 34.0911 15.5803H30.1362V15.5675Z" fill="black"/>
<path d="M65.1085 29.9646C61.3646 29.9646 58.5938 28.1599 58.5938 24.1826V23.8989H61.0668V24.1826C61.0668 26.6994 62.9602 27.6291 65.2385 27.6291C66.182 27.6291 67.2504 27.5074 68.003 27.0293C69.047 26.3666 69.3577 24.8208 68.4454 23.9199C67.8971 23.3788 67.022 23.0936 66.2921 22.904L62.3756 21.8688C60.3285 21.3368 59.0696 20.1157 59.0696 17.9296C59.0696 14.5315 61.8233 12.9023 64.9571 12.9023C68.2823 12.9023 71.0178 14.4425 71.0178 18.0592V18.3427H68.5447V18.0592C68.5447 15.8735 66.8345 15.1515 64.8922 15.1515C63.3624 15.1515 61.6509 15.9046 61.6509 17.6496C61.6509 19.0323 62.8922 19.4071 64.0332 19.7044H64.0356L67.0801 20.5171C68.4545 20.8837 69.6518 21.1864 70.6161 22.3137C72.2968 24.2784 71.6661 27.4403 69.5543 28.8294C68.3385 29.6288 66.7158 29.9646 65.1085 29.9646Z" fill="black"/>
<path d="M49.4439 29.9991C47.0744 29.9991 45.0863 29.1544 43.6904 27.6645C42.3092 26.1903 41.5156 24.0891 41.5156 21.5561C41.5156 19.0094 42.3188 16.8383 43.7124 15.3028C45.104 13.7697 47.077 12.875 49.4221 12.875C51.8201 12.875 53.803 13.7631 55.1922 15.3084C56.5847 16.8576 57.3719 19.0617 57.3719 21.6859C57.3719 24.1057 56.5743 26.2038 55.161 27.6886C53.7805 29.1388 51.8187 29.9991 49.4439 29.9991ZM49.4221 15.219C47.8448 15.219 46.5236 15.8586 45.5957 16.9552C43.9648 18.8835 43.8893 24.0978 45.5702 26.0057C46.5006 27.0622 47.838 27.6554 49.4439 27.6554C51.0378 27.6554 52.3747 27.0625 53.3086 26.0165C55.0106 24.1107 54.9127 18.8798 53.2948 16.9569C52.3677 15.8553 51.0383 15.219 49.4221 15.219Z" fill="black"/>
<path fill-rule="evenodd" clip-rule="evenodd" d="M9.80263 16.7732H8.24738L7.40338 26.3178C7.99876 27.2288 8.42377 28.3736 8.60512 29.6466H0V0C4.07401 0.0033068 7.98984 0.0100303 12.3008 0.0173164C19.7161 0.0327295 24.0651 4.80238 20.7585 11.8176L17.9806 17.7098L15.8464 22.3781C14.9087 24.4288 17.1219 24.7534 17.4277 23.3193L17.8293 20.8784H21.9033V23.3926C21.9033 27.042 19.9282 29.6466 16.0777 29.6466C14.0697 29.6466 12.2738 28.6937 11.1231 27.219C9.81927 25.5484 9.80263 24.1747 9.80263 22.2128V16.7732Z" fill="black"/>
<path fill-rule="evenodd" clip-rule="evenodd" d="M16.9671 11.6383C16.9671 16.5913 10.2148 16.5913 10.2148 11.6383C10.2148 6.68565 16.9671 6.68565 16.9671 11.6383Z" fill="white"/>
<path fill-rule="evenodd" clip-rule="evenodd" d="M17.6147 10.5698C17.6147 11.8963 16.5358 12.9715 15.2049 12.9715C13.8738 12.9715 12.7949 11.8963 12.7949 10.5698C12.7949 9.24313 13.8738 8.16797 15.2049 8.16797C16.5358 8.16797 17.6147 9.24313 17.6147 10.5698Z" fill="black"/>
</svg>
