<svg width="20" height="20" viewBox="0 0 20 20" fill="none" xmlns="http://www.w3.org/2000/svg">
<path d="M2.5 2.5H9.16667V9.16667H2.5V2.5ZM2.5 10.8333H9.16667V17.5H2.5V10.8333ZM10.8333 2.5H17.5V9.16667H10.8333V2.5ZM10.8333 10.8333H17.5V17.5H10.8333V10.8333ZM12.5 4.16667V7.5H15.8333V4.16667H12.5ZM12.5 12.5V15.8333H15.8333V12.5H12.5ZM4.16667 4.16667V7.5H7.5V4.16667H4.16667ZM4.16667 12.5V15.8333H7.5V12.5H4.16667Z" fill="black"/>
<rect x="4" y="4" width="4" height="4" fill="black"/>
<rect x="12" y="4" width="4" height="4" fill="black"/>
<rect x="12" y="12" width="4" height="4" fill="black"/>
<rect x="4" y="12" width="4" height="4" fill="black"/>
</svg>
