<svg width="23" height="30" viewBox="0 0 23 30" fill="none" xmlns="http://www.w3.org/2000/svg">
<path d="M16.6421 15L3.96524 6.54809V23.4519L16.6421 15ZM22.5543 15.8248L1.5405 29.834C1.39122 29.9333 1.21779 29.9903 1.03868 29.9989C0.859571 30.0074 0.681492 29.9673 0.52341 29.8826C0.365328 29.798 0.233163 29.6721 0.140991 29.5183C0.0488192 29.3644 9.26289e-05 29.1885 0 29.0092V0.990799C9.26289e-05 0.811487 0.0488192 0.635557 0.140991 0.481748C0.233163 0.327938 0.365328 0.202009 0.52341 0.117374C0.681492 0.0327379 0.859571 -0.00743555 1.03868 0.00113254C1.21779 0.00970062 1.39122 0.0666897 1.5405 0.166029L22.5543 14.1752C22.6901 14.2658 22.8014 14.3884 22.8784 14.5323C22.9554 14.6762 22.9957 14.8368 22.9957 15C22.9957 15.1632 22.9554 15.3238 22.8784 15.4677C22.8014 15.6116 22.6901 15.7342 22.5543 15.8248Z" fill="black"/>
</svg>
