<svg width="12" height="12" viewBox="0 0 12 12" fill="none" xmlns="http://www.w3.org/2000/svg">
<path fill-rule="evenodd" clip-rule="evenodd" d="M0.00671202 4.23026C0.00404183 4.52795 0.00193688 5.09115 0.00108126 5.8355C-0.00126262 7.21129 -9.06782e-05 7.5195 0.00752694 7.83649C0.0120786 8.01451 0.0188128 8.23311 0.0235854 8.36234C0.0245528 8.38698 0.0256799 8.41419 0.0269052 8.44229C0.0298525 8.5044 0.0333418 8.57527 0.0366014 8.63751C0.037074 8.64553 0.0375404 8.65315 0.0379979 8.66032C0.0410923 8.71447 0.0454633 8.78394 0.0494255 8.8426C0.0518281 8.8759 0.0543047 8.90969 0.0565581 8.93932L0.0599791 8.97917C0.0620209 9.00304 0.0641535 9.02797 0.066187 9.05143C0.0699808 9.09268 0.0737048 9.13304 0.0760855 9.15486C0.0762837 9.15704 0.0765114 9.15944 0.0767662 9.16203C0.0794354 9.18635 0.0825782 9.21447 0.0857783 9.24267C0.0891816 9.27136 0.0930005 9.30241 0.0965945 9.33064C0.104212 9.3951 0.116517 9.48182 0.122963 9.52401C0.129409 9.56619 0.141714 9.63709 0.149918 9.68221C0.157535 9.72733 0.175115 9.8117 0.188006 9.86971C0.200897 9.92772 0.224336 10.0203 0.239571 10.0748C0.255392 10.1293 0.282347 10.2154 0.299926 10.2652C0.317505 10.315 0.34446 10.3865 0.359695 10.4234C0.37493 10.4603 0.407159 10.5301 0.431184 10.5787C0.455208 10.6267 0.494468 10.6994 0.518493 10.7398C0.542518 10.7803 0.584708 10.8447 0.612834 10.8834C0.635426 10.9151 0.671819 10.9626 0.701312 10.999C0.707772 11.007 0.713901 11.0145 0.719482 11.0211C0.750465 11.0579 0.805942 11.1186 0.842859 11.1556C0.842946 11.1557 0.843034 11.1558 0.843122 11.1558C0.84321 11.1559 0.843298 11.156 0.843386 11.1561C0.880834 11.193 0.940831 11.2483 0.977679 11.2793C0.977751 11.2794 0.977823 11.2794 0.977895 11.2795C0.977892 11.2795 0.977897 11.2795 0.977895 11.2795C1.01481 11.3105 1.07634 11.358 1.11384 11.385C1.11393 11.385 1.11401 11.3851 1.1141 11.3851C1.15155 11.412 1.21619 11.454 1.25712 11.4791C1.25722 11.4792 1.25731 11.4792 1.2574 11.4793C1.29842 11.5039 1.37225 11.5437 1.4203 11.5678C1.46835 11.5918 1.53867 11.624 1.57558 11.6393C1.6125 11.6545 1.68282 11.6809 1.73087 11.6978C1.77667 11.714 1.84963 11.7377 1.89696 11.7515C1.89928 11.7522 1.90154 11.7529 1.90373 11.7535C1.91236 11.756 1.92195 11.7587 1.93212 11.7615C1.97721 11.774 2.03392 11.7889 2.07073 11.7975C2.11396 11.8076 2.17978 11.8225 2.22078 11.831C2.22257 11.8313 2.22432 11.8317 2.22601 11.832C2.23297 11.8334 2.24111 11.835 2.25011 11.8368C2.29342 11.8451 2.3567 11.8565 2.40473 11.8643C2.46274 11.8742 2.55005 11.8871 2.5981 11.8936C2.64615 11.9 2.72174 11.9094 2.7651 11.9141C2.80847 11.9193 2.8864 11.927 2.93797 11.9316C2.98953 11.9369 3.08856 11.9445 3.1577 11.9492C3.22685 11.9545 3.33115 11.9609 3.38916 11.9639C3.44717 11.9674 3.56554 11.9727 3.65285 11.9762C3.74016 11.9797 3.96283 11.9861 4.14799 11.9908C4.41051 11.9979 4.81952 11.9996 5.99966 11.9996C7.17981 11.9996 7.58881 11.9979 7.85133 11.9908C8.03649 11.9861 8.25975 11.9797 8.34647 11.9762C8.4332 11.9727 8.55215 11.9674 8.61016 11.9639C8.66817 11.9609 8.77247 11.9545 8.84162 11.9492C8.91076 11.9445 9.00979 11.9369 9.06136 11.9316C9.11292 11.927 9.19086 11.9193 9.23422 11.9141C9.27758 11.9094 9.35317 11.9 9.40122 11.8936C9.44927 11.8871 9.53658 11.8742 9.59459 11.8643C9.64314 11.8564 9.70728 11.8449 9.75061 11.8365C9.75906 11.8349 9.76672 11.8334 9.77331 11.832C9.77487 11.8317 9.77646 11.8314 9.7781 11.8311C9.81907 11.8226 9.88521 11.8076 9.92859 11.7975C9.96587 11.7887 10.0235 11.7736 10.0689 11.761C10.0785 11.7584 10.0874 11.7559 10.0956 11.7535C10.098 11.7528 10.1005 11.7521 10.103 11.7514C10.1502 11.7376 10.222 11.7147 10.2682 11.6985C10.2683 11.6985 10.2684 11.6985 10.2685 11.6984C10.2702 11.6978 10.272 11.6972 10.2739 11.6965C10.3217 11.6794 10.3905 11.6528 10.4295 11.637C10.4295 11.6369 10.4294 11.637 10.4295 11.637C10.4355 11.6344 10.4422 11.6315 10.4494 11.6284C10.4902 11.6106 10.5465 11.5843 10.5849 11.5648C10.6226 11.5462 10.6783 11.5162 10.7196 11.4924C10.7277 11.4877 10.7352 11.4833 10.7419 11.4793C10.742 11.4793 10.742 11.4792 10.7421 11.4792C10.7831 11.454 10.8479 11.412 10.8853 11.3851C10.8854 11.385 10.8854 11.385 10.8855 11.385C10.923 11.358 10.9839 11.3105 11.0208 11.2795C11.0578 11.2484 11.1187 11.1927 11.1556 11.1553C11.1931 11.1184 11.2488 11.0574 11.2798 11.0205C11.3109 10.9836 11.3584 10.9226 11.3853 10.8851C11.4078 10.8539 11.4409 10.8035 11.4658 10.7638C11.4706 10.7561 11.4751 10.7488 11.4791 10.7422C11.4872 10.7288 11.4967 10.7124 11.5066 10.6948C11.5274 10.6578 11.5501 10.6152 11.5652 10.5846C11.5881 10.5394 11.6203 10.4697 11.6373 10.4293C11.6491 10.4003 11.6669 10.3546 11.6823 10.3134C11.6882 10.2974 11.6937 10.2821 11.6982 10.2687C11.7047 10.2503 11.7123 10.2277 11.72 10.2042C11.7325 10.1656 11.7455 10.1245 11.7539 10.0953C11.7674 10.0484 11.7873 9.97342 11.7978 9.92831C11.8084 9.88319 11.8242 9.81346 11.8324 9.77303C11.8406 9.7326 11.8553 9.65233 11.8646 9.59432C11.8746 9.53631 11.8875 9.449 11.8939 9.40096C11.9004 9.35232 11.9098 9.27732 11.9144 9.23396C11.9159 9.22217 11.9175 9.20782 11.9192 9.19214C11.9236 9.14953 11.9286 9.09716 11.932 9.05876C11.9346 9.03258 11.9375 9.00018 11.9402 8.96885C11.9436 8.92585 11.947 8.87916 11.9496 8.84138C11.9549 8.77224 11.9613 8.66794 11.9643 8.60994C11.9677 8.55374 11.9727 8.44036 11.9762 8.35449C11.9806 8.23486 11.986 8.05368 11.9889 7.91149C11.9907 7.83528 11.9925 7.7653 11.9941 7.71104C11.9987 7.4352 12 6.98518 12 5.99663C12 4.82709 11.9982 4.41459 11.9912 4.15092C11.9878 4.01609 11.9835 3.86205 11.9801 3.7539C11.9788 3.71796 11.9776 3.68652 11.9766 3.66224C11.973 3.56673 11.966 3.422 11.9613 3.33997C11.9592 3.30209 11.9564 3.25694 11.9536 3.21328C11.9522 3.19347 11.9509 3.17457 11.9496 3.15775C11.947 3.11963 11.9435 3.07244 11.9401 3.02912C11.9378 3.00224 11.9355 2.97526 11.9334 2.95231C11.933 2.94723 11.9325 2.94245 11.932 2.93802C11.9301 2.91678 11.9277 2.89107 11.9251 2.86515C11.9226 2.84073 11.9196 2.8129 11.9169 2.78818L11.9144 2.76575C11.9098 2.7218 11.9004 2.6468 11.8939 2.59875C11.8875 2.55012 11.8746 2.46282 11.8646 2.40539C11.8553 2.34738 11.8406 2.26652 11.8324 2.22668C11.8242 2.18625 11.8084 2.11594 11.7978 2.07141C11.7873 2.02629 11.7674 1.9507 11.7539 1.90441C11.7404 1.85754 11.7152 1.77961 11.6982 1.73156C11.6812 1.68293 11.6549 1.6132 11.6396 1.57629C11.6244 1.53878 11.5922 1.46906 11.5681 1.42101C11.5442 1.37257 11.5046 1.29971 11.4799 1.25802C11.4799 1.25786 11.4798 1.2577 11.4797 1.25753C11.478 1.25491 11.4764 1.25218 11.4746 1.24938C11.4492 1.20853 11.4108 1.15008 11.3856 1.11439C11.3855 1.11425 11.3854 1.11411 11.3853 1.11398C11.3617 1.08116 11.3224 1.03041 11.2922 0.993501C11.2879 0.988228 11.2837 0.983239 11.2798 0.978624C11.2489 0.941824 11.1935 0.881729 11.1565 0.844204C11.1564 0.844089 11.1563 0.843973 11.1562 0.843858C11.1561 0.843744 11.156 0.843631 11.1559 0.843517C11.1183 0.806598 11.0582 0.750599 11.0214 0.720224C10.9846 0.689255 10.9227 0.641388 10.884 0.613231C10.8839 0.613152 10.8838 0.613074 10.8837 0.612997C10.8836 0.61292 10.8835 0.612843 10.8834 0.612766C10.8447 0.585223 10.7805 0.543203 10.7402 0.519246C10.6998 0.495263 10.6273 0.456096 10.5793 0.431478C10.5792 0.431437 10.5791 0.431396 10.579 0.431355C10.5788 0.431233 10.5785 0.431111 10.5783 0.430989C10.5297 0.407005 10.4605 0.375027 10.4237 0.35987C10.4195 0.35811 10.4148 0.356194 10.4097 0.354155C10.3858 0.344624 10.3538 0.332389 10.3225 0.320767C10.3035 0.313732 10.2848 0.306978 10.2685 0.301279C10.2629 0.29933 10.257 0.297273 10.2508 0.295138C10.2001 0.278124 10.1245 0.254164 10.0751 0.240338C10.02 0.224517 9.92801 0.201079 9.87 0.188189C9.81199 0.175298 9.72761 0.158306 9.68249 0.150103C9.64895 0.144006 9.60085 0.135966 9.56128 0.129353L9.55741 0.128705C9.53096 0.124443 9.50206 0.120012 9.47489 0.115994C9.43104 0.109854 9.37562 0.102472 9.33091 0.0967818C9.2842 0.0908376 9.22211 0.0836627 9.1725 0.0783784C9.14753 0.0758126 9.1182 0.0729478 9.0878 0.0700947C9.03704 0.0654548 8.96923 0.0594968 8.92073 0.0557659C8.85957 0.0511063 8.7434 0.0429728 8.66144 0.0382718C8.66095 0.0382447 8.66046 0.0382178 8.65997 0.038191C8.65971 0.0381753 8.65946 0.0381596 8.6592 0.0381439C8.57703 0.0334565 8.43232 0.0264579 8.33769 0.0229531C8.27842 0.0207581 8.17734 0.0174209 8.07298 0.0142252C8.00094 0.0121705 7.92474 0.0101094 7.85426 0.00830791C7.5894 0.00127661 7.19446 -0.000481218 5.95278 0.000104724C4.86522 0.000690666 4.30093 0.00362038 4.10991 0.00830791C3.95814 0.0124095 3.75657 0.0188549 3.66164 0.0223705C3.56671 0.0264721 3.42139 0.0329175 3.33936 0.038191C3.25732 0.0428785 3.14013 0.0504957 3.0786 0.0551799C3.06554 0.0563023 3.05117 0.0575269 3.03614 0.0588066C2.98037 0.0635576 2.91568 0.0690687 2.87644 0.0727615C2.82663 0.078035 2.73288 0.088582 2.66842 0.0961992C2.60396 0.104402 2.51665 0.116707 2.47505 0.123153C2.43344 0.129598 2.36196 0.141903 2.31684 0.150106C2.27172 0.157723 2.18734 0.175301 2.12933 0.188192C2.07132 0.201083 1.97932 0.224521 1.92424 0.239755C1.86916 0.255575 1.7836 0.282529 1.7338 0.300107C1.68399 0.317685 1.6125 0.344639 1.57558 0.359873C1.53867 0.375108 1.46894 0.407334 1.4203 0.431358C1.37225 0.455382 1.29959 0.49464 1.25916 0.518663C1.21873 0.542687 1.15427 0.584875 1.1156 0.613C1.07692 0.640539 1.01481 0.688587 0.977894 0.719641C0.940978 0.750696 0.880623 0.806361 0.843121 0.843275C0.806205 0.880775 0.750538 0.941128 0.719481 0.978042C0.688425 1.01496 0.640375 1.07707 0.612834 1.11574C0.584708 1.15441 0.542518 1.21886 0.518493 1.25929C0.517555 1.26087 0.516593 1.2625 0.51561 1.26417C0.491425 1.30536 0.45427 1.37425 0.431184 1.42042C0.422728 1.43734 0.413256 1.45701 0.403866 1.47701C0.386577 1.51383 0.369569 1.55178 0.359696 1.5757C0.359101 1.57714 0.358489 1.57863 0.35786 1.58018C0.34766 1.60519 0.333098 1.64316 0.319518 1.67985C0.312869 1.69787 0.306508 1.71549 0.301098 1.73098C0.294824 1.74872 0.28743 1.77053 0.279922 1.79336C0.266378 1.83501 0.251839 1.88205 0.241393 1.91803C0.239517 1.92469 0.237559 1.93173 0.235553 1.93902C0.220458 1.99469 0.19981 2.0763 0.188006 2.12941C0.175115 2.18742 0.157536 2.2718 0.149918 2.31692C0.14686 2.33373 0.143233 2.35421 0.139551 2.37545C0.137825 2.38564 0.136186 2.39551 0.134683 2.40481C0.127137 2.44875 0.11791 2.50917 0.111077 2.55702C0.105979 2.5938 0.10063 2.63434 0.096595 2.66848C0.094824 2.6824 0.0929985 2.69699 0.0911949 2.71165C0.0878036 2.74005 0.0845416 2.76817 0.0819452 2.79153C0.0754995 2.84954 0.064952 2.96146 0.0585064 3.04056C0.0520607 3.11966 0.0426852 3.25384 0.0379974 3.33939C0.0372665 3.35124 0.0365131 3.36419 0.0357481 3.37794C0.0323561 3.44419 0.0288697 3.51808 0.0262785 3.57962C0.0210048 3.69095 0.0145591 3.90306 0.0110433 4.0513C0.00952012 4.11553 0.00799695 4.1781 0.00671202 4.23026ZM2.02502 3.65111H3.39209L3.39444 3.66986C3.3962 3.6804 3.39913 3.7431 3.40088 3.80931C3.40264 3.87494 3.40791 3.98041 3.4126 4.04369C3.41788 4.10638 3.42667 4.20775 3.43311 4.26927C3.43956 4.33021 3.45303 4.4351 3.46241 4.50189C3.47237 4.56869 3.48936 4.67299 3.5005 4.73334C3.51222 4.79369 3.53214 4.8892 3.54562 4.94604C3.55851 5.00229 3.58312 5.09838 3.60011 5.15991C3.61711 5.22084 3.6464 5.31577 3.66457 5.37085C3.68332 5.42534 3.71203 5.50561 3.72903 5.54956C3.74602 5.59292 3.77356 5.65971 3.79055 5.69897C3.80755 5.73765 3.84153 5.80972 3.86673 5.86011C3.89193 5.90991 3.93236 5.98608 3.95756 6.03003C3.98275 6.07339 4.02553 6.14312 4.05307 6.1853C4.08061 6.22691 4.12807 6.29429 4.15854 6.33472C4.18901 6.37456 4.22886 6.42495 4.24702 6.44605C4.26519 6.46656 4.30738 6.51402 4.34137 6.55035C4.37535 6.58667 4.43161 6.64234 4.46676 6.67339C4.50134 6.70445 4.55407 6.74898 4.58396 6.773C4.61326 6.79644 4.6701 6.83746 4.71053 6.86441C4.75096 6.89195 4.81776 6.93238 4.85995 6.95523C4.90155 6.97808 4.96367 7.00855 4.99765 7.02379C5.03164 7.03844 5.09785 7.06363 5.14532 7.07887C5.19337 7.09469 5.23614 7.10816 5.24083 7.10816C5.24845 7.10816 5.24962 6.91187 5.24962 3.65111H6.53876V4.63842C6.53876 5.29233 6.54051 5.62573 6.54462 5.62573C6.54755 5.62573 6.58036 5.62046 6.6161 5.61401C6.65243 5.60757 6.71513 5.59292 6.75556 5.5812C6.796 5.57007 6.85752 5.54897 6.89327 5.53491C6.92843 5.52143 6.98937 5.49389 7.02804 5.47456C7.06671 5.45522 7.12355 5.42417 7.15402 5.40542C7.1845 5.38725 7.22961 5.35854 7.25364 5.34213C7.27766 5.32631 7.32923 5.28881 7.36732 5.25952C7.40599 5.23022 7.47338 5.17455 7.51674 5.1353C7.56069 5.09662 7.62514 5.03451 7.66089 4.9976C7.69605 4.96127 7.75113 4.90092 7.78336 4.86342C7.815 4.82651 7.87184 4.75561 7.90934 4.7058C7.94684 4.65541 8.00017 4.58041 8.02771 4.53881C8.05525 4.49662 8.09568 4.43217 8.11795 4.39525C8.13963 4.35775 8.17947 4.2851 8.20643 4.23412C8.2328 4.18256 8.27147 4.1017 8.29257 4.05541C8.31307 4.00853 8.34354 3.9347 8.35995 3.89134C8.37577 3.8474 8.40097 3.77591 8.44023 3.65111H9.08304C9.72233 3.65111 9.72644 3.65111 9.72644 3.66282C9.72644 3.66927 9.71706 3.71849 9.70534 3.7724C9.69362 3.8263 9.67135 3.91595 9.65553 3.97162C9.63971 4.02728 9.61276 4.11283 9.59518 4.16205C9.5776 4.21127 9.54596 4.29213 9.52545 4.34252C9.50435 4.39232 9.47037 4.4685 9.44986 4.51244C9.42935 4.5558 9.39302 4.6267 9.36899 4.67064C9.34555 4.714 9.30336 4.78608 9.27641 4.83178C9.24887 4.8769 9.20492 4.94487 9.17914 4.98412C9.15277 5.0228 9.10003 5.09662 9.06136 5.14819C9.02268 5.19975 8.96467 5.27299 8.93245 5.31167C8.90022 5.35034 8.84748 5.41069 8.81467 5.44643C8.78244 5.48217 8.71095 5.55483 8.65645 5.60874C8.60196 5.66264 8.52578 5.73354 8.48711 5.76753C8.44843 5.80093 8.39042 5.84956 8.35819 5.87534C8.32597 5.90112 8.26913 5.94448 8.23221 5.97144C8.19529 5.99839 8.12732 6.04409 8.0822 6.07339L8.05783 6.08901C8.02236 6.11173 7.99324 6.13039 7.98845 6.13374C7.97907 6.14019 7.97849 6.14195 7.9861 6.14487C7.9912 6.14742 8.03091 6.16728 8.074 6.18999C8.11736 6.21226 8.18709 6.25152 8.22928 6.27613C8.27088 6.30074 8.33593 6.34058 8.37284 6.3646C8.40976 6.38863 8.47422 6.43316 8.51641 6.46304C8.55801 6.49351 8.6295 6.54742 8.67462 6.58374C8.71974 6.61949 8.78419 6.67339 8.81818 6.70328C8.85217 6.73316 8.92659 6.80465 8.98401 6.8609C9.04144 6.91773 9.11703 6.99625 9.1516 7.03492C9.18617 7.07301 9.23949 7.13512 9.26996 7.17262C9.30043 7.20953 9.34497 7.26637 9.36958 7.29859C9.39419 7.33082 9.44458 7.40172 9.4815 7.4568C9.51842 7.51129 9.56354 7.57985 9.58111 7.60914C9.59928 7.63785 9.62916 7.68942 9.6485 7.7234C9.66784 7.7568 9.70241 7.82008 9.72526 7.86403C9.74812 7.90739 9.78679 7.98766 9.8114 8.04274C9.83601 8.09723 9.87293 8.18454 9.89285 8.2361C9.91336 8.28708 9.94324 8.36911 9.95965 8.41774C9.97547 8.46579 9.99833 8.5361 10.0311 8.64333H8.61016L8.58145 8.56247C8.56563 8.51853 8.53867 8.44763 8.52109 8.40602C8.50351 8.36384 8.46894 8.28884 8.44375 8.23903C8.41855 8.18864 8.38163 8.11891 8.36112 8.08376C8.3412 8.04801 8.29901 7.98063 8.26795 7.93434C8.2369 7.88747 8.18826 7.81891 8.15955 7.782C8.13084 7.7445 8.08279 7.68649 8.0529 7.65309C8.0236 7.6191 7.96266 7.55582 7.91813 7.51188C7.87301 7.46852 7.81266 7.41285 7.78394 7.38883C7.75464 7.36422 7.71011 7.32848 7.68433 7.30914C7.65855 7.28981 7.60991 7.25523 7.57592 7.23297C7.54194 7.21012 7.49037 7.17789 7.46166 7.1609C7.43236 7.14391 7.37318 7.11226 7.32982 7.09C7.28645 7.06832 7.22551 7.04019 7.19504 7.0273C7.16457 7.01383 7.11711 6.99508 7.08957 6.98512C7.06203 6.97515 6.99991 6.95523 6.95186 6.94117C6.90323 6.92711 6.83115 6.90836 6.79072 6.90015C6.75029 6.89136 6.68232 6.87965 6.63954 6.8732C6.59735 6.86676 6.55692 6.86207 6.55047 6.86207C6.53876 6.86207 6.53876 6.86558 6.53876 8.64333H6.36121C6.26394 8.64333 6.13678 8.6404 6.07877 8.63689C6.02076 8.63396 5.92993 8.62692 5.87661 8.62224C5.82329 8.61755 5.74828 8.60935 5.70961 8.60466C5.67093 8.59939 5.5971 8.58884 5.54554 8.58122C5.49397 8.57302 5.41193 8.55837 5.36388 8.54841C5.31525 8.53903 5.22735 8.51911 5.16758 8.50446C5.10782 8.48981 5.01172 8.46345 4.95371 8.44587C4.89569 8.42829 4.80194 8.39665 4.74569 8.37614C4.68943 8.35563 4.60095 8.32106 4.54939 8.29938C4.49782 8.2777 4.40406 8.23434 4.34137 8.2027C4.27867 8.17106 4.19429 8.12653 4.15386 8.10368C4.11342 8.08024 4.04369 8.03805 3.99857 8.00876C3.95345 7.98005 3.88489 7.93376 3.84622 7.90622C3.80755 7.87868 3.73899 7.82653 3.69387 7.7902C3.64875 7.75446 3.58546 7.70114 3.55324 7.67243C3.52101 7.6443 3.46475 7.59156 3.42784 7.55641C3.39092 7.52067 3.33174 7.45973 3.29599 7.42106C3.26025 7.38238 3.20224 7.31676 3.16708 7.27457C3.13251 7.23297 3.07391 7.15914 3.03758 7.11109C3.00184 7.06246 2.94558 6.98336 2.91336 6.93531C2.88113 6.88668 2.83659 6.81695 2.81374 6.78004C2.79147 6.74254 2.75163 6.67398 2.72584 6.62769C2.70006 6.58082 2.66139 6.50816 2.64088 6.46656C2.61978 6.42437 2.58404 6.34937 2.56177 6.29956C2.53892 6.24917 2.50552 6.17183 2.48677 6.12671C2.46802 6.08101 2.43227 5.98784 2.40766 5.9187C2.38247 5.84897 2.34907 5.74878 2.33266 5.69604C2.31625 5.64272 2.2934 5.56479 2.28168 5.52319C2.26996 5.481 2.24594 5.38901 2.22894 5.31811C2.21136 5.24663 2.18675 5.13647 2.17386 5.07202C2.16097 5.00756 2.14398 4.91498 2.13577 4.86694C2.12757 4.8183 2.11409 4.73393 2.10647 4.67943C2.09827 4.62436 2.08655 4.53353 2.08011 4.47728C2.07366 4.42045 2.06428 4.3308 2.05901 4.27806C2.05432 4.22474 2.04612 4.12162 2.04143 4.04955C2.03674 3.97689 2.03088 3.85736 2.02913 3.78411L2.02502 3.65111Z" fill="black"/>
</svg>
