<svg width="20" height="20" viewBox="0 0 20 20" fill="none" xmlns="http://www.w3.org/2000/svg">
<g clip-path="url(#clip0_2758_95016)">
<path d="M17 9.09268C15.7221 9.09574 14.4756 8.69722 13.4365 7.95344V13.1408C13.4361 14.1016 13.1424 15.0394 12.5947 15.8287C12.047 16.6181 11.2713 17.2214 10.3714 17.558C9.47158 17.8947 8.49034 17.9486 7.55899 17.7125C6.62765 17.4765 5.79057 16.9617 5.15968 16.2371C4.52879 15.5125 4.13417 14.6125 4.02858 13.6576C3.92299 12.7026 4.11147 11.7382 4.56881 10.8933C5.02615 10.0483 5.73055 9.36319 6.58783 8.92938C7.44511 8.49557 8.4144 8.33381 9.36609 8.46574V11.0748C8.93059 10.9379 8.46295 10.9419 8.02994 11.0866C7.59692 11.2312 7.22069 11.509 6.95496 11.8802C6.68924 12.2514 6.54761 12.6971 6.55029 13.1536C6.55298 13.6102 6.69985 14.0541 6.96994 14.4222C7.24002 14.7903 7.6195 15.0636 8.05418 15.2031C8.48887 15.3426 8.95653 15.3413 9.39036 15.1991C9.82425 15.0571 10.2021 14.7815 10.47 14.4118C10.7379 14.0422 10.8821 13.5973 10.8821 13.1408V3H13.4365C13.4347 3.2157 13.4527 3.4311 13.4904 3.64349C13.5792 4.11761 13.7637 4.56864 14.0328 4.96899C14.3019 5.36934 14.6498 5.7106 15.0553 5.97189C15.6321 6.35331 16.3085 6.5566 17 6.55646V9.09268Z" fill="black"/>
</g>
<defs>
<clipPath id="clip0_2758_95016">
<rect width="20" height="20" fill="white"/>
</clipPath>
</defs>
</svg>
