<svg width="20" height="21" viewBox="0 0 20 21" fill="none" xmlns="http://www.w3.org/2000/svg">
<g id="Icon_20px=attach" clip-path="url(#clip0_6457_64075)">
<path id="Vector" d="M12.1723 8.50722L8.30442 12.3758C8.2391 12.4389 8.18701 12.5143 8.15117 12.5978C8.11533 12.6812 8.09646 12.7709 8.09567 12.8617C8.09488 12.9525 8.11219 13.0426 8.14657 13.1266C8.18096 13.2107 8.23173 13.287 8.29594 13.3512C8.36015 13.4154 8.4365 13.4662 8.52055 13.5006C8.60459 13.535 8.69464 13.5523 8.78544 13.5515C8.87624 13.5507 8.96598 13.5318 9.04941 13.496C9.13284 13.4602 9.2083 13.4081 9.27139 13.3427L13.1399 9.47487C13.5247 9.0901 13.7409 8.56823 13.7409 8.02408C13.7409 7.47992 13.5247 6.95806 13.1399 6.57328C12.7552 6.18851 12.2333 5.97234 11.6892 5.97234C11.145 5.97234 10.6231 6.18851 10.2384 6.57328L6.3698 10.4418C6.0457 10.7579 5.78758 11.1351 5.61042 11.5517C5.43325 11.9682 5.34056 12.4158 5.33772 12.8685C5.33489 13.3211 5.42196 13.7699 5.59389 14.1886C5.76583 14.6074 6.0192 14.9878 6.33931 15.3079C6.65942 15.6279 7.03989 15.8812 7.45867 16.0531C7.87744 16.225 8.32617 16.312 8.77883 16.3091C9.23149 16.3062 9.67907 16.2135 10.0956 16.0362C10.5121 15.859 10.8893 15.6008 11.2053 15.2767L15.0739 11.4088L16.0409 12.3758L12.1723 16.2443C11.7278 16.6889 11.2 17.0415 10.6192 17.2821C10.0384 17.5227 9.41589 17.6465 8.78722 17.6465C8.15855 17.6465 7.53604 17.5227 6.95523 17.2821C6.37442 17.0415 5.84668 16.6889 5.40214 16.2443C4.95761 15.7998 4.60499 15.2721 4.36441 14.6913C4.12382 14.1104 4 13.4879 4 12.8593C4 12.2306 4.12382 11.6081 4.36441 11.0273C4.60499 10.4465 4.95761 9.91872 5.40214 9.47419L9.27139 5.60631C9.91627 4.98347 10.78 4.63882 11.6765 4.64661C12.573 4.6544 13.4306 5.01401 14.0646 5.64797C14.6985 6.28193 15.0581 7.13952 15.0659 8.03604C15.0737 8.93256 14.7291 9.79628 14.1062 10.4412L10.2384 14.3111C10.0478 14.5016 9.82156 14.6527 9.5726 14.7558C9.32363 14.8589 9.05679 14.912 8.78732 14.9119C8.51785 14.9119 8.25103 14.8588 8.00208 14.7556C7.75314 14.6525 7.52694 14.5013 7.33642 14.3107C7.1459 14.1202 6.99478 13.894 6.89169 13.645C6.7886 13.396 6.73555 13.1292 6.73559 12.8597C6.73562 12.5902 6.78872 12.3234 6.89187 12.0745C6.99503 11.8255 7.1462 11.5993 7.33677 11.4088L11.2053 7.54025L12.1723 8.50722Z" fill="black"/>
</g>
<defs>
<clipPath id="clip0_6457_64075">
<rect width="20" height="20" fill="white" transform="translate(0 0.646484)"/>
</clipPath>
</defs>
</svg>
