<svg width="58" height="59" viewBox="0 0 58 59" fill="none" xmlns="http://www.w3.org/2000/svg">
<g clip-path="url(#clip0_6317_49972)">
<path d="M57.9997 0.207031H24.0117V58.207H57.9997V0.207031Z" fill="#FFF145"/>
<path d="M19.75 3.95703H42.25C45.7018 3.95703 48.5 6.75525 48.5 10.207V57.457H19.75V3.95703Z" stroke="black" stroke-width="1.5"/>
<path d="M19.75 49.957H42C45.4518 49.957 48.25 52.7553 48.25 56.207V57.457H19.75V49.957Z" stroke="black" stroke-width="1.5"/>
<path d="M77.25 49.957H55C51.5482 49.957 48.75 52.7553 48.75 56.207V57.457H77.25V49.957Z" stroke="black" stroke-width="1.5"/>
<path d="M77.375 3.95703H54.875C51.4232 3.95703 48.625 6.75525 48.625 10.207V57.457H77.375V3.95703Z" stroke="black" stroke-width="1.5"/>
</g>
<defs>
<clipPath id="clip0_6317_49972">
<rect width="58" height="58" fill="white" transform="translate(0 0.207031)"/>
</clipPath>
</defs>
</svg>
