<svg width="17" height="18" viewBox="0 0 17 18" fill="none" xmlns="http://www.w3.org/2000/svg">
<path d="M13.5698 13.9128C13.5698 14.0685 13.5079 14.2179 13.3978 14.328C13.2876 14.4381 13.1383 14.5 12.9825 14.5H3.58721C3.43147 14.5 3.28211 14.4381 3.17199 14.328C3.06187 14.2179 3 14.0685 3 13.9128V7.74123C2.99994 7.65174 3.02033 7.56343 3.05961 7.48303C3.09889 7.40263 3.15603 7.33228 3.22666 7.27733L7.92433 3.62372C8.02741 3.54354 8.15428 3.5 8.28488 3.5C8.41547 3.5 8.54234 3.54354 8.64542 3.62372L13.3431 7.27733C13.4137 7.33228 13.4709 7.40263 13.5101 7.48303C13.5494 7.56343 13.5698 7.65174 13.5698 7.74123V13.9128ZM12.3953 13.3256V8.02779L8.28488 4.83102L4.17442 8.02779V13.3256H12.3953Z" fill="#808080"/>
</svg>
