<svg width="20" height="20" viewBox="0 0 20 20" fill="none" xmlns="http://www.w3.org/2000/svg">
<g clip-path="url(#clip0_4859_150797)">
<path d="M6 5V2.75C6 2.55109 6.07901 2.36032 6.21967 2.21967C6.36032 2.07902 6.55108 2 6.75 2H15.75C15.9489 2 16.1397 2.07902 16.2803 2.21967C16.421 2.36032 16.5 2.55109 16.5 2.75V13.25C16.5 13.4489 16.421 13.6397 16.2803 13.7803C16.1397 13.921 15.9489 14 15.75 14H13.5V16.25C13.5 16.664 13.1625 17 12.7447 17H3.75525C3.65634 17.0006 3.5583 16.9816 3.46674 16.9442C3.37519 16.9068 3.29192 16.8517 3.22174 16.782C3.15156 16.7123 3.09584 16.6294 3.05779 16.5381C3.01974 16.4468 3.0001 16.3489 3 16.25L3.00225 5.75C3.00225 5.336 3.33975 5 3.7575 5H6ZM4.50225 6.5L4.5 15.5H12V6.5H4.50225ZM7.5 5H13.5V12.5H15V3.5H7.5V5Z" fill="black"/>
</g>
<defs>
<clipPath id="clip0_4859_150797">
<rect width="20" height="20" fill="white"/>
</clipPath>
</defs>
</svg>
