<svg width="59" height="58" viewBox="0 0 59 58" fill="none" xmlns="http://www.w3.org/2000/svg">
<g clip-path="url(#clip0_3543_145252)">
<path d="M58.4997 0H24.5117V58H58.4997V0Z" fill="#FFF145"/>
<mask id="path-2-inside-1_3543_145252" fill="white">
<rect width="12.866" height="13.9381" rx="1" transform="matrix(-1 0 0 1 64.7461 41.062)"/>
</mask>
<rect width="12.866" height="13.9381" rx="1" transform="matrix(-1 0 0 1 64.7461 41.062)" stroke="black" stroke-width="3" mask="url(#path-2-inside-1_3543_145252)"/>
<mask id="path-3-inside-2_3543_145252" fill="white">
<rect width="12.866" height="24.6598" rx="1" transform="matrix(-1 0 0 1 46.5195 30.3398)"/>
</mask>
<rect width="12.866" height="24.6598" rx="1" transform="matrix(-1 0 0 1 46.5195 30.3398)" stroke="black" stroke-width="3" mask="url(#path-3-inside-2_3543_145252)"/>
<mask id="path-4-inside-3_3543_145252" fill="white">
<rect width="12.866" height="33.2371" rx="1" transform="matrix(-1 0 0 1 28.2949 21.7629)"/>
</mask>
<rect width="12.866" height="33.2371" rx="1" transform="matrix(-1 0 0 1 28.2949 21.7629)" stroke="black" stroke-width="3" mask="url(#path-4-inside-3_3543_145252)"/>
<path d="M68.5 54.4639H10.6031M67.4278 33.0206L10.6031 4.60825M10.6031 4.60825L12.7474 11.0412M10.6031 4.60825L17.0361 3" stroke="black" stroke-width="1.5" stroke-linecap="round"/>
<path d="M63.6758 51.7837L57.7789 46.4229" stroke="black" stroke-width="1.5" stroke-linecap="round"/>
<path d="M45.4492 42.1343L39.5523 36.7734" stroke="black" stroke-width="1.5" stroke-linecap="round"/>
<path d="M27.2227 32.4846L21.3257 27.1238" stroke="black" stroke-width="1.5" stroke-linecap="round"/>
<path d="M27.2227 45.3503L21.3257 39.9895" stroke="black" stroke-width="1.5" stroke-linecap="round"/>
<path d="M25.6133 54.464L21.3246 50.7114" stroke="black" stroke-width="1.5" stroke-linecap="round"/>
<path d="M45.4492 52.8559L39.5523 47.4951" stroke="black" stroke-width="1.5" stroke-linecap="round"/>
</g>
<defs>
<clipPath id="clip0_3543_145252">
<rect width="58" height="58" fill="white" transform="translate(0.5)"/>
</clipPath>
</defs>
</svg>
