<svg width="58" height="58" viewBox="0 0 58 58" fill="none" xmlns="http://www.w3.org/2000/svg">
<g id="Icon 58*58" clip-path="url(#clip0_3575_143964)">
<g id="BG">
<path id="Vector" d="M57.9997 0H24.0117V58H57.9997V0Z" fill="#FFF145"/>
</g>
<g id="Group 1948753779">
<g id="Group">
<rect id="Rectangle" x="12.75" y="10.75" width="59.5" height="44.5" stroke="black" stroke-width="1.5"/>
<path id="Vector_2" d="M63.25 24.2241V42.5298C60.3293 42.8747 58.0166 45.2086 57.6745 48.127H26.3255C25.9834 45.2086 23.6707 42.8747 20.75 42.5298V24.2241C23.6707 23.8792 25.9834 21.5453 26.3255 18.627H57.6745C58.0166 21.5453 60.3293 23.8792 63.25 24.2241Z" stroke="black" stroke-width="1.5"/>
</g>
<g id="Group_2">
<path id="Vector_3" d="M52.498 57.8771V42.127H62.1231V57.8771L57.3106 54.377L52.498 57.8771Z" fill="#FFF145" stroke="black" stroke-width="1.5"/>
<path id="Vector_4" d="M56.762 30.8947C56.8482 30.834 56.9632 30.834 57.0495 30.8947L58.4216 31.859C58.7086 32.0607 59.0496 32.1714 59.4003 32.177L61.2529 32.2061L61.8531 33.959C61.9667 34.2909 62.1775 34.5809 62.458 34.7915L63.7991 35.7986C63.8834 35.8619 63.9189 35.9712 63.8879 36.072L63.3948 37.675C63.2917 38.0102 63.2917 38.3688 63.3948 38.704L63.8879 40.307C63.9189 40.4078 63.8834 40.5172 63.7991 40.5804L62.458 41.5875C62.1775 41.7981 61.9667 42.0881 61.8531 42.42L61.3098 44.0067C61.2757 44.1064 61.1826 44.174 61.0772 44.1757L59.4003 44.202C59.0496 44.2076 58.7086 44.3184 58.4216 44.52L57.0495 45.4844C56.9632 45.545 56.8482 45.545 56.762 45.4844L55.3898 44.52C55.1028 44.3184 54.7618 44.2076 54.4111 44.202L52.7342 44.1757C52.6288 44.174 52.5358 44.1064 52.5016 44.0067L51.9583 42.42C51.8447 42.0881 51.634 41.7981 51.3535 41.5875L50.0123 40.5804L49.5643 41.1771L50.0123 40.5804C49.928 40.5172 49.8925 40.4078 49.9235 40.307L50.4166 38.704C50.5197 38.3688 50.5197 38.0102 50.4166 37.675L49.9235 36.072C49.8925 35.9712 49.928 35.8619 50.0123 35.7986L51.3535 34.7915C51.634 34.5809 51.8447 34.2909 51.9583 33.959L52.5016 32.3723C52.5358 32.2726 52.6288 32.205 52.7342 32.2034L54.4111 32.177C54.7618 32.1714 55.1028 32.0607 55.3898 31.859L56.762 30.8947Z" fill="#FFF145" stroke="black" stroke-width="1.5"/>
</g>
</g>
</g>
<defs>
<clipPath id="clip0_3575_143964">
<rect width="58" height="58" fill="white"/>
</clipPath>
</defs>
</svg>
