<svg width="28" height="28" viewBox="0 0 28 28" fill="none" xmlns="http://www.w3.org/2000/svg">
<g clip-path="url(#clip0_1970_52722)">
<path d="M23.2416 10.0802V22.8133C23.2425 22.942 23.218 23.0696 23.1696 23.1889C23.1212 23.3081 23.0497 23.4167 22.9594 23.5083C22.869 23.6 22.7615 23.6729 22.6429 23.723C22.5244 23.7731 22.3971 23.7993 22.2684 23.8002H6.5747C6.31678 23.8002 6.06941 23.6978 5.88693 23.5155C5.70446 23.3332 5.60182 23.086 5.60156 22.828V5.17236C5.60156 4.6461 6.04158 4.2002 6.58352 4.2002H17.3586L23.2416 10.0802ZM21.2816 11.0602H16.3816V6.1602H7.56156V21.8402H21.2816V11.0602Z" fill="black"/>
</g>
<defs>
<clipPath id="clip0_1970_52722">
<rect width="28" height="28" fill="white"/>
</clipPath>
</defs>
</svg>
