<svg width="144" height="107" viewBox="0 0 144 107" fill="none" xmlns="http://www.w3.org/2000/svg">
<path fill-rule="evenodd" clip-rule="evenodd" d="M41.2991 43.5827L42.0788 51.2289C61.7768 55.2044 79.1463 54.3731 79.4815 53.1351C82.3772 42.4403 85.3927 35.7158 82.5967 26.9656C79.7196 17.9613 73.2102 10.776 64.8017 8.491C57.4118 6.48319 48.5601 8.12561 39.3415 17.4945C35.4664 21.4314 31.5925 25.7098 28.9331 28.6391C26.9561 30.8174 18.7421 39.4183 15.7083 35.7971C13.7058 33.406 15.0392 31.4466 15.5259 28.5661L5.49793 25.7714C3.79154 31.8033 1.48805 37.6372 4.73272 43.6916C8.24051 50.2353 15.2291 51.4947 21.9522 50.2046C29.0676 48.8414 35.4999 46.1346 41.2991 43.5827Z" fill="black"/>
<path fill-rule="evenodd" clip-rule="evenodd" d="M55.4128 47.4665L38.6192 66.227C36.4572 66.3403 32.3235 67.8041 30.3902 69.8734C35.5672 74.4896 42.4483 79.711 47.5081 84.1875L66.308 64.1968L55.67 47.1202C55.5811 46.9758 55.5097 47.3583 55.4128 47.4665Z" fill="black"/>
<path fill-rule="evenodd" clip-rule="evenodd" d="M128.319 57.2777C133.251 58.4971 136.853 57.7642 141.428 53.9954L125.906 38.4424L124.784 39.5614L117.697 46.6358L128.319 57.2777Z" fill="black"/>
<path fill-rule="evenodd" clip-rule="evenodd" d="M40.0205 29.4692C38.3311 40.9509 52.7948 43.0798 54.4861 31.5985C56.1759 20.1172 41.71 17.9878 40.0205 29.4692Z" fill="white"/>
<path fill-rule="evenodd" clip-rule="evenodd" d="M39.303 29.6981C37.3848 32.1444 37.8128 35.6814 40.259 37.5997C42.7037 39.5183 46.2423 39.0904 48.1595 36.6441C50.0778 34.1978 49.6497 30.6604 47.205 28.7422C44.7588 26.8235 41.2213 27.2519 39.303 29.6981Z" fill="black"/>
<path fill-rule="evenodd" clip-rule="evenodd" d="M100.834 8.0669L110.548 23.4742L84.9881 48.7156L67.1084 37.8273L100.834 8.0669Z" fill="black"/>
<path fill-rule="evenodd" clip-rule="evenodd" d="M73.7946 79.4595C73.6182 80.2453 78.0126 82.4345 77.8851 83.2082L91.5455 80.2049C93.517 74.4626 99.0954 71.2861 105.441 70.9619L114.223 56.7103L87.3352 32.7335C73.5146 20.2361 94.4019 36.9933 77.4949 27.5471C75.0868 30.3359 74.5867 27.4093 74.4284 29.9979L85.5773 37.5154C76.6241 46.8805 54.9994 21.6188 56.4627 39.5002L53.3765 42.2658L61.5303 66.5132C64.2085 72.8802 68.9165 76.5809 73.7946 79.4595Z" fill="black"/>
<path fill-rule="evenodd" clip-rule="evenodd" d="M86.4102 52.3111C103.68 52.4808 112.698 46.7823 124.074 36.9015L138.606 51.4603C125.316 65.7676 108.744 73.9617 89.2967 77.1965L86.4102 52.3111Z" fill="black"/>
<path fill-rule="evenodd" clip-rule="evenodd" d="M78.334 56.8643C74.2607 64.3465 70.9486 83.5111 72.8732 95.3081C69.8197 98.3199 69.6695 99.1866 68.9246 103.043L93.5572 104.059C93.0458 98.8171 92.6771 94.7796 92.561 91.4653C92.3636 85.8641 96.0697 71.6252 98.3184 68.7608L78.334 56.8643Z" fill="black"/>
<path fill-rule="evenodd" clip-rule="evenodd" d="M95.487 17.5405C94.7085 12.6561 95.7147 9.21879 99.7447 5.08926L113.566 21.4255L112.389 22.4221L104.944 28.7185L95.487 17.5405Z" fill="black"/>
</svg>
