<svg width="14" height="19" viewBox="0 0 14 19" fill="none" xmlns="http://www.w3.org/2000/svg">
<path d="M2.15244e-07 0.95L1.13286e-08 18.05C5.07222e-09 18.5747 0.408766 19 0.913044 19L13.087 19C13.5912 19 14 18.5747 14 18.05L14 0.95C14 0.425348 13.5912 1.62074e-07 13.087 1.5606e-07L0.913044 1.08879e-08C0.408801 4.87491e-09 2.21501e-07 0.425311 2.15244e-07 0.95ZM13.087 0.633345C13.2551 0.633345 13.3913 0.775104 13.3913 0.95L13.3913 18.05C13.3913 18.2249 13.2551 18.3667 13.087 18.3667L0.913044 18.3667C0.744951 18.3667 0.608708 18.2249 0.608708 18.05L0.608708 0.95C0.608708 0.775104 0.744952 0.633345 0.913044 0.633345L13.087 0.633345V0.633345Z" fill="black"/>
<path d="M7.10854 9.15633L7.10852 9.15631L1.21029 1.85078L1.21028 1.85077L1.21028 1.85077C1.14189 1.76607 1.10918 1.6573 1.11832 1.54843C1.12746 1.4396 1.17779 1.33802 1.25973 1.26653C1.34175 1.19484 1.44861 1.15945 1.55675 1.16928C1.66482 1.1791 1.7637 1.23307 1.83216 1.31793C1.83217 1.31795 1.83218 1.31796 1.83219 1.31798L7.73 8.62331L7.10854 9.15633ZM7.10854 9.15633C7.26927 9.35528 7.26927 9.64681 7.10854 9.84575L7.10852 9.84578M7.10854 9.15633L7.10852 9.84578M7.10852 9.84578L1.21025 17.1512L1.21023 17.1513M7.10852 9.84578L1.21023 17.1513M1.21023 17.1513C1.1183 17.2652 1.09231 17.4204 1.14073 17.5589M1.21023 17.1513L1.14073 17.5589M1.14073 17.5589C1.18924 17.6977 1.30629 17.8015 1.45021 17.8279M1.14073 17.5589L1.45021 17.8279M1.45021 17.8279C1.59438 17.8544 1.73984 17.7985 1.83212 17.6841M1.45021 17.8279L1.83212 17.6841M1.83212 17.6841C1.83213 17.6841 1.83214 17.6841 1.83214 17.6841M1.83212 17.6841L1.83214 17.6841M1.83214 17.6841L7.73 10.3787M1.83214 17.6841L7.73 10.3787M7.73 10.3787C8.14068 9.8712 8.1407 9.13096 7.73007 8.6234L7.73 10.3787Z" fill="black" stroke="black" stroke-width="0.2"/>
<path d="M12.878 17.5115L12.878 17.5116C12.8467 17.6574 12.7413 17.7768 12.5994 17.8207L12.878 17.5115ZM12.878 17.5115C12.9091 17.3662 12.8628 17.2137 12.7546 17.1127L8.19088 12.6809C8.08628 12.5752 7.93346 12.5355 7.79159 12.5794C7.6498 12.6232 7.54435 12.7425 7.51305 12.8885C7.48189 13.0338 7.52821 13.1863 7.63644 13.2873M12.878 17.5115L7.63644 13.2873M7.63644 13.2873L12.2002 17.7192C12.3048 17.8249 12.4576 17.8646 12.5994 17.8207L7.63644 13.2873Z" fill="black" stroke="black" stroke-width="0.2"/>
<path d="M7.79159 6.42224L7.7916 6.42224C7.9335 6.46613 8.08627 6.42641 8.19088 6.32075L12.7553 1.88814L12.7554 1.88816L12.757 1.88654C12.9124 1.72857 12.9181 1.47208 12.77 1.30703C12.6201 1.13986 12.3672 1.12733 12.2025 1.2801L12.2025 1.28008L12.2009 1.28168L7.63644 5.71428C7.5282 5.81528 7.48189 5.96779 7.51305 6.11311C7.54435 6.25906 7.6498 6.37837 7.79159 6.42224Z" fill="black" stroke="black" stroke-width="0.2"/>
</svg>
