<svg width="14" height="19" viewBox="0 0 14 19" fill="none" xmlns="http://www.w3.org/2000/svg">
<path d="M2.15244e-07 0.950001L1.13286e-08 18.05C5.07222e-09 18.5747 0.408766 19 0.913044 19L13.087 19C13.5912 19 14 18.5747 14 18.05L14 0.950001C14 0.425348 13.5912 1.62074e-07 13.087 1.5606e-07L0.913044 1.08879e-08C0.408801 4.87491e-09 2.21501e-07 0.42531 2.15244e-07 0.950001ZM13.087 0.633345C13.2551 0.633345 13.3913 0.775105 13.3913 0.950001L13.3913 18.05C13.3913 18.2249 13.2551 18.3667 13.087 18.3667L0.913044 18.3667C0.744951 18.3667 0.608708 18.2249 0.608708 18.05L0.608708 0.950001C0.608708 0.775105 0.744952 0.633345 0.913044 0.633345L13.087 0.633345Z" fill="white"/>
<path d="M7.11049 9.15633L7.11047 9.15631L1.21224 1.85078L1.21224 1.85077L1.21224 1.85077C1.14384 1.76607 1.11114 1.6573 1.12028 1.54843C1.12941 1.4396 1.17974 1.33802 1.26168 1.26653C1.26171 1.26651 1.26174 1.26648 1.26177 1.26645L1.32749 1.34182C1.3893 1.28779 1.46923 1.26156 1.54966 1.26887C1.63008 1.27618 1.70441 1.3164 1.7563 1.38075L7.11049 9.15633ZM7.11049 9.15633C7.27122 9.35528 7.27122 9.64681 7.11049 9.84575L7.11047 9.84578M7.11049 9.15633L7.11047 9.84578M1.83414 1.31798L7.73196 8.62331L1.83414 1.31798ZM1.83414 1.31798C1.83413 1.31796 1.83412 1.31795 1.83411 1.31793L1.83414 1.31798ZM7.11047 9.84578L1.2122 17.1512L1.21218 17.1513M7.11047 9.84578L1.21218 17.1513M1.21218 17.1513C1.12026 17.2652 1.09427 17.4204 1.14268 17.5589M1.21218 17.1513L1.14268 17.5589M1.14268 17.5589C1.1912 17.6977 1.30824 17.8015 1.45217 17.8279M1.14268 17.5589L1.45217 17.8279M1.45217 17.8279C1.59633 17.8544 1.74179 17.7985 1.83408 17.6841M1.45217 17.8279L1.83408 17.6841M1.83408 17.6841C1.83408 17.6841 1.83409 17.6841 1.8341 17.6841M1.83408 17.6841L1.8341 17.6841M1.8341 17.6841L7.73195 10.3787M1.8341 17.6841L7.73195 10.3787M7.73195 10.3787C8.14263 9.8712 8.14265 9.13096 7.73203 8.6234L7.73195 10.3787Z" fill="white" stroke="white" stroke-width="0.2"/>
<path d="M12.8799 17.5115L12.8799 17.5116L12.8799 17.5115ZM12.8799 17.5115C12.9111 17.3662 12.8648 17.2137 12.7565 17.1127L8.19283 12.6808C8.08822 12.5752 7.93541 12.5355 7.79355 12.5794C7.65175 12.6232 7.5463 12.7425 7.51501 12.8885C7.48384 13.0338 7.53017 13.1863 7.63839 13.2873M12.8799 17.5115L7.63839 13.2873M7.63839 13.2873L12.2021 17.7192M7.63839 13.2873L12.2021 17.7192M12.2021 17.7192C12.3067 17.8249 12.4595 17.8646 12.6014 17.8207L12.2021 17.7192Z" fill="white" stroke="white" stroke-width="0.2"/>
<path d="M7.79355 6.42224L7.79356 6.42224C7.93545 6.46613 8.08822 6.42641 8.19283 6.32075L12.7573 1.88814L12.7573 1.88816L12.7589 1.88654C12.9144 1.72857 12.92 1.47208 12.772 1.30703C12.6221 1.13986 12.3692 1.12733 12.2045 1.2801L12.2045 1.28008L12.2028 1.28168L7.6384 5.71428C7.53015 5.81528 7.48385 5.96779 7.51501 6.11311C7.5463 6.25906 7.65175 6.37837 7.79355 6.42224Z" fill="white" stroke="white" stroke-width="0.2"/>
</svg>
