<svg width="24" height="24" viewBox="0 0 24 24" fill="none" xmlns="http://www.w3.org/2000/svg">
<path d="M2 11.6758C2.0813 9.56044 2.66396 7.92582 3.74797 6.77198C4.85908 5.59066 6.33604 5 8.17886 5C9.07317 5 9.83198 5.1511 10.4553 5.4533C11.1057 5.75549 11.8509 6.19505 12.6911 6.77198C13.2602 7.21154 13.748 7.54121 14.1545 7.76099C14.561 7.9533 14.9946 8.04945 15.4553 8.04945C17.0542 8.04945 17.935 7.03297 18.0976 5H22C21.9187 7.11538 21.3225 8.76374 20.2114 9.94506C19.1274 11.0989 17.664 11.6758 15.8211 11.6758C14.9268 11.6758 14.1545 11.5247 13.5041 11.2225C12.8808 10.9203 12.1491 10.4808 11.3089 9.90385C10.7669 9.49176 10.2791 9.18956 9.84553 8.99725C9.43902 8.77747 9.00542 8.66758 8.54472 8.66758C6.9458 8.66758 6.06504 9.67033 5.90244 11.6758H2ZM2 20C2.0813 17.8846 2.66396 16.25 3.74797 15.0962C4.85908 13.9148 6.33604 13.3242 8.17886 13.3242C9.07317 13.3242 9.83198 13.4753 10.4553 13.7775C11.1057 14.0797 11.8509 14.5192 12.6911 15.0962C13.2331 15.5082 13.7073 15.8242 14.1138 16.044C14.5474 16.2363 14.9946 16.3324 15.4553 16.3324C17.0542 16.3324 17.935 15.3297 18.0976 13.3242H22C21.9187 15.4396 21.3225 17.0879 20.2114 18.2692C19.1274 19.4231 17.664 20 15.8211 20C14.9268 20 14.1545 19.8489 13.5041 19.5467C12.8808 19.2445 12.1491 18.8049 11.3089 18.228C10.7398 17.7885 10.252 17.4725 9.84553 17.2802C9.43902 17.0604 9.00542 16.9506 8.54472 16.9506C6.9458 16.9506 6.06504 17.967 5.90244 20H2Z" fill="white"/>
</svg>
