<svg width="20" height="20" viewBox="0 0 20 20" fill="none" xmlns="http://www.w3.org/2000/svg">
<g id="Icon / 20px" clip-path="url(#clip0_7632_155848)">
<path id="Vector" d="M10.2683 12.6585H8.41463C6.89426 12.658 5.40265 13.073 4.10106 13.8587C2.79946 14.6444 1.73739 15.771 1.02966 17.1166C1.00977 16.8668 0.999873 16.6164 1 16.3659C1 11.247 5.14942 7.09756 10.2683 7.09756V2L20 9.87805L10.2683 17.7561V12.6585ZM8.41463 10.8049H12.122V13.8708L17.0536 9.87805L12.122 5.88527V8.95122H10.2683C9.20267 8.95002 8.14937 9.17905 7.18046 9.62263C6.21155 10.0662 5.34991 10.7139 4.65449 11.5213C5.85132 11.047 7.12723 10.8039 8.41463 10.8049Z" fill="#808080"/>
</g>
<defs>
<clipPath id="clip0_7632_155848">
<rect width="20" height="20" fill="white"/>
</clipPath>
</defs>
</svg>
