<svg width="15" height="13" viewBox="0 0 15 13" fill="none" xmlns="http://www.w3.org/2000/svg">
<path d="M7.48626 2.03738L6.98525 1.58826C5.69347 0.430262 3.70618 0.472017 2.46383 1.71357C2.46375 1.71365 2.46367 1.71373 2.46359 1.71381M7.48626 2.03738L1.77443 6.73047C0.357342 5.14366 0.41055 2.70686 1.93338 1.18336L2.46359 1.71381M7.48626 2.03738L7.98693 1.58787C9.2745 0.431857 11.2657 0.470773 12.506 1.71299C13.7431 2.95337 13.7896 4.92427 12.6497 6.21606L7.48459 11.3885L2.32068 6.21609M7.48626 2.03738L2.32068 6.21609M2.46359 1.71381C1.22838 2.94981 1.18066 4.9241 2.32068 6.21609M2.46359 1.71381L2.32068 6.21609" fill="black" stroke="black" stroke-width="1.5"/>
</svg>
