<svg width="20" height="20" viewBox="0 0 20 20" fill="none" xmlns="http://www.w3.org/2000/svg">
<g id="Icon / 20px">
<path id="Vector" d="M10.0014 3.27731C11.0271 2.35912 12.3655 1.86867 13.7416 1.90673C15.1177 1.9448 16.427 2.5085 17.4004 3.48199C18.3729 4.45439 18.9367 5.76197 18.9761 7.13668C19.0154 8.5114 18.5275 9.84912 17.6122 10.8756L9.99957 18.4991L2.38869 10.8756C1.47235 9.84858 0.98394 8.50972 1.02374 7.1339C1.06354 5.75808 1.62852 4.44969 2.6027 3.47734C3.57688 2.505 4.88634 1.94249 6.26223 1.90529C7.63813 1.86809 8.97607 2.35902 10.0014 3.27731ZM16.1292 4.75047C15.4807 4.10243 14.6087 3.72714 13.6923 3.7016C12.7758 3.67606 11.8843 4.0022 11.2007 4.61311L10.0023 5.68858L8.80291 4.61401C8.11888 4.00237 7.2266 3.67586 6.30935 3.70158C5.3921 3.72729 4.51952 4.10326 3.87083 4.75226C3.22829 5.39476 2.85322 6.25697 2.82124 7.16506C2.78925 8.07316 3.10273 8.95962 3.69847 9.64574L10.0005 15.9576L16.3025 9.64663C16.8989 8.96024 17.2127 8.07315 17.1805 7.16441C17.1483 6.25568 16.7726 5.39298 16.1292 4.75047Z" fill="#808080"/>
</g>
</svg>
