<svg width="15" height="14" viewBox="0 0 15 14" fill="none" xmlns="http://www.w3.org/2000/svg">
<path d="M7.50053 1.95822C8.26981 1.26958 9.27364 0.901743 10.3057 0.930294C11.3378 0.958845 12.3198 1.38162 13.0498 2.11173C13.7792 2.84103 14.202 3.82172 14.2316 4.85276C14.2611 5.8838 13.8951 6.88708 13.2087 7.65695L7.49919 13.3745L1.79103 7.65695C1.10377 6.88668 0.737467 5.88254 0.767316 4.85067C0.797165 3.8188 1.2209 2.83751 1.95154 2.10825C2.68217 1.379 3.66426 0.957112 4.69619 0.929212C5.72811 0.901311 6.73156 1.26951 7.50053 1.95822ZM12.0964 3.06309C11.61 2.57706 10.9561 2.2956 10.2687 2.27644C9.58138 2.25729 8.91276 2.50189 8.40005 2.96008L7.50121 3.76668L6.60169 2.96075C6.08867 2.50202 5.41946 2.25714 4.73153 2.27643C4.04359 2.29571 3.38915 2.57769 2.90263 3.06444C2.42073 3.54632 2.13943 4.19297 2.11544 4.87404C2.09145 5.55512 2.32656 6.21996 2.77336 6.73455L7.49986 11.4685L12.2264 6.73522C12.6737 6.22043 12.909 5.5551 12.8849 4.87355C12.8608 4.192 12.579 3.54498 12.0964 3.06309Z" fill="black"/>
</svg>
