<svg width="20" height="20" viewBox="0 0 20 20" fill="none" xmlns="http://www.w3.org/2000/svg">
<g clip-path="url(#clip0_3386_145012)">
<path d="M9.50002 8.25C8.25697 8.25 7.25 9.25733 7.25 10.5C7.25 11.743 8.25734 12.75 9.50002 12.75C10.743 12.75 11.75 11.7427 11.75 10.5C11.75 9.25702 10.7427 8.25 9.50002 8.25ZM9.50002 6.75C11.5703 6.75 13.25 8.42782 13.25 10.5C13.25 12.5704 11.5722 14.25 9.50002 14.25C7.42965 14.25 5.75 12.5722 5.75 10.5C5.75 8.42965 7.42783 6.75 9.50002 6.75ZM14.375 6.56186C14.375 7.07944 13.9544 7.49938 13.4375 7.49938C12.9199 7.49938 12.5 7.0788 12.5 6.56186C12.5 6.04492 12.9205 5.625 13.4375 5.625C13.9537 5.62435 14.375 6.04492 14.375 6.56186ZM9.50002 4.5C7.64414 4.5 7.34165 4.50491 6.47847 4.54335C5.89038 4.57096 5.49616 4.65005 5.12989 4.79225C4.80439 4.91849 4.56958 5.06923 4.31941 5.31941C4.06827 5.57055 3.9178 5.80472 3.79207 6.13037C3.64954 6.49749 3.57046 6.89108 3.54335 7.47836C3.50454 8.3064 3.5 8.59579 3.5 10.5C3.5 12.3559 3.50491 12.6584 3.54334 13.5215C3.57097 14.1093 3.65016 14.5041 3.79202 14.8695C3.91859 15.1954 4.06964 15.4308 4.31861 15.6798C4.57074 15.9316 4.80561 16.0826 5.12817 16.2071C5.49891 16.3504 5.89287 16.4296 6.47835 16.4566C7.3064 16.4954 7.59579 16.5 9.50002 16.5C11.3559 16.5 11.6584 16.495 12.5215 16.4566C13.108 16.4291 13.5031 16.3497 13.8695 16.2079C14.1946 16.0817 14.4307 15.9302 14.6798 15.6814C14.932 15.4289 15.0826 15.1946 15.2073 14.8712C15.3502 14.5019 15.4296 14.1074 15.4567 13.5217C15.4954 12.6936 15.5 12.4042 15.5 10.5C15.5 8.64414 15.4951 8.34166 15.4567 7.47853C15.4291 6.8918 15.3496 6.49612 15.2077 6.12989C15.0818 5.80528 14.9305 5.56976 14.6806 5.31941C14.429 5.06786 14.1955 4.9177 13.8696 4.79207C13.5028 4.64965 13.1086 4.57047 12.5216 4.54336C11.6936 4.50454 11.4042 4.5 9.50002 4.5ZM9.50002 3C11.5375 3 11.7919 3.0075 12.5919 3.045C13.39 3.08188 13.9344 3.20813 14.4125 3.39375C14.9068 3.58438 15.3244 3.84187 15.7412 4.25875C16.1575 4.67563 16.415 5.09437 16.6063 5.5875C16.7912 6.065 16.9175 6.61 16.955 7.40812C16.9906 8.20813 17 8.4625 17 10.5C17 12.5375 16.9925 12.7918 16.955 13.5919C16.9181 14.39 16.7912 14.9344 16.6063 15.4125C16.4156 15.9069 16.1575 16.3243 15.7412 16.7413C15.3244 17.1575 14.905 17.415 14.4125 17.6063C13.9344 17.7913 13.39 17.9175 12.5919 17.955C11.7919 17.9906 11.5375 18 9.50002 18C7.4625 18 7.20812 17.9925 6.40812 17.955C5.61 17.9181 5.06625 17.7913 4.5875 17.6063C4.09375 17.4156 3.67562 17.1575 3.25875 16.7413C2.84188 16.3243 2.585 15.905 2.39375 15.4125C2.20813 14.9344 2.0825 14.39 2.045 13.5919C2.00938 12.7918 2 12.5375 2 10.5C2 8.4625 2.0075 8.20813 2.045 7.40812C2.08187 6.60938 2.20813 6.06562 2.39375 5.5875C2.58437 5.09375 2.84188 4.67563 3.25875 4.25875C3.67562 3.84187 4.09438 3.585 4.5875 3.39375C5.06563 3.20813 5.60938 3.0825 6.40812 3.045C7.20812 3.00937 7.4625 3 9.50002 3Z" fill="black"/>
</g>
<defs>
<clipPath id="clip0_3386_145012">
<rect width="20" height="20" fill="white"/>
</clipPath>
</defs>
</svg>
