<svg width="20" height="20" viewBox="0 0 20 20" fill="none" xmlns="http://www.w3.org/2000/svg">
<g clip-path="url(#clip0_3386_146565)">
<path d="M9.7173 2C5.33211 2 3 4.81013 3 7.87427C3 9.29533 3.79404 11.0674 5.06509 11.6294C5.2581 11.7164 5.36311 11.6794 5.40611 11.5004C5.44411 11.3644 5.61112 10.7094 5.69212 10.4004C5.71712 10.3014 5.70412 10.2154 5.62412 10.1224C5.2021 9.63435 4.86708 8.74531 4.86708 7.91127C4.86708 5.77417 6.56616 3.69908 9.45729 3.69908C11.9574 3.69908 13.7065 5.32315 13.7065 7.64626C13.7065 10.2714 12.3174 12.0875 10.5123 12.0875C9.5133 12.0875 8.76926 11.3034 9.00527 10.3334C9.29029 9.17833 9.84931 7.93627 9.84931 7.10323C9.84931 6.3562 9.42729 5.73817 8.56525 5.73817C7.54821 5.73817 6.72317 6.74521 6.72317 8.09728C6.72317 8.95632 7.02718 9.53634 7.02718 9.53634C7.02718 9.53634 6.02114 13.6005 5.83413 14.3596C5.51811 15.6446 5.87713 17.7257 5.90813 17.9047C5.92713 18.0037 6.03814 18.0347 6.10014 17.9537C6.19914 17.8237 7.4152 16.0886 7.75622 14.8346C7.88022 14.3776 8.38924 12.5245 8.38924 12.5245C8.72426 13.1295 9.6913 13.6365 10.7213 13.6365C13.7855 13.6365 15.9996 10.9434 15.9996 7.60125C15.9886 4.39711 13.2465 2 9.7173 2Z" fill="white"/>
</g>
<defs>
<clipPath id="clip0_3386_146565">
<rect width="20" height="20" fill="white"/>
</clipPath>
</defs>
</svg>
