<svg width="58" height="58" viewBox="0 0 58 58" fill="none" xmlns="http://www.w3.org/2000/svg">
<g id="Icon 58*58" clip-path="url(#clip0_3580_142533)">
<g id="BG">
<path id="Vector" d="M57.9997 0H24.0117V58H57.9997V0Z" fill="#FFF145"/>
</g>
<g id="Group 1948753779">
<g id="Group">
<rect id="Rectangle" x="12.75" y="10.75" width="59.5" height="44.5" stroke="black" stroke-width="1.5"/>
<path id="Vector_2" d="M63.25 24.2221V42.5278C60.3293 42.8728 58.0166 45.2066 57.6745 48.125H26.3255C25.9834 45.2066 23.6707 42.8728 20.75 42.5278V24.2221C23.6707 23.8772 25.9834 21.5434 26.3255 18.625H57.6745C58.0166 21.5434 60.3293 23.8772 63.25 24.2221Z" stroke="black" stroke-width="1.5"/>
</g>
<g id="Group_2">
<path id="Vector_3" d="M52.498 57.8751V42.125H62.1231V57.8751L57.3106 54.3751L52.498 57.8751Z" fill="#FFF145" stroke="black" stroke-width="1.5"/>
<path id="Vector_4" d="M56.762 30.8927C56.8482 30.8321 56.9632 30.8321 57.0495 30.8927L58.4216 31.857C58.7086 32.0587 59.0496 32.1695 59.4003 32.175L61.2529 32.2042L61.8531 33.9571C61.9667 34.2889 62.1775 34.579 62.458 34.7896L63.7991 35.7966C63.8834 35.8599 63.9189 35.9693 63.8879 36.07L63.3948 37.673C63.2917 38.0083 63.2917 38.3668 63.3948 38.7021L63.8879 40.3051C63.9189 40.4058 63.8834 40.5152 63.7991 40.5785L62.458 41.5855C62.1775 41.7961 61.9667 42.0862 61.8531 42.418L61.3098 44.0047C61.2757 44.1044 61.1826 44.172 61.0772 44.1737L59.4003 44.2001C59.0496 44.2056 58.7086 44.3164 58.4216 44.5181L57.0495 45.4824C56.9632 45.543 56.8482 45.543 56.762 45.4824L55.3898 44.5181C55.1028 44.3164 54.7618 44.2056 54.4111 44.2001L52.7342 44.1737C52.6288 44.172 52.5358 44.1044 52.5016 44.0047L51.9583 42.418C51.8447 42.0862 51.634 41.7961 51.3535 41.5855L50.0123 40.5785L49.5643 41.1751L50.0123 40.5785C49.928 40.5152 49.8925 40.4058 49.9235 40.3051L50.4166 38.7021C50.5197 38.3668 50.5197 38.0083 50.4166 37.673L49.9235 36.07C49.8925 35.9693 49.928 35.8599 50.0123 35.7966L51.3535 34.7896C51.634 34.579 51.8447 34.2889 51.9583 33.9571L52.5016 32.3704C52.5358 32.2707 52.6288 32.2031 52.7342 32.2014L54.4111 32.175C54.7618 32.1695 55.1028 32.0587 55.3898 31.857L56.762 30.8927Z" fill="#FFF145" stroke="black" stroke-width="1.5"/>
</g>
</g>
</g>
<defs>
<clipPath id="clip0_3580_142533">
<rect width="58" height="58" fill="white"/>
</clipPath>
</defs>
</svg>
