<svg width="59" height="58" viewBox="0 0 59 58" fill="none" xmlns="http://www.w3.org/2000/svg">
<g clip-path="url(#clip0_3627_143984)">
<path d="M58.4997 0H24.5117V58H58.4997V0Z" fill="#FFF145"/>
<rect x="10.623" y="6.75" width="20.3605" height="22.5465" rx="9.25" stroke="black" stroke-width="1.5"/>
<path d="M16.4297 30.0464V32.2324C16.4297 34.6471 18.3871 36.6045 20.8018 36.6045V36.6045C23.2164 36.6045 25.1739 34.6471 25.1739 32.2324V30.0464" stroke="black" stroke-width="1.5"/>
<path d="M45.9414 30.0464V32.2324C45.9414 34.6471 47.8989 36.6045 50.3135 36.6045V36.6045C52.7281 36.6045 54.6856 34.6471 54.6856 32.2324V30.0464" stroke="black" stroke-width="1.5"/>
<rect x="40.1328" y="6.75" width="20.3605" height="22.5465" rx="9.25" stroke="black" stroke-width="1.5"/>
<path d="M6.25 44.2559C6.25 36.2189 12.7653 29.7036 20.8023 29.7036C28.8394 29.7036 35.3546 36.2189 35.3546 44.2559V52.2501H6.25V44.2559Z" stroke="black" stroke-width="1.5"/>
<path d="M35.7617 44.2559C35.7617 36.2189 42.277 29.7036 50.314 29.7036C58.3511 29.7036 64.8664 36.2189 64.8664 44.2559V52.2501H35.7617V44.2559Z" stroke="black" stroke-width="1.5"/>
<path d="M10.9648 18.57H16.5223C18.4994 18.57 20.3314 17.5327 21.3486 15.8374V15.8374V15.8374C22.3657 17.5327 24.1978 18.57 26.1748 18.57H30.6393" stroke="black" stroke-width="1.5" stroke-linecap="round"/>
<path d="M40.4766 18.57H47.6736C49.6506 18.57 51.4827 17.5327 52.4998 15.8374V15.8374V15.8374C53.517 17.5327 55.349 18.57 57.326 18.57H60.151" stroke="black" stroke-width="1.5" stroke-linecap="round"/>
<path d="M39.9296 19.1162V19.1162C36.1651 23.7705 34.9262 29.9768 36.6153 35.7197L37.197 37.6976" stroke="black" stroke-width="1.5" stroke-linecap="round"/>
</g>
<defs>
<clipPath id="clip0_3627_143984">
<rect width="58" height="58" fill="white" transform="translate(0.5)"/>
</clipPath>
</defs>
</svg>
