<svg width="20" height="20" viewBox="0 0 20 20" fill="none" xmlns="http://www.w3.org/2000/svg">
<g clip-path="url(#clip0_2608_78110)">
<path d="M8.55 3V4.3H12.45V3H13.75V4.3H16.35C16.709 4.3 17 4.59102 17 4.95V15.35C17 15.709 16.709 16 16.35 16H4.65C4.29102 16 4 15.709 4 15.35V4.95C4 4.59102 4.29102 4.3 4.65 4.3H7.25V3H8.55ZM15.7 9.5H5.3V14.7H15.7V9.5ZM7.25 5.6H5.3V8.2H15.7V5.6H13.75V6.9H12.45V5.6H8.55V6.9H7.25V5.6Z" fill="#808080"/>
</g>
<defs>
<clipPath id="clip0_2608_78110">
<rect width="20" height="20" fill="white"/>
</clipPath>
</defs>
</svg>
