<svg width="12" height="12" viewBox="0 0 12 12" fill="none" xmlns="http://www.w3.org/2000/svg">
<g clip-path="url(#clip0_4647_24550)">
<path d="M12 6.035C12 2.705 9.315 0 6 0C2.685 0 0 2.7 0 6.035C0 9.05 2.195 11.55 5.065 12V7.78H3.54V6.035H5.06V4.705C5.06 3.195 5.96 2.355 7.33 2.355C7.985 2.355 8.67 2.475 8.67 2.475V3.96H7.92C7.17 3.96 6.94 4.425 6.94 4.905V6.035H8.6L8.335 7.785H6.935V12C9.81 11.55 12 9.05 12 6.035Z" fill="black"/>
</g>
<defs>
<clipPath id="clip0_4647_24550">
<rect width="12" height="12" fill="white"/>
</clipPath>
</defs>
</svg>
