<?xml version="1.0" encoding="utf-8"?><svg xmlns="http://www.w3.org/2000/svg" xmlns:xlink="http://www.w3.org/1999/xlink"><symbol id="arrow-next" viewBox="0 0 21.3 20.7" style="enable-background:new 0 0 21.3 20.7" xmlns="http://www.w3.org/2000/svg"><path d="M16.2 9 9.1 1.9 11 0l10.4 10.4L11 20.7l-1.9-1.9 7.2-7.2H0V9h16.2z"/></symbol><symbol id="arrow-prev" viewBox="0 0 21.3 20.7" style="enable-background:new 0 0 21.3 20.7" xmlns="http://www.w3.org/2000/svg"><path d="m5.1 9 7.2-7.2L10.4 0 0 10.4l10.4 10.4 1.9-1.9-7.2-7.2h16.2V9H5.1z"/></symbol><symbol id="arrow-right" viewBox="0 0 5.6 9.1" style="enable-background:new 0 0 5.6 9.1" xmlns="http://www.w3.org/2000/svg"><path class="cst0" d="M1.1 9.1 0 8l3.5-3.5L0 1.1 1.1 0l4.5 4.5z"/></symbol><symbol id="fb" viewBox="0 0 8 15" style="enable-background:new 0 0 8 15" xmlns="http://www.w3.org/2000/svg"><path d="M5.2 8.6h1.9l.8-3H5.2V4.1c0-.8 0-1.5 1.5-1.5h1.1V.1C7.6.1 6.7 0 5.7 0c-2 0-3.5 1.2-3.5 3.5v2.1H0v3h2.2V15h3V8.6z"/></symbol><symbol id="likee" viewBox="0 0 11 10.7" style="enable-background:new 0 0 11 10.7" xmlns="http://www.w3.org/2000/svg"><path d="M7.7 0h.4c.1 0 .3 0 .4.1.1 0 .3.1.6.2L2.3 7.4.9 5.8l2.3-2.5C4.8 1.7 5.6.8 5.7.7c.1 0 .3-.2.4-.2.1-.1.3-.2.4-.2.1 0 .3-.1.4-.1.2-.1.4-.2.5-.2h.3zM3.2 0h.4c.1 0 .3 0 .3.1.1 0 .2.1.3.1.1 0 .3.1.4.1.1 0 .2.1.3.2.1.1.2.1.2.2l.1.1s-.1.2-1.4 1.5l-1-1c-.5-.6-1-1-.9-1 0 0 .1-.1.2-.1s.3-.1.4-.1h.3c.2-.1.3-.1.4-.1zM1.8.4s.5.5 2 2.1L2.3 4l-1-1c-.5-.6-1-1.1-1-1.1s0-.1.1-.2.2-.3.2-.4C.8 1.2.9 1 1 1l.3-.3c.1-.1.2-.1.3-.2.1-.1.2-.1.2-.1zm7.5 0s.1.1.3.2c.1.1.3.2.4.4l.4.4c.1.1.2.3.3.5L4 9.1l-.8-.7c-.4-.5-.7-.8-.7-.8S4 6 5.9 4C8.3 1.4 9.3.4 9.3.4zm-9 1.7s.4.5 1.9 2L.7 5.7l-.1-.2c0-.1-.1-.2-.2-.3 0-.1-.1-.2-.1-.4 0-.1-.1-.3-.1-.4 0-.1-.1-.3-.1-.4v-.5C0 3.3 0 3.1 0 3c0-.1 0-.3.1-.4 0-.1.1-.3.1-.3 0-.1 0-.2.1-.2zm10.5.1s0 .1.1.2c0 .1.1.3.1.5v1.2c0 .1-.1.3-.1.4 0 .1-.1.3-.1.4 0 .1-.1.3-.2.4-.1.1-.2.3-.2.4-.1.1-.5.6-1 1.1-.5.4-1.6 1.5-2.3 2.3-.8.8-1.4 1.5-1.5 1.5h-.2L4.1 9.3l3.3-3.5c1.9-2 3.4-3.6 3.4-3.6z" style="fill-rule:evenodd;clip-rule:evenodd"/></symbol><symbol id="linkedin" viewBox="0 0 11.6 11" style="enable-background:new 0 0 11.6 11" xmlns="http://www.w3.org/2000/svg"><path d="M2.4 1.2c0 .5-.3.9-.8 1.1-.5.2-1 .1-1.3-.3C0 1.7-.1 1.2.1.7.3.3.8 0 1.3 0c.6 0 1.1.6 1.1 1.2zm.1 2.1H0V11h2.4V3.3zm3.8 0H3.9V11h2.4V7c0-2.2 2.9-2.4 2.9 0v4h2.4V6.2c0-3.8-4.3-3.6-5.3-1.8V3.3z"/></symbol><symbol id="ticktok" viewBox="0 0 10.5 12" style="enable-background:new 0 0 10.5 12" xmlns="http://www.w3.org/2000/svg"><path d="M10.5 4.9c-1 0-2-.3-2.9-.9v4.2c0 .8-.2 1.5-.7 2.2-.4.6-1.1 1.1-1.8 1.4-.7.3-1.5.3-2.3.1-.8-.2-1.4-.6-1.9-1.2S.1 9.4 0 8.6c-.1-.8.1-1.6.4-2.2.4-.7.9-1.2 1.6-1.6.7-.4 1.5-.5 2.2-.4v2.1c-.2-.1-.6-.1-.9 0-.4.1-.7.4-.9.7-.2.3-.3.7-.3 1 0 .4.1.7.3 1 .2.3.5.5.9.6.3.2.7.2 1.1.1.3-.2.6-.4.8-.7.2-.3.3-.7.3-1V0h2.1v.5c.1.4.2.7.4 1.1.2.3.5.6.8.8.5.3 1 .5 1.6.5v2z"/></symbol><symbol id="twitter" viewBox="0 0 14.8 12" style="enable-background:new 0 0 14.8 12" xmlns="http://www.w3.org/2000/svg"><path d="M14.8 1.4c-.6.2-1.1.4-1.7.5.6-.4 1.1-1 1.3-1.7-.6.4-1.2.6-1.9.7-.6-.6-1.4-1-2.2-1-1.7 0-3 1.4-3 3 0 .2 0 .5.1.7-2.6 0-4.9-1.2-6.4-3-.2.4-.4.9-.4 1.5 0 1.1.5 2 1.3 2.5-.5 0-1-.1-1.4-.4 0 1.5 1 2.7 2.4 3-.1.1-.4.1-.7.1-.2 0-.4 0-.6-.1.4 1.3 1.6 2.2 2.9 2.2-1.1.8-2.4 1.3-3.8 1.3H0c1.4.8 3 1.3 4.6 1.3 5.6 0 8.6-4.6 8.6-8.6V3c.6-.4 1.2-1 1.6-1.6z"/></symbol><symbol id="vk" viewBox="0 0 16 9.6" style="enable-background:new 0 0 16 9.6" xmlns="http://www.w3.org/2000/svg"><path d="M15.6.7c.1-.4 0-.6-.5-.6h-1.7c-.4 0-.6.2-.8.5 0 0-.9 2.2-2.2 3.6-.4.3-.6.5-.8.5-.1 0-.3-.1-.3-.5V.6c.1-.4-.1-.6-.5-.6H6.1c-.3 0-.4.2-.4.4 0 .4.6.5.7 1.7v2.6c0 .6-.1.7-.3.7-.6 0-2-2.2-2.9-4.7C3 .2 2.8 0 2.4 0H.6C.1 0 0 .2 0 .5c0 .5.6 2.8 2.8 5.9 1.4 2.1 3.5 3.2 5.3 3.2 1.1 0 1.3-.3 1.3-.7V7.3c0-.5.1-.6.5-.6.3 0 .7.1 1.7 1.1C12.8 9 13 9.5 13.7 9.5h1.7c.5 0 .7-.3.6-.8-.2-.5-.7-1.2-1.5-2.1-.4-.5-1-1-1.2-1.3-.3-.3-.2-.5 0-.8 0 .2 2.1-2.8 2.3-3.8" style="fill-rule:evenodd;clip-rule:evenodd"/></symbol><symbol id="youtube" viewBox="0 0 13.8 11" style="enable-background:new 0 0 13.8 11" xmlns="http://www.w3.org/2000/svg"><path d="M7 0c.4 0 1.3 0 2.3.1h.3c1 0 2 .1 2.5.3.6.2 1.2.7 1.3 1.4.3 1.1.3 3.2.3 3.7v.2c0 .5 0 2.6-.3 3.7-.2.7-.7 1.2-1.3 1.4-.5.1-1.5.2-2.5.3h-.3c-1 0-1.9 0-2.3.1h-.4c-.8 0-4 0-5.1-.3-.5-.4-1-.9-1.2-1.6C0 8.2 0 6.1 0 5.6v-.2c0-.5 0-2.6.3-3.7C.5 1 1 .5 1.6.3 2.7 0 5.9 0 6.7 0H7zM5.5 3.1v4.8l4.1-2.4-4.1-2.4z"/></symbol></svg>