<svg width="137" height="136" viewBox="0 0 137 136" fill="none" xmlns="http://www.w3.org/2000/svg">
<path d="M68.5006 124.667C37.2036 124.667 11.834 99.2972 11.834 68.0002C11.834 36.7032 37.2036 11.3335 68.5006 11.3335C99.7976 11.3335 125.167 36.7032 125.167 68.0002C125.167 99.2972 99.7976 124.667 68.5006 124.667ZM68.5006 113.333C80.5238 113.333 92.0545 108.557 100.556 100.056C109.058 91.554 113.834 80.0233 113.834 68.0002C113.834 55.977 109.058 44.4463 100.556 35.9447C92.0545 27.443 80.5238 22.6668 68.5006 22.6668C56.4775 22.6668 44.9468 27.443 36.4451 35.9447C27.9435 44.4463 23.1673 55.977 23.1673 68.0002C23.1673 80.0233 27.9435 91.554 36.4451 100.056C44.9468 108.557 56.4775 113.333 68.5006 113.333ZM40.1673 68.0002H51.5006C51.5006 72.5088 53.2917 76.8329 56.4798 80.021C59.6679 83.2091 63.992 85.0002 68.5006 85.0002C73.0093 85.0002 77.3333 83.2091 80.5215 80.021C83.7096 76.8329 85.5006 72.5088 85.5006 68.0002H96.834C96.834 75.5146 93.8489 82.7213 88.5353 88.0348C83.2218 93.3484 76.0151 96.3335 68.5006 96.3335C60.9862 96.3335 53.7795 93.3484 48.466 88.0348C43.1524 82.7213 40.1673 75.5146 40.1673 68.0002Z" fill="white" stroke="#33C15B" stroke-width="4.5"/>
</svg>
