<svg width="41" height="40" viewBox="0 0 41 40" fill="none" xmlns="http://www.w3.org/2000/svg">
<path d="M35.5 30.0002H10.5C10.058 30.0002 9.63405 30.1758 9.32149 30.4883C9.00893 30.8009 8.83333 31.2248 8.83333 31.6668C8.83333 32.1089 9.00893 32.5328 9.32149 32.8453C9.63405 33.1579 10.058 33.3335 10.5 33.3335H35.5V36.6668H10.5C9.17392 36.6668 7.90215 36.14 6.96447 35.2024C6.02678 34.2647 5.5 32.9929 5.5 31.6668V6.66683C5.5 5.78277 5.85119 4.93493 6.47631 4.30981C7.10143 3.68469 7.94928 3.3335 8.83333 3.3335H35.5V30.0002ZM8.83333 26.7502C9.10333 26.6952 9.38167 26.6668 9.66667 26.6668H32.1667V6.66683H8.83333V26.7502ZM27.1667 15.0002H13.8333V11.6668H27.1667V15.0002Z" fill="white"/>
</svg>
