<svg width="16" height="17" viewBox="0 0 16 17" fill="none" xmlns="http://www.w3.org/2000/svg">
<path id="Vector" d="M3.336 12.802C3.50128 12.3335 3.80779 11.9279 4.21328 11.641C4.61877 11.3541 5.10327 11.2 5.6 11.2C6.09673 11.2 6.58123 11.3541 6.98672 11.641C7.39221 11.9279 7.69872 12.3335 7.864 12.802H16V14.402H7.864C7.69872 14.8704 7.39221 15.276 6.98672 15.5629C6.58123 15.8498 6.09673 16.0039 5.6 16.0039C5.10327 16.0039 4.61877 15.8498 4.21328 15.5629C3.80779 15.276 3.50128 14.8704 3.336 14.402H0V12.802H3.336ZM8.136 7.20196C8.30128 6.73353 8.60779 6.32791 9.01328 6.04099C9.41877 5.75408 9.90327 5.6 10.4 5.6C10.8967 5.6 11.3812 5.75408 11.7867 6.04099C12.1922 6.32791 12.4987 6.73353 12.664 7.20196H16V8.80196H12.664C12.4987 9.27039 12.1922 9.67601 11.7867 9.96293C11.3812 10.2498 10.8967 10.4039 10.4 10.4039C9.90327 10.4039 9.41877 10.2498 9.01328 9.96293C8.60779 9.67601 8.30128 9.27039 8.136 8.80196H0V7.20196H8.136ZM3.336 1.60196C3.50128 1.13353 3.80779 0.727907 4.21328 0.440992C4.61877 0.154077 5.10327 0 5.6 0C6.09673 0 6.58123 0.154077 6.98672 0.440992C7.39221 0.727907 7.69872 1.13353 7.864 1.60196H16V3.20196H7.864C7.69872 3.67039 7.39221 4.07601 6.98672 4.36293C6.58123 4.64984 6.09673 4.80392 5.6 4.80392C5.10327 4.80392 4.61877 4.64984 4.21328 4.36293C3.80779 4.07601 3.50128 3.67039 3.336 3.20196H0V1.60196H3.336ZM5.6 3.20196C5.81217 3.20196 6.01566 3.11767 6.16569 2.96765C6.31571 2.81762 6.4 2.61413 6.4 2.40196C6.4 2.18979 6.31571 1.9863 6.16569 1.83628C6.01566 1.68625 5.81217 1.60196 5.6 1.60196C5.38783 1.60196 5.18434 1.68625 5.03431 1.83628C4.88429 1.9863 4.8 2.18979 4.8 2.40196C4.8 2.61413 4.88429 2.81762 5.03431 2.96765C5.18434 3.11767 5.38783 3.20196 5.6 3.20196ZM10.4 8.80196C10.6122 8.80196 10.8157 8.71768 10.9657 8.56765C11.1157 8.41762 11.2 8.21413 11.2 8.00196C11.2 7.78979 11.1157 7.5863 10.9657 7.43628C10.8157 7.28625 10.6122 7.20196 10.4 7.20196C10.1878 7.20196 9.98434 7.28625 9.83431 7.43628C9.68429 7.5863 9.6 7.78979 9.6 8.00196C9.6 8.21413 9.68429 8.41762 9.83431 8.56765C9.98434 8.71768 10.1878 8.80196 10.4 8.80196ZM5.6 14.402C5.81217 14.402 6.01566 14.3177 6.16569 14.1676C6.31571 14.0176 6.4 13.8141 6.4 13.602C6.4 13.3898 6.31571 13.1863 6.16569 13.0363C6.01566 12.8862 5.81217 12.802 5.6 12.802C5.38783 12.802 5.18434 12.8862 5.03431 13.0363C4.88429 13.1863 4.8 13.3898 4.8 13.602C4.8 13.8141 4.88429 14.0176 5.03431 14.1676C5.18434 14.3177 5.38783 14.402 5.6 14.402Z" fill="black"/>
</svg>
