<svg width="146" height="111" viewBox="0 0 146 111" fill="none" xmlns="http://www.w3.org/2000/svg">
<path d="M53.4031 87.0796L55.0185 95.66C57.1221 97.1787 59.046 99.3646 60.5391 102.045L40.1229 109.537L26.6445 71.2228L56.4999 64L53.4031 87.0796Z" fill="black"/>
<path d="M92.1549 76.5543L53.8282 86.8238L33.8089 90.1241L27.0697 70.9669C20.1303 47.5736 31.0561 37.3713 53.6216 36.0208C63.3794 35.4363 83.4313 34.0015 86.1163 34L92.1549 76.5543Z" fill="black"/>
<path fill-rule="evenodd" clip-rule="evenodd" d="M105.765 65.0787L75.0602 102.348C75.1872 104.939 74.682 107.806 73.5241 110.647L55.8516 100.332L56.6491 98.9668L75.5971 62.5542L105.765 65.0787Z" fill="black"/>
<path fill-rule="evenodd" clip-rule="evenodd" d="M37.6486 84.9707L16.1012 93.1175C14.7908 95.5227 12.7574 97.8313 10.1502 99.7549L0 80.9245L27.3299 65.5332L37.6486 84.9707Z" fill="black"/>
<path fill-rule="evenodd" clip-rule="evenodd" d="M117.942 38.319L122.758 44.4878C111.083 61.2913 97.7295 72.9205 96.6093 72.2452C72.471 57.7088 67.8971 36.7858 75.7756 25.6081C81.7694 17.102 91.7208 17.4948 100.997 17.7648C106.619 17.9284 112.482 18.3412 116.501 18.6211C119.49 18.8293 131.588 19.3612 131.265 14.5619C131.052 11.3942 128.691 10.8936 126.303 9.11916L131.705 0C137.21 3.22985 143.015 5.89423 144.896 12.6315C146.928 19.9125 142.679 25.7637 136.829 29.5529C130.637 33.564 124.003 36.1076 117.942 38.319Z" fill="black"/>
<path fill-rule="evenodd" clip-rule="evenodd" d="M93.5267 62.5563L114.534 75.3846C116.525 74.6953 120.785 74.5001 123.286 75.655C120.315 81.7124 116.027 88.9427 113.109 94.8321L75.959 79.1231L92.162 64.4197C92.2844 64.3083 93.4062 62.4831 93.5267 62.5563Z" fill="black"/>
<path fill-rule="evenodd" clip-rule="evenodd" d="M108.359 27.594C117.691 34.8418 108.561 46.5995 99.2276 39.3521C89.8957 32.1043 99.0273 20.3466 108.359 27.594Z" fill="white"/>
<path fill-rule="evenodd" clip-rule="evenodd" d="M110.05 28.3564C113.183 28.8029 115.361 31.7037 114.916 34.8367C114.469 37.9697 111.569 40.1491 108.434 39.703C105.301 39.2565 103.123 36.3553 103.57 33.2227C104.014 30.0881 106.917 27.9099 110.05 28.3564Z" fill="black"/>
</svg>
