<svg width="12" height="12" viewBox="0 0 12 12" fill="none" xmlns="http://www.w3.org/2000/svg">
<g clip-path="url(#clip0_4647_24548)">
<path d="M11.25 4.92101C10.2179 4.92348 9.21105 4.6016 8.37175 4.00085V8.19065C8.37145 8.96665 8.13425 9.7241 7.6919 10.3616C7.2495 10.9992 6.623 11.4865 5.89615 11.7584C5.16935 12.0303 4.37681 12.0738 3.62457 11.8832C2.87233 11.6925 2.19623 11.2768 1.68667 10.6915C1.1771 10.1062 0.858371 9.37935 0.773086 8.60805C0.687801 7.83675 0.840036 7.0578 1.20942 6.37535C1.57881 5.6929 2.14775 5.1395 2.84017 4.78911C3.53259 4.43873 4.31548 4.30808 5.08415 4.41463V6.52195C4.7324 6.41135 4.35469 6.41465 4.00495 6.5315C3.65521 6.6483 3.35133 6.87265 3.1367 7.1725C2.92208 7.4723 2.80768 7.8323 2.80985 8.201C2.81202 8.56975 2.93065 8.92835 3.1488 9.2256C3.36694 9.5229 3.67344 9.74365 4.02453 9.85635C4.37563 9.96905 4.75335 9.96795 5.10375 9.85315C5.4542 9.7384 5.7594 9.5158 5.97575 9.21725C6.19215 8.9187 6.30865 8.5594 6.30865 8.19065V0H8.37175C8.3703 0.174217 8.3849 0.348197 8.41535 0.51974C8.48705 0.902685 8.6361 1.26698 8.8534 1.59034C9.07075 1.9137 9.35175 2.18933 9.67925 2.40037C10.1452 2.70844 10.6915 2.87264 11.25 2.87252V4.92101Z" fill="black"/>
</g>
<defs>
<clipPath id="clip0_4647_24548">
<rect width="12" height="12" fill="white"/>
</clipPath>
</defs>
</svg>
