<svg width="20" height="20" viewBox="0 0 20 20" fill="none" xmlns="http://www.w3.org/2000/svg">
<g clip-path="url(#clip0_2915_96310)">
<path fill-rule="evenodd" clip-rule="evenodd" d="M13.1129 4C13.2423 4 13.4514 4.01066 13.5733 4.02399C13.6953 4.03998 13.9142 4.08262 14.0586 4.11994C14.2029 4.15725 14.4095 4.22655 14.718 4.34915L6.75479 12.8755L5.01283 11.0018L7.76263 8.05659C9.60662 6.08427 10.5946 5.0448 10.7613 4.90354C10.8982 4.78893 11.1172 4.62901 11.2466 4.54639C11.376 4.46376 11.5949 4.34915 11.7318 4.29052C11.8687 4.23455 12.0976 4.15725 12.242 4.11994C12.3863 4.08262 12.5879 4.03998 12.6899 4.02665C12.7919 4.01599 12.9835 4.00267 13.1129 4ZM7.79996 4.00267C7.9219 4 8.12596 4.01066 8.24789 4.02399C8.36983 4.03998 8.55647 4.07196 8.6585 4.09329C8.76053 4.11727 8.94717 4.17058 9.0691 4.21589C9.19104 4.25853 9.38266 4.33849 9.49215 4.39446C9.60165 4.44777 9.7858 4.55971 9.90276 4.64234C10.0197 4.7223 10.1417 4.81558 10.1765 4.84757C10.2113 4.88222 10.2561 4.91953 10.276 4.93019C10.3059 4.94885 10.1242 5.15674 8.63361 6.75592L7.50383 5.54321C6.8817 4.87688 6.37653 4.3225 6.384 4.31184C6.38897 4.29851 6.52087 4.24787 6.67266 4.19723C6.82695 4.14659 7.04843 4.08795 7.16539 4.06663C7.28235 4.04264 7.42171 4.02132 7.47645 4.01599C7.5312 4.01066 7.67802 4.00533 7.79996 4.00267ZM6.10777 4.45044C6.12021 4.45044 6.65525 5.01015 8.45942 6.94249L6.74234 8.78155L5.58518 7.54219C4.94812 6.85987 4.42802 6.28416 4.42802 6.26284C4.42802 6.24152 4.48028 6.12691 4.54498 6.00964C4.61217 5.89236 4.73909 5.69247 4.82868 5.56986C4.92075 5.44459 5.0825 5.25269 5.18951 5.14341C5.299 5.03147 5.44832 4.89288 5.52297 4.83157C5.59763 4.77027 5.7544 4.65833 5.87136 4.58637C5.98583 4.51174 6.09284 4.45044 6.10777 4.45044ZM14.9743 4.49575C14.9967 4.50374 15.1461 4.60236 15.3028 4.71164C15.5044 4.85556 15.6686 4.99949 15.8627 5.20738C16.0145 5.37263 16.2062 5.60984 16.2883 5.74311C16.3729 5.87637 16.4899 6.07627 16.6591 6.40144L8.67094 14.9517L7.80494 14.0242C7.32963 13.5151 6.93894 13.0887 6.93396 13.0727C6.93147 13.0594 8.73067 11.119 10.9305 8.7629C13.857 5.63383 14.9445 4.48509 14.9743 4.49575ZM4.29862 6.55603C4.30858 6.55603 4.8237 7.09975 6.56815 8.96812L4.85605 10.8072L4.72913 10.6206C4.66194 10.5167 4.55743 10.3434 4.4977 10.2341C4.43798 10.1249 4.35088 9.93296 4.30111 9.80769C4.25134 9.68243 4.17917 9.47187 4.14433 9.34127C4.10949 9.208 4.06221 8.99211 4.0423 8.86151C4.01742 8.71492 4 8.45905 4 8.20851C4 7.98196 4.01244 7.69944 4.02737 7.58217C4.04479 7.46489 4.08461 7.25433 4.11945 7.11574C4.1518 6.97714 4.20406 6.79324 4.23143 6.70795C4.26129 6.62532 4.29116 6.55603 4.29862 6.55603ZM16.7561 6.68929C16.7686 6.68929 16.8059 6.79324 16.8382 6.92117C16.8706 7.05177 16.9204 7.29431 16.9477 7.46223C16.9851 7.68078 17 7.88868 17 8.18186C17 8.43773 16.9851 8.69093 16.9627 8.84819C16.9403 8.98678 16.893 9.20534 16.8582 9.33327C16.8233 9.46387 16.7511 9.67976 16.6964 9.81303C16.6417 9.94896 16.5446 10.1542 16.4774 10.2688C16.4127 10.3834 16.2883 10.5833 16.1987 10.7086C16.1066 10.8392 15.599 11.4149 15.0291 12.0332C14.4766 12.6329 13.2772 13.9283 12.3664 14.9064C11.4282 15.9166 10.6767 16.7028 10.6294 16.7242C10.5871 16.7455 10.5224 16.7641 10.4876 16.7641C10.4527 16.7641 10.3955 16.7481 10.3557 16.7268C10.3183 16.7055 9.96248 16.3404 8.84514 15.1383L12.7894 10.9138C14.9594 8.58965 16.7437 6.68929 16.7561 6.68929Z" fill="black"/>
</g>
<defs>
<clipPath id="clip0_2915_96310">
<rect width="20" height="20" fill="white"/>
</clipPath>
</defs>
</svg>
