<svg width="12" height="12" viewBox="0 0 12 12" fill="none" xmlns="http://www.w3.org/2000/svg">
<path fill-rule="evenodd" clip-rule="evenodd" d="M8.71095 1C8.82044 1 8.99732 1.0089 9.1005 1.02002C9.20368 1.03337 9.38897 1.06897 9.5111 1.10012C9.63323 1.13127 9.808 1.18912 10.0691 1.29147L3.33097 8.40908L1.85701 6.84494L4.18377 4.38637C5.74407 2.73991 6.58002 1.87218 6.72109 1.75426C6.83691 1.65858 7.02221 1.52509 7.1317 1.45611C7.24119 1.38714 7.42649 1.29147 7.5423 1.24252C7.65812 1.1958 7.85184 1.13127 7.97397 1.10012C8.09609 1.06897 8.26665 1.03337 8.35299 1.02225C8.43932 1.01335 8.60145 1.00222 8.71095 1ZM4.21535 1.00222C4.31853 1 4.49119 1.0089 4.59437 1.02002C4.69755 1.03337 4.85547 1.06007 4.94181 1.07787C5.02814 1.0979 5.18606 1.1424 5.28924 1.18022C5.39242 1.21582 5.55456 1.28257 5.6472 1.32929C5.73985 1.37379 5.89567 1.46724 5.99464 1.53621C6.09361 1.60296 6.19678 1.68083 6.22626 1.70753C6.25574 1.73646 6.29364 1.76761 6.31049 1.77651C6.33576 1.79208 6.18204 1.96563 4.92075 3.3006L3.96478 2.28824C3.43836 1.73201 3.01091 1.26922 3.01723 1.26032C3.02144 1.24919 3.13304 1.20692 3.26149 1.16465C3.39204 1.12237 3.57944 1.07342 3.67841 1.05562C3.77737 1.0356 3.89529 1.0178 3.94162 1.01335C3.98794 1.0089 4.11217 1.00445 4.21535 1.00222ZM2.7835 1.37602C2.79403 1.37602 3.24675 1.84326 4.77335 3.45634L3.32044 4.99156L2.34131 3.95695C1.80226 3.38737 1.36217 2.90678 1.36217 2.88898C1.36217 2.87118 1.40639 2.77551 1.46114 2.67761C1.51799 2.57971 1.62538 2.41284 1.70119 2.31049C1.7791 2.20592 1.91596 2.04573 2.00651 1.9545C2.09916 1.86105 2.2255 1.74536 2.28867 1.69418C2.35184 1.64301 2.48449 1.54956 2.58346 1.48949C2.68032 1.42719 2.77087 1.37602 2.7835 1.37602ZM10.286 1.41384C10.3049 1.42052 10.4313 1.50284 10.5639 1.59406C10.7345 1.71421 10.8735 1.83436 11.0377 2.0079C11.1662 2.14585 11.3283 2.34387 11.3978 2.45512C11.4694 2.56636 11.5683 2.73323 11.7115 3.00468L4.95234 10.1423L4.21956 9.36803C3.81738 8.94306 3.48679 8.58707 3.48258 8.57372C3.48047 8.5626 5.00287 6.94283 6.86428 4.97598C9.34054 2.36389 10.2607 1.40494 10.286 1.41384ZM1.25268 3.13372C1.2611 3.13372 1.69698 3.58761 3.17305 5.1473L1.72435 6.68252L1.61696 6.52677C1.56011 6.44 1.47167 6.29537 1.42113 6.20415C1.3706 6.11293 1.2969 5.95273 1.25479 5.84816C1.21267 5.74359 1.15161 5.56782 1.12213 5.45879C1.09265 5.34755 1.05264 5.16733 1.0358 5.0583C1.01474 4.93593 1 4.72234 1 4.51319C1 4.32407 1.01053 4.08823 1.02316 3.99033C1.0379 3.89243 1.07159 3.71666 1.10107 3.60096C1.12845 3.48527 1.17266 3.33174 1.19583 3.26055C1.22109 3.19157 1.24636 3.13372 1.25268 3.13372ZM11.7936 3.24497C11.8042 3.24497 11.8358 3.33174 11.8631 3.43854C11.8905 3.54756 11.9326 3.75003 11.9558 3.89021C11.9874 4.07265 12 4.2462 12 4.49094C12 4.70454 11.9874 4.91591 11.9684 5.04718C11.9495 5.16288 11.9095 5.34532 11.88 5.45212C11.8505 5.56114 11.7894 5.74136 11.7431 5.85261C11.6968 5.96608 11.6147 6.1374 11.5578 6.23308C11.5031 6.32875 11.3978 6.49562 11.322 6.60019C11.2441 6.70921 10.8145 7.1898 10.3323 7.70599C9.86485 8.2066 8.84992 9.28793 8.07925 10.1045C7.28541 10.9477 6.6495 11.6041 6.60949 11.6219C6.5737 11.6397 6.51895 11.6553 6.48947 11.6553C6.45999 11.6553 6.41156 11.6419 6.37787 11.6241C6.34629 11.6063 6.04518 11.3015 5.09973 10.2981L8.43721 6.77151C10.2734 4.83136 11.7831 3.24497 11.7936 3.24497Z" fill="black"/>
</svg>
