<svg width="20" height="20" viewBox="0 0 20 20" fill="none" xmlns="http://www.w3.org/2000/svg">
<g clip-path="url(#clip0_2915_96312)">
<path d="M6.44436 5.22272C6.44413 5.72033 6.14224 6.16811 5.68103 6.35493C5.21982 6.54175 4.6914 6.43029 4.34494 6.07311C3.99847 5.71593 3.90316 5.18435 4.10393 4.72905C4.3047 4.27374 4.76147 3.98562 5.25886 4.00055C5.91948 4.02038 6.44466 4.5618 6.44436 5.22272ZM6.48102 7.34928H4.0367V15H6.48102V7.34928ZM10.3431 7.34928H7.91095V15H10.3186V10.9852C10.3186 8.74864 13.2335 8.54087 13.2335 10.9852V15H15.6473V10.1541C15.6473 6.38377 11.333 6.52432 10.3186 8.37588L10.3431 7.34928Z" fill="black"/>
</g>
<defs>
<clipPath id="clip0_2915_96312">
<rect width="20" height="20" fill="white"/>
</clipPath>
</defs>
</svg>
