<svg width="58" height="58" viewBox="0 0 58 58" fill="none" xmlns="http://www.w3.org/2000/svg">
<g clip-path="url(#clip0_3580_142587)">
<path d="M57.9997 0H24.0117V58H57.9997V0Z" fill="#FFF145"/>
<rect x="15.5469" y="28.4609" width="10.4565" height="28.7899" stroke="black" stroke-width="1.5"/>
<path d="M20.7754 14.3371L22.0235 17.0064L22.1991 17.3821L22.6107 17.4331L25.5351 17.7952L23.3821 19.8071L23.0791 20.0903L23.1578 20.4975L23.717 23.3906L21.1383 21.9647L20.7754 21.764L20.4124 21.9647L17.8337 23.3906L18.393 20.4975L18.4717 20.0903L18.1687 19.8071L16.0157 17.7952L18.94 17.4331L19.3516 17.3821L19.5273 17.0064L20.7754 14.3371Z" stroke="black" stroke-width="1.5"/>
<rect x="32.2871" y="22.8789" width="10.4565" height="34.3696" stroke="black" stroke-width="1.5"/>
<path d="M37.5156 8.75508L38.7637 11.4244L38.9394 11.8001L39.3509 11.8511L42.2753 12.2132L40.1223 14.2251L39.8193 14.5083L39.898 14.9154L40.4573 17.8086L37.8785 16.3827L37.5156 16.182L37.1527 16.3827L34.5739 17.8086L35.1332 14.9154L35.2119 14.5083L34.9089 14.2251L32.7559 12.2132L35.6803 11.8511L36.0918 11.8001L36.2675 11.4244L37.5156 8.75508Z" stroke="black" stroke-width="1.5"/>
<rect x="49.0254" y="18.8945" width="10.4565" height="38.3551" stroke="black" stroke-width="1.5"/>
<path d="M54.2539 4.77071L55.502 7.44004L55.6776 7.81572L56.0892 7.86669L59.0136 8.22884L56.8606 10.2407L56.5576 10.5239L56.6363 10.9311L57.1955 13.8242L54.6168 12.3983L54.2539 12.1976L53.891 12.3983L51.3122 13.8242L51.8715 10.9311L51.9502 10.5239L51.6472 10.2407L49.4942 8.22884L52.4185 7.86669L52.8301 7.81572L53.0058 7.44004L54.2539 4.77071Z" stroke="black" stroke-width="1.5"/>
</g>
<defs>
<clipPath id="clip0_3580_142587">
<rect width="58" height="58" fill="white"/>
</clipPath>
</defs>
</svg>
