<svg width="58" height="58" viewBox="0 0 58 58" fill="none" xmlns="http://www.w3.org/2000/svg">
<g clip-path="url(#clip0_3575_146466)">
<path d="M57.9997 0H24.0117V58H57.9997V0Z" fill="#FFF145"/>
<path d="M43.8771 54.25C29.3781 54.2394 17.75 43.5459 17.75 30.5C17.75 17.4476 29.3897 6.75 43.8986 6.75C49.4435 6.75 54.5794 8.31714 58.8044 10.9848C63.0441 13.6617 65.7398 18.3874 66.263 23.0477C66.7845 27.6935 65.1472 32.1584 60.8694 34.5136C58.1749 35.9971 54.9845 36.8278 51.6693 36.8278C46.0406 36.8278 41.3554 40.9993 41.3554 46.2889C41.3554 48.6922 42.332 50.8783 43.9234 52.5372C43.9678 52.5835 44.0433 52.7096 44.0893 52.9443C44.1332 53.1682 44.1375 53.4294 44.0993 53.6744C44.0601 53.9262 43.9849 54.1067 43.9157 54.2035C43.8983 54.2279 43.8854 54.2421 43.8771 54.25ZM43.8715 54.2549C43.8674 54.2583 43.8654 54.2591 43.8655 54.2586C43.8655 54.2582 43.8676 54.2566 43.8715 54.2549Z" stroke="black" stroke-width="1.5"/>
<circle cx="31.1524" cy="26.6895" r="3.60556" stroke="black" stroke-width="1.5"/>
<circle cx="42.0431" cy="19.0665" r="3.60556" stroke="black" stroke-width="1.5"/>
<circle cx="52.9337" cy="26.6895" r="3.60556" stroke="black" stroke-width="1.5"/>
</g>
<defs>
<clipPath id="clip0_3575_146466">
<rect width="58" height="58" fill="white"/>
</clipPath>
</defs>
</svg>
