<svg width="58" height="58" viewBox="0 0 58 58" fill="none" xmlns="http://www.w3.org/2000/svg">
<g clip-path="url(#clip0_3543_143758)">
<path d="M57.9997 0H24.0117V58H57.9997V0Z" fill="#FFF145"/>
<path d="M43.4333 13.7285L61 55.6619L19.0666 37.5285" stroke="black" stroke-width="1.5" stroke-linecap="round" stroke-linejoin="round"/>
<path d="M18.6617 37.5986C18.6616 37.5987 18.6625 37.5994 18.6648 37.6006C18.6628 37.5991 18.6617 37.5985 18.6617 37.5986ZM18.6603 37.4074C18.6549 37.5224 18.6679 37.581 18.6764 37.6057C18.7008 37.615 18.7589 37.6298 18.8741 37.6281C19.0888 37.6249 19.4079 37.5631 19.8421 37.4083C20.7056 37.1006 21.8577 36.4868 23.2291 35.5897C25.9613 33.8025 29.435 30.9763 32.9908 27.5324C36.5465 24.0885 39.4822 20.7069 41.3558 18.0331C42.2963 16.6911 42.9465 15.5592 43.2817 14.7059C43.4502 14.2769 43.5223 13.96 43.5323 13.7455C43.5377 13.6304 43.5247 13.5718 43.5163 13.5471C43.4918 13.5379 43.4337 13.5231 43.3185 13.5248C43.1038 13.5279 42.7847 13.5898 42.3506 13.7445C41.487 14.0523 40.3349 14.666 38.9635 15.5631C36.2313 17.3503 32.7576 20.1765 29.2018 23.6204C25.6461 27.0644 22.7104 30.446 20.8368 33.1197C19.8963 34.4617 19.2461 35.5937 18.9109 36.4469C18.7424 36.8759 18.6703 37.1929 18.6603 37.4074ZM43.5096 13.5322C43.5096 13.5323 43.5101 13.5334 43.5115 13.5354C43.5104 13.5331 43.5097 13.5321 43.5096 13.5322ZM43.5309 13.5542C43.531 13.5542 43.5301 13.5534 43.5278 13.5522C43.5298 13.5537 43.5309 13.5543 43.5309 13.5542ZM18.6811 37.6175C18.6822 37.6197 18.6829 37.6207 18.683 37.6206C18.6831 37.6205 18.6825 37.6194 18.6811 37.6175Z" stroke="black" stroke-width="1.5"/>
<path d="M52.4999 36.395L51.3287 38.0682C49.4786 40.7112 47.1919 43.0198 44.5666 44.895V44.895M54.7666 41.495V41.495C52.9148 44.8283 50.1666 47.5765 46.8333 49.4284V49.4284" stroke="black" stroke-width="1.5" stroke-linecap="round" stroke-linejoin="round"/>
<path d="M50.2334 30.1619L46.7139 29.9105C44.429 29.7473 42.5648 31.7131 42.8489 33.9861L42.8903 34.3172C43.1649 36.5136 41.2874 38.3757 39.0933 38.0832V38.0832C36.9561 37.7982 35.1029 39.5621 35.2819 41.7108L35.5001 44.3286" stroke="black" stroke-width="1.5" stroke-linecap="round" stroke-linejoin="round"/>
<path d="M34.9336 14.295L32.1003 4.66162M27.0003 13.7283L21.3336 5.79495M25.8669 22.2283L14.5336 10.895M17.9336 22.2283L8.30025 14.295M18.5003 30.7283L9.43359 27.895" stroke="black" stroke-width="1.5" stroke-linecap="round" stroke-linejoin="round"/>
</g>
<defs>
<clipPath id="clip0_3543_143758">
<rect width="58" height="58" fill="white"/>
</clipPath>
</defs>
</svg>
