<svg width="58" height="58" viewBox="0 0 58 58" fill="none" xmlns="http://www.w3.org/2000/svg">
<g id="Icon 58*58" clip-path="url(#clip0_3575_144011)">
<g id="BG">
<path id="Vector" d="M57.9997 0H24.0117V58H57.9997V0Z" fill="#FFF145"/>
</g>
<g id="Group 1948753778">
<g id="Rectangle 277">
<mask id="path-2-inside-1_3575_144011" fill="white">
<rect width="12.866" height="13.9381" rx="1" transform="matrix(-1 0 0 1 64.2461 41.062)"/>
</mask>
<rect width="12.866" height="13.9381" rx="1" transform="matrix(-1 0 0 1 64.2461 41.062)" stroke="black" stroke-width="3" mask="url(#path-2-inside-1_3575_144011)"/>
</g>
<g id="Rectangle 278">
<mask id="path-3-inside-2_3575_144011" fill="white">
<rect width="12.866" height="24.6598" rx="1" transform="matrix(-1 0 0 1 46.0195 30.3398)"/>
</mask>
<rect width="12.866" height="24.6598" rx="1" transform="matrix(-1 0 0 1 46.0195 30.3398)" stroke="black" stroke-width="3" mask="url(#path-3-inside-2_3575_144011)"/>
</g>
<g id="Rectangle 279">
<mask id="path-4-inside-3_3575_144011" fill="white">
<rect width="12.866" height="33.2371" rx="1" transform="matrix(-1 0 0 1 27.7949 21.7629)"/>
</mask>
<rect width="12.866" height="33.2371" rx="1" transform="matrix(-1 0 0 1 27.7949 21.7629)" stroke="black" stroke-width="3" mask="url(#path-4-inside-3_3575_144011)"/>
</g>
<path id="Vector 72" d="M68 54.4639H10.1031M66.9278 33.0206L10.1031 4.60825M10.1031 4.60825L12.2474 11.0412M10.1031 4.60825L16.5361 3" stroke="black" stroke-width="1.5" stroke-linecap="round"/>
<path id="Vector 73" d="M63.1758 51.7837L57.2789 46.4229" stroke="black" stroke-width="1.5" stroke-linecap="round"/>
<path id="Vector 74" d="M44.9492 42.1343L39.0523 36.7734" stroke="black" stroke-width="1.5" stroke-linecap="round"/>
<path id="Vector 75" d="M26.7227 32.4846L20.8257 27.1238" stroke="black" stroke-width="1.5" stroke-linecap="round"/>
<path id="Vector 76" d="M26.7227 45.3503L20.8257 39.9895" stroke="black" stroke-width="1.5" stroke-linecap="round"/>
<path id="Vector 77" d="M25.1133 54.464L20.8246 50.7114" stroke="black" stroke-width="1.5" stroke-linecap="round"/>
<path id="Vector 78" d="M44.9492 52.8559L39.0523 47.4951" stroke="black" stroke-width="1.5" stroke-linecap="round"/>
</g>
</g>
<defs>
<clipPath id="clip0_3575_144011">
<rect width="58" height="58" fill="white"/>
</clipPath>
</defs>
</svg>
