<svg width="58" height="58" viewBox="0 0 58 58" fill="none" xmlns="http://www.w3.org/2000/svg">
<g clip-path="url(#clip0_3577_169773)">
<path d="M57.9997 0H24.0117V58H57.9997V0Z" fill="#FFF145"/>
<path d="M20.75 24C20.75 18.3391 25.3391 13.75 31 13.75H49C54.6609 13.75 59.25 18.3391 59.25 24V40.25H20.75V24Z" stroke="black" stroke-width="1.5"/>
<path d="M20.75 24C20.75 18.3391 25.3391 13.75 31 13.75C36.6609 13.75 41.25 18.3391 41.25 24V40.25H20.75V24Z" stroke="black" stroke-width="1.5"/>
<circle cx="40" cy="10" r="3.25" stroke="black" stroke-width="1.5"/>
<path d="M12.1245 51.3389L20.5 40.5H38L29.6002 50.7665C29.2203 51.2307 28.6521 51.5 28.0522 51.5H12.2036C12.1206 51.5 12.0737 51.4046 12.1245 51.3389Z" stroke="black" stroke-width="1.5"/>
</g>
<defs>
<clipPath id="clip0_3577_169773">
<rect width="58" height="58" fill="white"/>
</clipPath>
</defs>
</svg>
