<svg width="26" height="27" viewBox="0 0 26 27" fill="none" xmlns="http://www.w3.org/2000/svg">
<path d="M18.229 0.949219H3.47266V26.9492H18.229V0.949219Z" fill="#FFF145"/>
<path d="M9.11426 6.97656H0V26.0833H11.2843V9.14318C11.2843 7.94669 10.3128 6.97656 9.11426 6.97656ZM9.11426 7.84319C9.8322 7.84319 10.4163 8.42639 10.4163 9.14318V25.2167H0.868127V7.84319H9.11426Z" fill="black"/>
<path d="M11.2843 25.2172H10.4161C10.4161 24.2615 9.63745 23.484 8.68007 23.484H0V22.6172H8.68007C10.1161 22.6172 11.2843 23.7836 11.2843 25.2172Z" fill="black"/>
<path d="M11.284 23.2843V9.14318C11.284 8.42639 11.8681 7.84319 12.5861 7.84319H18.2281V6.97656H12.5861C11.3875 6.97656 10.416 7.94669 10.416 9.14318V25.2163C10.4162 24.4492 10.7527 23.7605 11.284 23.2843Z" fill="black"/>
<path d="M18.2281 25.2168H10.416V26.0834L18.2281 26.0834V25.2168Z" fill="black"/>
<path d="M13.0211 23.484H18.2293V22.6172H13.0211C12.3539 22.6172 11.7463 22.8713 11.2852 23.2848V25.2172C11.2852 24.2615 12.0639 23.484 13.0211 23.484Z" fill="black"/>
</svg>
