<svg width="36" height="36" viewBox="0 0 36 36" fill="none" xmlns="http://www.w3.org/2000/svg">
<g clip-path="url(#clip0_3168_122519)">
<path d="M17.6639 5.40039C24.6736 5.40039 30.5054 10.4441 31.7281 17.1004C30.5054 23.7567 24.6736 28.8004 17.6639 28.8004C10.654 28.8004 4.82227 23.7567 3.59961 17.1004C4.82227 10.4441 10.654 5.40039 17.6639 5.40039ZM17.6639 26.2004C23.1702 26.2004 27.8819 22.368 29.0745 17.1004C27.8819 11.8328 23.1702 8.00039 17.6639 8.00039C12.1575 8.00039 7.44576 11.8328 6.25309 17.1004C7.44576 22.368 12.1575 26.2004 17.6639 26.2004ZM17.6639 22.9504C14.433 22.9504 11.8138 20.3313 11.8138 17.1004C11.8138 13.8695 14.433 11.2504 17.6639 11.2504C20.8946 11.2504 23.5139 13.8695 23.5139 17.1004C23.5139 20.3313 20.8946 22.9504 17.6639 22.9504ZM17.6639 20.3504C19.4588 20.3504 20.9139 18.8953 20.9139 17.1004C20.9139 15.3055 19.4588 13.8504 17.6639 13.8504C15.869 13.8504 14.4138 15.3055 14.4138 17.1004C14.4138 18.8953 15.869 20.3504 17.6639 20.3504Z" fill="white"/>
</g>
<defs>
<clipPath id="clip0_3168_122519">
<rect width="36" height="36" fill="white"/>
</clipPath>
</defs>
</svg>
