<svg width="20" height="20" viewBox="0 0 20 20" fill="none" xmlns="http://www.w3.org/2000/svg">
<path d="M10.0013 18.3327C5.3988 18.3327 1.66797 14.6018 1.66797 9.99935C1.66797 5.39685 5.3988 1.66602 10.0013 1.66602C14.6038 1.66602 18.3346 5.39685 18.3346 9.99935C18.3346 14.6018 14.6038 18.3327 10.0013 18.3327ZM10.0013 16.666C11.7694 16.666 13.4651 15.9636 14.7153 14.7134C15.9656 13.4632 16.668 11.7675 16.668 9.99935C16.668 8.23124 15.9656 6.53555 14.7153 5.2853C13.4651 4.03506 11.7694 3.33268 10.0013 3.33268C8.23319 3.33268 6.5375 4.03506 5.28726 5.2853C4.03701 6.53555 3.33464 8.23124 3.33464 9.99935C3.33464 11.7675 4.03701 13.4632 5.28726 14.7134C6.5375 15.9636 8.23319 16.666 10.0013 16.666ZM10.8346 9.99935H14.168V11.666H9.16797V5.83268H10.8346V9.99935Z" fill="black"/>
</svg>
