<svg width="58" height="59" viewBox="0 0 58 59" fill="none" xmlns="http://www.w3.org/2000/svg">
<g clip-path="url(#clip0_6317_49983)">
<path d="M57.9997 0.207031H24.0117V58.207H57.9997V0.207031Z" fill="#FFF145"/>
<rect x="12.75" y="10.957" width="59.5" height="44.5" stroke="black" stroke-width="1.5"/>
<path d="M63.25 24.4311V42.7368C60.3293 43.0818 58.0166 45.4156 57.6745 48.334H26.3255C25.9834 45.4156 23.6707 43.0818 20.75 42.7368V24.4311C23.6707 24.0862 25.9834 21.7523 26.3255 18.834H57.6745C58.0166 21.7523 60.3293 24.0862 63.25 24.4311Z" stroke="black" stroke-width="1.5"/>
<path d="M52.498 58.0841V42.334H62.1231V58.0841L57.3106 54.5841L52.498 58.0841Z" fill="#FFF145" stroke="black" stroke-width="1.5"/>
<path d="M56.762 31.1017C56.8482 31.0411 56.9632 31.0411 57.0495 31.1017L58.4216 32.066C58.7086 32.2677 59.0496 32.3785 59.4003 32.384L61.2529 32.4132L61.8531 34.1661C61.9667 34.4979 62.1775 34.788 62.458 34.9986L63.7991 36.0056C63.8834 36.0689 63.9189 36.1783 63.8879 36.279L63.3948 37.882C63.2917 38.2173 63.2917 38.5758 63.3948 38.9111L63.8879 40.5141C63.9189 40.6148 63.8834 40.7242 63.7991 40.7875L62.458 41.7945C62.1775 42.0051 61.9667 42.2952 61.8531 42.627L61.3098 44.2137C61.2757 44.3134 61.1826 44.381 61.0772 44.3827L59.4003 44.4091C59.0496 44.4146 58.7086 44.5254 58.4216 44.7271L57.0495 45.6914C56.9632 45.752 56.8482 45.752 56.762 45.6914L55.3898 44.7271C55.1028 44.5254 54.7618 44.4146 54.4111 44.4091L52.7342 44.3827C52.6288 44.381 52.5358 44.3134 52.5016 44.2137L51.9583 42.627C51.8447 42.2952 51.634 42.0051 51.3535 41.7945L50.0123 40.7875L49.5643 41.3841L50.0123 40.7875C49.928 40.7242 49.8925 40.6148 49.9235 40.5141L50.4166 38.9111C50.5197 38.5758 50.5197 38.2173 50.4166 37.882L49.9235 36.279C49.8925 36.1783 49.928 36.0689 50.0123 36.0056L51.3535 34.9986C51.634 34.788 51.8447 34.4979 51.9583 34.1661L52.5016 32.5794C52.5358 32.4796 52.6288 32.412 52.7342 32.4104L54.4111 32.384C54.7618 32.3785 55.1028 32.2677 55.3898 32.066L56.762 31.1017Z" fill="#FFF145" stroke="black" stroke-width="1.5"/>
</g>
<defs>
<clipPath id="clip0_6317_49983">
<rect width="58" height="58" fill="white" transform="translate(0 0.207031)"/>
</clipPath>
</defs>
</svg>
