<svg width="33" height="32" viewBox="0 0 33 32" fill="none" xmlns="http://www.w3.org/2000/svg">
<path d="M29.3064 3.05687V1.38584H27.3594V0.5H32.6068V2.91087C32.6068 3.43515 32.4644 3.84731 32.195 4.13055C31.6031 4.75296 30.3404 4.74305 29.7335 4.14254C29.464 3.87545 29.3064 3.4986 29.3064 3.05687ZM31.8543 2.81368V1.38584H30.059V2.81368C30.059 3.0993 30.134 3.32511 30.2713 3.47736C30.5838 3.82398 31.33 3.8237 31.642 3.47736C31.7796 3.32511 31.8543 3.0993 31.8543 2.81368Z" fill="#010102"/>
<path d="M27.2305 7.45307C27.2305 6.69493 27.5017 6.05875 27.98 5.61192C28.4534 5.1699 29.1278 4.91602 29.941 4.91602C30.7587 4.91602 31.4559 5.1732 31.9488 5.61909C32.4411 6.06413 32.7282 6.6958 32.7282 7.44625C32.7282 8.21337 32.4432 8.84804 31.947 9.29243C31.4496 9.73811 30.742 9.98992 29.8994 9.98992C29.1224 9.98992 28.4489 9.73481 27.9722 9.2826C27.5068 8.84087 27.2305 8.21308 27.2305 7.45307ZM31.9757 7.44625C31.9757 6.82924 31.6527 6.26274 31.0782 6.02171C30.5928 5.818 29.8854 5.76625 29.304 5.87722C28.471 6.03635 27.9829 6.57858 27.9829 7.45307C27.9829 8.28213 28.434 8.83993 29.2283 9.01399C29.7871 9.13667 30.4806 9.10106 30.9818 8.92133C31.6219 8.69192 31.9757 8.12486 31.9757 7.44625Z" fill="#010102"/>
<path d="M27.2305 12.8941C27.2305 11.3131 28.4702 10.4883 29.9488 10.4883C31.4383 10.4883 32.7282 11.3036 32.7282 12.9219C32.7282 14.0967 32.093 14.8862 30.9576 15.0923L30.8503 15.1118V14.2399L30.9235 14.2247C31.6518 14.0737 31.9757 13.5933 31.9757 12.8453C31.9757 11.724 30.9062 11.3744 29.9557 11.3744C28.9645 11.3744 27.9829 11.7809 27.9829 12.9009C27.9829 13.7886 28.4995 14.1921 29.3094 14.3213L29.3865 14.3335V15.2092L29.2846 15.1976C27.9868 15.0472 27.2305 14.2402 27.2305 12.8941Z" fill="#010102"/>
<path d="M27.3516 30.6125H29.6614V28.1295H27.3516V27.2422H32.6068V28.1295H30.4151V30.6125H32.6068V31.5H27.3516V30.6125Z" fill="#010102"/>
<path d="M27.2305 24.1893C27.2305 25.7703 28.4702 26.5952 29.9488 26.5952C31.4383 26.5952 32.7282 25.7798 32.7282 24.1615C32.7282 22.9867 32.093 22.1113 30.9576 21.9055L30.8503 21.886V22.7579L30.9235 22.7732C31.6518 22.9239 31.9757 23.4616 31.9757 24.2093C31.9757 25.1524 31.2196 25.5597 30.4139 25.6656V23.4661H29.6602V25.6826C28.7782 25.609 27.9829 25.1907 27.9829 24.1824C27.9829 23.2947 28.4995 22.8626 29.3094 22.7337L29.3865 22.7214V21.8457L29.2846 21.8573C27.9868 22.0078 27.2305 22.8432 27.2305 24.1893Z" fill="#010102"/>
<path d="M31.1929 20.2255L27.3477 18.8688V18.0547L31.1977 16.6841H27.3477V15.8164H32.6103V16.9436L28.3522 18.4678L32.6103 19.9656V21.0932H27.3477V20.2255H31.1929Z" fill="#010102"/>
<path fill-rule="evenodd" clip-rule="evenodd" d="M10.2095 18.0266L8.58931 18.0265L7.71065 27.9997C8.33062 28.9517 8.77328 30.148 8.96228 31.4784H0V0.5C4.24305 0.503589 8.32137 0.510482 12.8109 0.518234C20.5338 0.534385 25.0634 5.51856 21.6195 12.8485L18.7264 19.0054L16.5037 23.8831C15.5272 26.0258 17.8325 26.3652 18.1504 24.8665L18.5692 22.316H22.8116V24.9431C22.8116 28.7564 20.7548 31.4784 16.7444 31.4784C14.6533 31.4784 12.7831 30.4825 11.5847 28.9416C10.2266 27.1955 10.2095 25.7605 10.2095 23.7106V18.0266Z" fill="#010102"/>
<path fill-rule="evenodd" clip-rule="evenodd" d="M17.6732 12.6881C17.6732 17.8635 10.6406 17.8635 10.6406 12.6881C10.6406 7.51281 17.6732 7.51281 17.6732 12.6881Z" fill="white"/>
<path fill-rule="evenodd" clip-rule="evenodd" d="M18.348 11.5607C18.348 12.9469 17.2243 14.0706 15.8381 14.0706C14.4521 14.0706 13.3281 12.9469 13.3281 11.5607C13.3281 10.1744 14.4521 9.05078 15.8381 9.05078C17.2243 9.05078 18.348 10.1744 18.348 11.5607Z" fill="#010102"/>
</svg>
