<svg width="20" height="20" viewBox="0 0 20 20" fill="none" xmlns="http://www.w3.org/2000/svg">
<g clip-path="url(#clip0_2608_78129)">
<path d="M9.81348 3C13.7078 3 16.9477 5.80205 17.6269 9.5C16.9477 13.1979 13.7078 16 9.81348 16C5.91913 16 2.67926 13.1979 2 9.5C2.67926 5.80205 5.91913 3 9.81348 3ZM9.81348 14.5556C12.8725 14.5556 15.4901 12.4264 16.1527 9.5C15.4901 6.57358 12.8725 4.44444 9.81348 4.44444C6.75436 4.44444 4.13675 6.57358 3.47416 9.5C4.13675 12.4264 6.75436 14.5556 9.81348 14.5556ZM9.81348 12.75C8.01852 12.75 6.56345 11.2949 6.56345 9.5C6.56345 7.70508 8.01852 6.25 9.81348 6.25C11.6083 6.25 13.0635 7.70508 13.0635 9.5C13.0635 11.2949 11.6083 12.75 9.81348 12.75ZM9.81348 11.3056C10.8106 11.3056 11.619 10.4972 11.619 9.5C11.619 8.50283 10.8106 7.69444 9.81348 7.69444C8.81631 7.69444 8.00789 8.50283 8.00789 9.5C8.00789 10.4972 8.81631 11.3056 9.81348 11.3056Z" fill="#808080"/>
</g>
<defs>
<clipPath id="clip0_2608_78129">
<rect width="20" height="20" fill="white"/>
</clipPath>
</defs>
</svg>
