<svg width="20" height="20" viewBox="0 0 20 20" fill="none" xmlns="http://www.w3.org/2000/svg">
<g clip-path="url(#clip0_3210_176769)">
<path d="M4.75208 15.3987C4.93798 14.8718 5.28272 14.4156 5.73878 14.0929C6.19484 13.7702 6.73977 13.5969 7.29846 13.5969C7.85714 13.5969 8.40207 13.7702 8.85813 14.0929C9.3142 14.4156 9.65894 14.8718 9.84483 15.3987H18.9956V17.1982H9.84483C9.65894 17.7251 9.3142 18.1813 8.85813 18.504C8.40207 18.8267 7.85714 19 7.29846 19C6.73977 19 6.19484 18.8267 5.73878 18.504C5.28272 18.1813 4.93798 17.7251 4.75208 17.1982H1V15.3987H4.75208ZM10.1508 9.10022C10.3367 8.57337 10.6814 8.11715 11.1375 7.79445C11.5935 7.47175 12.1384 7.29846 12.6971 7.29846C13.2558 7.29846 13.8007 7.47175 14.2568 7.79445C14.7129 8.11715 15.0576 8.57337 15.2435 9.10022H18.9956V10.8998H15.2435C15.0576 11.4266 14.7129 11.8828 14.2568 12.2055C13.8007 12.5283 13.2558 12.7015 12.6971 12.7015C12.1384 12.7015 11.5935 12.5283 11.1375 12.2055C10.6814 11.8828 10.3367 11.4266 10.1508 10.8998H1V9.10022H10.1508ZM4.75208 2.80176C4.93798 2.27491 5.28272 1.8187 5.73878 1.49599C6.19484 1.17329 6.73977 1 7.29846 1C7.85714 1 8.40207 1.17329 8.85813 1.49599C9.3142 1.8187 9.65894 2.27491 9.84483 2.80176H18.9956V4.60132H9.84483C9.65894 5.12817 9.3142 5.58439 8.85813 5.90709C8.40207 6.22979 7.85714 6.40309 7.29846 6.40309C6.73977 6.40309 6.19484 6.22979 5.73878 5.90709C5.28272 5.58439 4.93798 5.12817 4.75208 4.60132H1V2.80176H4.75208ZM7.29846 4.60132C7.53709 4.60132 7.76595 4.50652 7.9347 4.33778C8.10344 4.16904 8.19824 3.94018 8.19824 3.70154C8.19824 3.46291 8.10344 3.23404 7.9347 3.0653C7.76595 2.89656 7.53709 2.80176 7.29846 2.80176C7.05982 2.80176 6.83096 2.89656 6.66222 3.0653C6.49347 3.23404 6.39868 3.46291 6.39868 3.70154C6.39868 3.94018 6.49347 4.16904 6.66222 4.33778C6.83096 4.50652 7.05982 4.60132 7.29846 4.60132ZM12.6971 10.8998C12.9358 10.8998 13.1646 10.805 13.3334 10.6362C13.5021 10.4675 13.5969 10.2386 13.5969 10C13.5969 9.76136 13.5021 9.5325 13.3334 9.36376C13.1646 9.19502 12.9358 9.10022 12.6971 9.10022C12.4585 9.10022 12.2296 9.19502 12.0609 9.36376C11.8922 9.5325 11.7974 9.76136 11.7974 10C11.7974 10.2386 11.8922 10.4675 12.0609 10.6362C12.2296 10.805 12.4585 10.8998 12.6971 10.8998ZM7.29846 17.1982C7.53709 17.1982 7.76595 17.1034 7.9347 16.9347C8.10344 16.766 8.19824 16.5371 8.19824 16.2985C8.19824 16.0598 8.10344 15.831 7.9347 15.6622C7.76595 15.4935 7.53709 15.3987 7.29846 15.3987C7.05982 15.3987 6.83096 15.4935 6.66222 15.6622C6.49347 15.831 6.39868 16.0598 6.39868 16.2985C6.39868 16.5371 6.49347 16.766 6.66222 16.9347C6.83096 17.1034 7.05982 17.1982 7.29846 17.1982Z" fill="black"/>
</g>
<defs>
<clipPath id="clip0_3210_176769">
<rect width="20" height="20" fill="white"/>
</clipPath>
</defs>
</svg>
