<svg width="25" height="22" viewBox="0 0 25 22" fill="none" xmlns="http://www.w3.org/2000/svg">
<path d="M5.336 17.802C5.50128 17.3335 5.80779 16.9279 6.21328 16.641C6.61877 16.3541 7.10327 16.2 7.6 16.2C8.09673 16.2 8.58123 16.3541 8.98672 16.641C9.39221 16.9279 9.69872 17.3335 9.864 17.802H18V19.402H9.864C9.69872 19.8704 9.39221 20.276 8.98672 20.5629C8.58123 20.8498 8.09673 21.0039 7.6 21.0039C7.10327 21.0039 6.61877 20.8498 6.21328 20.5629C5.80779 20.276 5.50128 19.8704 5.336 19.402H2V17.802H5.336ZM10.136 12.202C10.3013 11.7335 10.6078 11.3279 11.0133 11.041C11.4188 10.7541 11.9033 10.6 12.4 10.6C12.8967 10.6 13.3812 10.7541 13.7867 11.041C14.1922 11.3279 14.4987 11.7335 14.664 12.202H18V13.802H14.664C14.4987 14.2704 14.1922 14.676 13.7867 14.9629C13.3812 15.2498 12.8967 15.4039 12.4 15.4039C11.9033 15.4039 11.4188 15.2498 11.0133 14.9629C10.6078 14.676 10.3013 14.2704 10.136 13.802H2V12.202H10.136ZM5.336 6.60196C5.50128 6.13353 5.80779 5.72791 6.21328 5.44099C6.61877 5.15408 7.10327 5 7.6 5C8.09673 5 8.58123 5.15408 8.98672 5.44099C9.39221 5.72791 9.69872 6.13353 9.864 6.60196H18V8.20196H9.864C9.69872 8.67039 9.39221 9.07601 8.98672 9.36293C8.58123 9.64984 8.09673 9.80392 7.6 9.80392C7.10327 9.80392 6.61877 9.64984 6.21328 9.36293C5.80779 9.07601 5.50128 8.67039 5.336 8.20196H2V6.60196H5.336ZM7.6 8.20196C7.81217 8.20196 8.01566 8.11767 8.16569 7.96765C8.31571 7.81762 8.4 7.61413 8.4 7.40196C8.4 7.18979 8.31571 6.9863 8.16569 6.83628C8.01566 6.68625 7.81217 6.60196 7.6 6.60196C7.38783 6.60196 7.18434 6.68625 7.03431 6.83628C6.88429 6.9863 6.8 7.18979 6.8 7.40196C6.8 7.61413 6.88429 7.81762 7.03431 7.96765C7.18434 8.11767 7.38783 8.20196 7.6 8.20196ZM12.4 13.802C12.6122 13.802 12.8157 13.7177 12.9657 13.5676C13.1157 13.4176 13.2 13.2141 13.2 13.002C13.2 12.7898 13.1157 12.5863 12.9657 12.4363C12.8157 12.2862 12.6122 12.202 12.4 12.202C12.1878 12.202 11.9843 12.2862 11.8343 12.4363C11.6843 12.5863 11.6 12.7898 11.6 13.002C11.6 13.2141 11.6843 13.4176 11.8343 13.5676C11.9843 13.7177 12.1878 13.802 12.4 13.802ZM7.6 19.402C7.81217 19.402 8.01566 19.3177 8.16569 19.1676C8.31571 19.0176 8.4 18.8141 8.4 18.602C8.4 18.3898 8.31571 18.1863 8.16569 18.0363C8.01566 17.8862 7.81217 17.802 7.6 17.802C7.38783 17.802 7.18434 17.8862 7.03431 18.0363C6.88429 18.1863 6.8 18.3898 6.8 18.602C6.8 18.8141 6.88429 19.0176 7.03431 19.1676C7.18434 19.3177 7.38783 19.402 7.6 19.402Z" fill="black"/>
<rect x="11" width="14" height="14" rx="7" fill="#FFF145"/>
<path d="M15.5403 10V5.792H14.3723V5.024H15.3003C15.4603 5.024 15.5403 4.94133 15.5403 4.776V4.4H16.3803V10H15.5403ZM19.522 10.08C19.17 10.08 18.8553 10.0133 18.578 9.88C18.3007 9.74133 18.0767 9.54933 17.906 9.304C17.7407 9.05867 17.642 8.77867 17.61 8.464H18.45C18.498 8.70933 18.618 8.90933 18.81 9.064C19.0073 9.21333 19.2447 9.288 19.522 9.288C19.842 9.288 20.1087 9.18133 20.322 8.968C20.5353 8.75467 20.642 8.488 20.642 8.168C20.642 7.83733 20.5407 7.568 20.338 7.36C20.1353 7.152 19.8713 7.048 19.546 7.048C19.3327 7.048 19.1433 7.08533 18.978 7.16C18.818 7.23467 18.6873 7.33867 18.586 7.472H17.714L18.034 4.4H21.162V5.184H18.754L18.602 6.576H18.642C18.8927 6.37867 19.226 6.28 19.642 6.28C19.978 6.28 20.2847 6.36267 20.562 6.528C20.8447 6.688 21.0687 6.912 21.234 7.2C21.3993 7.488 21.482 7.81067 21.482 8.168C21.482 8.53067 21.3993 8.85867 21.234 9.152C21.0687 9.44 20.8367 9.66667 20.538 9.832C20.2393 9.99733 19.9007 10.08 19.522 10.08Z" fill="black"/>
</svg>
