<svg width="15" height="12" viewBox="0 0 15 12" fill="none" xmlns="http://www.w3.org/2000/svg">
<path d="M7.70122 7.9939H6.31098C5.1707 7.99347 4.05199 8.30472 3.07579 8.89402C2.09959 9.48332 1.30304 10.3282 0.772245 11.3374C0.757325 11.1501 0.749905 10.9623 0.750001 10.7744C0.750001 6.93523 3.86206 3.82317 7.70122 3.82317V0L15 5.90854L7.70122 11.8171V7.9939ZM6.31098 6.60366H9.09146V8.90312L12.7902 5.90854L9.09146 2.91395V5.21341H7.70122C6.902 5.21252 6.11203 5.38429 5.38534 5.71698C4.65866 6.04966 4.01243 6.53541 3.49087 7.14099C4.38849 6.78524 5.34543 6.60291 6.31098 6.60366Z" fill="black"/>
</svg>
