<svg width="18" height="18" viewBox="0 0 18 18" fill="none" xmlns="http://www.w3.org/2000/svg">
<path d="M9.00136 2.27731C10.0271 1.35912 11.3655 0.868665 12.7416 0.906733C14.1177 0.944801 15.427 1.5085 16.4004 2.48199C17.3729 3.45439 17.9367 4.76197 17.9761 6.13668C18.0154 7.5114 17.5275 8.84912 16.6122 9.87561L8.99957 17.4991L1.38869 9.87561C0.472348 8.84858 -0.01606 7.50972 0.0237388 6.1339C0.0635376 4.75808 0.628523 3.44969 1.6027 2.47734C2.57688 1.505 3.88634 0.94249 5.26223 0.90529C6.63813 0.86809 7.97607 1.35902 9.00136 2.27731ZM15.1292 3.75047C14.4807 3.10243 13.6087 2.72714 12.6923 2.7016C11.7758 2.67606 10.8843 3.0022 10.2007 3.61311L9.00226 4.68858L7.80291 3.61401C7.11888 3.00237 6.2266 2.67586 5.30935 2.70158C4.3921 2.72729 3.51952 3.10326 2.87083 3.75226C2.22829 4.39476 1.85322 5.25697 1.82124 6.16506C1.78925 7.07316 2.10273 7.95962 2.69847 8.64574L9.00046 14.9576L15.3025 8.64663C15.8989 7.96024 16.2127 7.07315 16.1805 6.16441C16.1483 5.25568 15.7726 4.39298 15.1292 3.75047Z" fill="black"/>
</svg>
