<svg width="20" height="20" viewBox="0 0 20 20" fill="none" xmlns="http://www.w3.org/2000/svg">
<g clip-path="url(#clip0_2655_81422)">
<path d="M17.7661 5.42104C17.2132 5.66566 16.6267 5.82633 16.0262 5.89772C16.6589 5.51902 17.1322 4.92327 17.3582 4.22145C16.7637 4.57464 16.1131 4.82322 15.4346 4.95639C14.8618 4.34533 14.0613 3.99905 13.2237 4C11.551 4 10.1943 5.35625 10.1943 7.02974C10.1943 7.26715 10.2215 7.49739 10.2725 7.71954C7.75367 7.59274 5.52227 6.38737 4.02766 4.55421C3.75855 5.01655 3.61713 5.5421 3.61784 6.07705C3.61784 7.12808 4.15284 8.05576 4.96553 8.59888C4.48445 8.58367 4.01397 8.45374 3.59332 8.21983C3.59285 8.23256 3.59285 8.24528 3.59285 8.25732C3.59285 9.72559 4.63716 10.9504 6.02349 11.2285C5.7633 11.2989 5.49493 11.3344 5.22538 11.3342C5.02962 11.3342 4.83964 11.3162 4.65498 11.2808C5.04073 12.4841 6.15886 13.3602 7.48502 13.3842C6.41186 14.2265 5.08664 14.6834 3.72244 14.6815C3.48099 14.6817 3.23975 14.6674 3 14.6389C4.38497 15.5292 5.99707 16.0017 7.64353 16C13.2164 16 16.2634 11.3838 16.2634 7.38054C16.2634 7.24957 16.2602 7.11813 16.2544 6.98855C16.8475 6.56006 17.3594 6.02924 17.7661 5.42104Z" fill="black"/>
</g>
<defs>
<clipPath id="clip0_2655_81422">
<rect width="20" height="20" fill="white"/>
</clipPath>
</defs>
</svg>
