<svg width="58" height="58" viewBox="0 0 58 58" fill="none" xmlns="http://www.w3.org/2000/svg">
<g clip-path="url(#clip0_3580_142486)">
<path d="M57.9997 0H24.0117V58H57.9997V0Z" fill="#FFF145"/>
<rect x="30.75" y="5.75" width="20.5" height="24.5" stroke="black" stroke-width="1.5"/>
<rect x="17.75" y="23.75" width="7.5" height="7.5" rx="3.75" stroke="black" stroke-width="1.5"/>
<rect x="56.75" y="23.75" width="7.5" height="7.5" rx="3.75" stroke="black" stroke-width="1.5"/>
<rect x="26.75" y="49.75" width="7.5" height="7.5" rx="3.75" stroke="black" stroke-width="1.5"/>
<rect x="46.75" y="49.75" width="7.5" height="7.5" rx="3.75" stroke="black" stroke-width="1.5"/>
<path d="M61 31V31C61 34.866 57.866 38 54 38V38" stroke="black" stroke-width="1.5"/>
<path d="M21 30V30C21 33.866 24.134 37 28 37V37" stroke="black" stroke-width="1.5"/>
<path d="M41 39V45" stroke="black" stroke-width="1.5"/>
<rect x="27.75" y="33.75" width="26.5" height="6.5" stroke="black" stroke-width="1.5"/>
<path d="M51 51V44H31V51" stroke="black" stroke-width="1.5"/>
<path d="M41 29V34" stroke="black" stroke-width="1.5"/>
</g>
<defs>
<clipPath id="clip0_3580_142486">
<rect width="58" height="58" fill="white"/>
</clipPath>
</defs>
</svg>
