<svg width="31" height="40" viewBox="0 0 31 40" fill="none" xmlns="http://www.w3.org/2000/svg">
<path d="M15.5 10.834C14.837 10.834 14.2011 11.0974 13.7322 11.5662C13.2634 12.0351 13 12.6709 13 13.334V20.0007C13 20.6637 13.2634 21.2996 13.7322 21.7684C14.2011 22.2373 14.837 22.5007 15.5 22.5007C16.163 22.5007 16.7989 22.2373 17.2678 21.7684C17.7366 21.2996 18 20.6637 18 20.0007V13.334C18 12.6709 17.7366 12.0351 17.2678 11.5662C16.7989 11.0974 16.163 10.834 15.5 10.834V10.834Z" stroke="black" stroke-width="1.5" stroke-linecap="round" stroke-linejoin="round"/>
<path d="M21.3327 18.334V20.0007C21.3327 21.5477 20.7181 23.0315 19.6241 24.1254C18.5302 25.2194 17.0464 25.834 15.4993 25.834C13.9523 25.834 12.4685 25.2194 11.3746 24.1254C10.2806 23.0315 9.66602 21.5477 9.66602 20.0007V18.334" stroke="black" stroke-width="1.5" stroke-linecap="round" stroke-linejoin="round"/>
<path d="M15.5 25.834V29.1673" stroke="black" stroke-width="1.5" stroke-linecap="round" stroke-linejoin="round"/>
<path d="M12.166 29.166H18.8327" stroke="black" stroke-width="1.5" stroke-linecap="round" stroke-linejoin="round"/>
</svg>
