<svg width="40" height="40" viewBox="0 0 40 40" fill="none" xmlns="http://www.w3.org/2000/svg">
<circle cx="20" cy="20" r="18" stroke="#F5F5F5" stroke-width="4"/>
<mask id="path-2-inside-1_5972_154174" fill="white">
<path d="M20 0C24.2236 5.03657e-08 28.3388 1.3371 31.7557 3.81966C35.1727 6.30222 37.716 9.80279 39.0211 13.8197C40.3263 17.8365 40.3263 22.1635 39.0211 26.1803C37.716 30.1972 35.1727 33.6978 31.7557 36.1803L29.4049 32.9448C32.1386 30.9587 34.1733 28.1581 35.2175 24.9445C36.2617 21.7308 36.2617 18.2692 35.2175 15.0555C34.1733 11.8419 32.1386 9.04134 29.4049 7.05521C26.6713 5.06909 23.379 3.99936 20 3.99936V0Z"/>
</mask>
<path d="M20 0C24.2236 5.03657e-08 28.3388 1.3371 31.7557 3.81966C35.1727 6.30222 37.716 9.80279 39.0211 13.8197C40.3263 17.8365 40.3263 22.1635 39.0211 26.1803C37.716 30.1972 35.1727 33.6978 31.7557 36.1803L29.4049 32.9448C32.1386 30.9587 34.1733 28.1581 35.2175 24.9445C36.2617 21.7308 36.2617 18.2692 35.2175 15.0555C34.1733 11.8419 32.1386 9.04134 29.4049 7.05521C26.6713 5.06909 23.379 3.99936 20 3.99936V0Z" stroke="#FFF145" stroke-width="8" mask="url(#path-2-inside-1_5972_154174)"/>
</svg>
