<svg width="59" height="58" viewBox="0 0 59 58" fill="none" xmlns="http://www.w3.org/2000/svg">
<g clip-path="url(#clip0_3543_145267)">
<path d="M58.2888 0H24.3008V58H58.2888V0Z" fill="#FFF145"/>
<path d="M52.4367 18.7535L45.0339 17.6784L41.7165 11.0742L38.4298 17.6784L31.1191 18.7535L36.4946 23.9753L35.2352 31.3474L41.8394 27.8764L48.4742 31.3474L47.092 23.9753L52.4367 18.7535ZM41.7165 26.1255L37.2625 28.5522L38.0305 23.361L34.1908 19.8285L39.3206 19.0913L41.5936 14.4531L43.8974 19.0913L49.0271 19.8285L45.4332 23.361L46.2933 28.46L41.7165 26.1255Z" fill="black"/>
<path d="M58.7631 42.4368L56.0907 41.7917L54.0941 51.0068L45.1555 36.9384C47.288 36.4588 49.3015 35.553 51.0751 34.2756C52.8487 32.9982 54.3457 31.3755 55.4764 29.5049L58.7631 34.2046V31.563L56.3058 28.092C57.4831 25.6337 58.0181 22.9172 57.8608 20.1961C57.7036 17.475 56.8592 14.8382 55.4066 12.5319C53.954 10.2256 51.9405 8.32513 49.5543 7.00798C47.1681 5.69084 44.4869 5 41.7613 5C39.0357 5 36.3545 5.69084 33.9683 7.00798C31.582 8.32513 29.5686 10.2256 28.116 12.5319C26.6633 14.8382 25.819 17.475 25.6618 20.1961C25.5045 22.9172 26.0395 25.6337 27.2168 28.092L14.5 45.9078L26.326 43.5733L28.7834 55L40.0872 37.1535C40.6266 37.235 41.1701 37.2863 41.7152 37.307C42.3012 37.2877 42.8857 37.2364 43.4661 37.1535L54.8006 55L57.258 43.5733L58.7631 43.8805V42.4368ZM29.4899 51.0068L27.4933 41.7917L18.0017 43.6654L28.0462 29.7199C29.1912 31.5845 30.7011 33.1985 32.4851 34.4653C34.2692 35.7321 36.2907 36.6255 38.4285 37.092L29.4899 51.0068ZM41.7767 35.6483C38.8853 35.654 36.0577 34.7987 33.6543 33.1914C31.2509 31.5842 29.3804 29.2977 28.2812 26.6234C27.1821 23.9491 26.9041 21.0081 27.4826 18.1753C28.0611 15.3424 29.47 12.7459 31.5297 10.7167C33.5894 8.68751 36.2066 7.3175 39.0477 6.78127C41.8889 6.24504 44.8254 6.56688 47.483 7.70576C50.1406 8.84465 52.399 10.749 53.9702 13.1761C55.5415 15.6033 56.3546 18.4433 56.3058 21.3342C56.3058 23.2488 55.9282 25.1446 55.1945 26.9131C54.4609 28.6816 53.3857 30.288 52.0304 31.6405C50.6752 32.9929 49.0665 34.0647 47.2965 34.7946C45.5264 35.5245 43.6298 35.8981 41.7152 35.8941L41.7767 35.6483Z" fill="black"/>
</g>
<defs>
<clipPath id="clip0_3543_145267">
<rect width="58" height="58" fill="white" transform="translate(0.5)"/>
</clipPath>
</defs>
</svg>
