<svg width="20" height="20" viewBox="0 0 20 20" fill="none" xmlns="http://www.w3.org/2000/svg">
<g clip-path="url(#clip0_4455_86226)">
<path d="M15.3592 14.1808L18.9283 17.7492L17.7492 18.9283L14.1808 15.3592C12.8531 16.4235 11.2017 17.0024 9.5 17C5.36 17 2 13.64 2 9.5C2 5.36 5.36 2 9.5 2C13.64 2 17 5.36 17 9.5C17.0024 11.2017 16.4235 12.8531 15.3592 14.1808ZM13.6875 13.5625C14.7451 12.4749 15.3357 11.017 15.3333 9.5C15.3333 6.27667 12.7225 3.66667 9.5 3.66667C6.27667 3.66667 3.66667 6.27667 3.66667 9.5C3.66667 12.7225 6.27667 15.3333 9.5 15.3333C11.017 15.3357 12.4749 14.7451 13.5625 13.6875L13.6875 13.5625Z" fill="black"/>
</g>
<defs>
<clipPath id="clip0_4455_86226">
<rect width="20" height="20" fill="white"/>
</clipPath>
</defs>
</svg>
