<svg width="16" height="16" viewBox="0 0 16 16" fill="none" xmlns="http://www.w3.org/2000/svg">
<g clip-path="url(#clip0_5615_36388)">
<path d="M0 7.68C0 4.0596 0 2.24942 1.12471 1.12471C2.24942 0 4.0596 0 7.68 0H8.32C11.9404 0 13.7506 0 14.8753 1.12471C16 2.24942 16 4.0596 16 7.68V8.32C16 11.9404 16 13.7506 14.8753 14.8753C13.7506 16 11.9404 16 8.32 16H7.68C4.0596 16 2.24942 16 1.12471 14.8753C0 13.7506 0 11.9404 0 8.32V7.68Z" fill="white"/>
<path d="M8.51252 11.5267C4.86585 11.5267 2.78589 9.0267 2.69922 4.8667H4.52589C4.58589 7.92003 5.93252 9.21337 6.99919 9.48003V4.8667H8.71925V7.50003C9.77259 7.3867 10.8791 6.1867 11.2525 4.8667H12.9725C12.6858 6.49337 11.4858 7.69337 10.6325 8.1867C11.4858 8.5867 12.8526 9.63337 13.3726 11.5267H11.4792C11.0725 10.26 10.0593 9.28003 8.71925 9.1467V11.5267H8.51252Z" fill="black"/>
</g>
<defs>
<clipPath id="clip0_5615_36388">
<rect width="16" height="16" fill="white"/>
</clipPath>
</defs>
</svg>
