<svg width="30" height="31" viewBox="0 0 30 31" fill="none" xmlns="http://www.w3.org/2000/svg">
<g clip-path="url(#clip0_3628_143862)">
<path d="M30.0019 0.5H12.4219V30.5H30.0019V0.5Z" fill="#FFF145"/>
<path d="M27.1632 8.50975C27.1008 8.26763 26.9904 8.04057 26.8383 7.84212C26.6862 7.64367 26.4957 7.47791 26.2782 7.35475C25.8421 7.10225 25.3251 7.02837 24.8358 7.14862C24.3464 7.26886 23.9226 7.57389 23.6532 7.99975C23.5279 8.2149 23.4467 8.45284 23.4143 8.6997C23.382 8.94656 23.3991 9.19739 23.4647 9.43756C23.5304 9.67772 23.6432 9.90241 23.7966 10.0985C23.95 10.2946 24.1409 10.4582 24.3582 10.5797C24.6515 10.7443 24.9818 10.832 25.3182 10.8347C25.6518 10.841 25.9815 10.7616 26.2756 10.604C26.5698 10.4464 26.8185 10.216 26.9982 9.93475C27.1202 9.72058 27.1978 9.48396 27.2261 9.23909C27.2545 8.99422 27.2331 8.74614 27.1632 8.50975ZM26.3232 9.55975C26.164 9.8219 25.9094 10.0121 25.6129 10.0905C25.3164 10.1688 25.001 10.1291 24.7332 9.97975C24.6011 9.90368 24.4854 9.80222 24.3927 9.68122C24.3 9.56022 24.2322 9.42208 24.1932 9.27475C24.1533 9.13164 24.1434 8.98185 24.164 8.83474C24.1847 8.68762 24.2354 8.54635 24.3132 8.41975C24.417 8.24588 24.5642 8.10195 24.7404 8.00204C24.9166 7.90213 25.1156 7.84965 25.3182 7.84975C25.5242 7.85295 25.7258 7.90982 25.9032 8.01475C26.0364 8.08565 26.1533 8.18368 26.2463 8.30253C26.3393 8.42137 26.4064 8.55839 26.4432 8.70475C26.507 8.97532 26.464 9.26007 26.3232 9.49975V9.55975Z" fill="black"/>
<path d="M17.5025 16.7161L17.1328 17.3687L22.5492 20.4368L22.9188 19.7843L17.5025 16.7161Z" fill="black"/>
<path d="M15.8047 19.64L21.2197 22.7L21.5797 22.04L16.1647 18.98L15.8047 19.64Z" fill="black"/>
<path d="M29.9966 21.2449L27.6716 29.0449L22.9316 27.2449L29.9966 15.3499V13.8799L21.6116 28.0099L10.8716 21.3649L20.9066 4.86486L25.7966 3.90486L29.9966 6.30486V5.44986L25.9166 3.10986L20.4416 4.20486L9.85156 21.6199L21.8666 29.0449L22.5416 27.9049L28.1516 30.0349L29.9966 23.8549V21.2449Z" fill="black"/>
</g>
<defs>
<clipPath id="clip0_3628_143862">
<rect width="30" height="30" fill="white" transform="translate(0 0.5)"/>
</clipPath>
</defs>
</svg>
