<svg width="30" height="31" viewBox="0 0 30 31" fill="none" xmlns="http://www.w3.org/2000/svg">
<g clip-path="url(#clip0_3628_143861)">
<path d="M30.0019 0.5H12.4219V30.5H30.0019V0.5Z" fill="#FFF145"/>
<path d="M35.5018 5.67236H17.7911V8.14363M9.14162 14.3218H17.7911V8.14363M9.14162 14.3218L12.4367 8.14363H17.7911M9.14162 14.3218L7.08223 17.205V23.795H10.6557M35.5018 23.795H32.3199M27.2643 10.203H37.1494M28.9118 14.3218H38.7969M31.3831 18.4406H37.1494M18.2494 23.795H24.7263" stroke="black" stroke-width="0.8"/>
<path d="M24.7796 23.7951C24.7796 25.8489 26.4446 27.5138 28.4984 27.5138C30.5522 27.5138 32.2172 25.8489 32.2172 23.7951C32.2172 21.7412 30.5522 20.0763 28.4984 20.0763C26.4446 20.0763 24.7796 21.7412 24.7796 23.7951Z" stroke="black" stroke-width="0.8"/>
<path d="M10.7796 23.7951C10.7796 25.8489 12.4446 27.5138 14.4984 27.5138C16.5522 27.5138 18.2172 25.8489 18.2172 23.7951C18.2172 21.7412 16.5522 20.0763 14.4984 20.0763C12.4446 20.0763 10.7796 21.7412 10.7796 23.7951Z" stroke="black" stroke-width="0.8"/>
</g>
<defs>
<clipPath id="clip0_3628_143861">
<rect width="30" height="30" fill="white" transform="translate(0 0.5)"/>
</clipPath>
</defs>
</svg>
