<svg width="20" height="20" viewBox="0 0 20 20" fill="none" xmlns="http://www.w3.org/2000/svg">
<g clip-path="url(#clip0_2758_95019)">
<path d="M10.0431 4C10.4103 4.00202 11.329 4.0109 12.3052 4.05L12.6513 4.0651C13.6342 4.11163 14.6162 4.19112 15.1032 4.32692C15.7529 4.50943 16.2635 5.04197 16.4361 5.717C16.7109 6.78894 16.7453 8.88111 16.7495 9.38742L16.7502 9.49233V9.49969C16.7502 9.49969 16.7502 9.50223 16.7502 9.50712L16.7495 9.61203C16.7453 10.1183 16.7109 12.2105 16.4361 13.2825C16.2611 13.96 15.7505 14.4925 15.1032 14.6725C14.6162 14.8083 13.6342 14.8878 12.6513 14.9343L12.3052 14.9494C11.329 14.9885 10.4103 14.9974 10.0431 14.9995L9.88192 15H9.87477C9.87477 15 9.87236 15 9.86762 15L9.7066 14.9995C8.9294 14.9952 5.67983 14.9601 4.64632 14.6725C3.99666 14.49 3.48603 13.9575 3.31343 13.2825C3.03864 12.2105 3.00429 10.1183 3 9.61203V9.38742C3.00429 8.88111 3.03864 6.78894 3.31343 5.717C3.48843 5.03946 3.99905 4.50694 4.64632 4.32692C5.67983 4.03935 8.9294 4.00428 9.7066 4H10.0431ZM8.4997 7.09333V11.9061L12.6249 9.49969L8.4997 7.09333Z" fill="black"/>
</g>
<defs>
<clipPath id="clip0_2758_95019">
<rect width="20" height="20" fill="white"/>
</clipPath>
</defs>
</svg>
