<svg width="16" height="16" viewBox="0 0 16 16" fill="none" xmlns="http://www.w3.org/2000/svg">
<path d="M15.1251 3.89224C15.4663 5.2226 15.4663 7.99979 15.4663 7.99979C15.4663 7.99979 15.4663 10.777 15.1251 12.1073C14.9355 12.8427 14.3808 13.4213 13.6783 13.6169C12.4024 13.9722 8.00072 13.9722 8.00072 13.9722C8.00072 13.9722 3.60126 13.9722 2.32316 13.6169C1.61766 13.4183 1.06372 12.8405 0.876332 12.1073C0.535156 10.777 0.535156 7.99979 0.535156 7.99979C0.535156 7.99979 0.535156 5.2226 0.876332 3.89224C1.06596 3.15688 1.62065 2.5783 2.32316 2.3827C3.60126 2.02734 8.00072 2.02734 8.00072 2.02734C8.00072 2.02734 12.4024 2.02734 13.6783 2.3827C14.3838 2.58129 14.9377 3.15912 15.1251 3.89224ZM6.5076 10.6127L10.9869 7.99979L6.5076 5.38685V10.6127Z" fill="white"/>
</svg>
