<svg width="58" height="58" viewBox="0 0 58 58" fill="none" xmlns="http://www.w3.org/2000/svg">
<g clip-path="url(#clip0_3543_143419)">
<path d="M57.9997 0H24.0117V58H57.9997V0Z" fill="#FFF145"/>
<path d="M42.8821 16.1946C42.2144 17.3511 40.838 18.0681 38.9852 18.166C37.1409 18.2634 34.9261 17.7318 32.8038 16.5066C30.6816 15.2813 29.1138 13.629 28.276 11.9831C27.4344 10.3296 27.3672 8.77909 28.0349 7.62253C28.7026 6.46597 30.079 5.74898 31.9318 5.6511C33.7761 5.55368 35.9909 6.08526 38.1132 7.31054C40.2354 8.53582 41.8032 10.1881 42.641 11.834C43.4826 13.4875 43.5498 15.038 42.8821 16.1946Z" stroke="black" stroke-width="1.5"/>
<path d="M58.7305 7.62666C59.3982 8.78322 59.331 10.3337 58.4894 11.9872C57.6516 13.6331 56.0838 15.2854 53.9616 16.5107C51.8393 17.736 49.6245 18.2676 47.7802 18.1701C45.9274 18.0723 44.551 17.3553 43.8833 16.1987C43.2155 15.0421 43.2828 13.4917 44.1244 11.8382C44.9622 10.1923 46.53 8.53995 48.6522 7.31467C50.7745 6.08939 52.9893 5.55781 54.8336 5.65523C56.6864 5.75311 58.0628 6.4701 58.7305 7.62666Z" stroke="black" stroke-width="1.5"/>
<path d="M28.7588 28.0267V15.2588H57.732V28.5177L28.7588 28.0267Z" fill="#FFF145"/>
<path d="M20.6273 28.1016H16.8984V15.0508H37.4069M20.6273 28.1016V57H37.4069M20.6273 28.1016H65.3731M65.3731 28.1016H69.1019V15.0508H48.5934M65.3731 28.1016V57H48.5934M37.4069 15.0508V57M37.4069 15.0508H48.5934M37.4069 57H48.5934M48.5934 15.0508V57" stroke="black" stroke-width="1.5"/>
</g>
<defs>
<clipPath id="clip0_3543_143419">
<rect width="58" height="58" fill="white"/>
</clipPath>
</defs>
</svg>
