<svg width="58" height="58" viewBox="0 0 58 58" fill="none" xmlns="http://www.w3.org/2000/svg">
<g clip-path="url(#clip0_3580_142623)">
<path d="M57.9997 0H24.0117V58H57.9997V0Z" fill="#FFF145"/>
<path d="M28.9579 39.8395H14.75V5.75H39.7895H64.8289V39.8395H50.621H50.2627L50.0376 40.1182L39.7895 52.8064L29.5413 40.1182L29.3162 39.8395H28.9579Z" stroke="black" stroke-width="1.5"/>
<path d="M48.3332 25.4046L39.469 34.2687L30.6738 25.3384L30.6738 25.3384L30.6698 25.3344L30.4804 25.1451C28.1784 22.843 28.1784 19.1106 30.4804 16.8086C32.7825 14.5065 36.5149 14.5065 38.8169 16.8086L39.0067 16.9984L39.5294 17.521L40.0596 17.0061C42.3661 14.7662 46.052 14.7868 48.3332 17.0681C50.6353 19.3701 50.6353 23.1025 48.3332 25.4046Z" stroke="black" stroke-width="1.5"/>
</g>
<defs>
<clipPath id="clip0_3580_142623">
<rect width="58" height="58" fill="white"/>
</clipPath>
</defs>
</svg>
