<svg width="58" height="58" viewBox="0 0 58 58" fill="none" xmlns="http://www.w3.org/2000/svg">
<g clip-path="url(#clip0_3577_169741)">
<path d="M57.9997 0H24.0117V58H57.9997V0Z" fill="#FFF145"/>
<path d="M41.3086 35.5957C41.3086 31.5916 44.5545 28.3457 48.5586 28.3457H64.3133C68.3174 28.3457 71.5633 31.5916 71.5633 35.5957V52.2495H41.3086V35.5957Z" stroke="black" stroke-width="1.5"/>
<path d="M7.02344 35.5957C7.02344 31.5916 10.2694 28.3457 14.2734 28.3457H30.0282C34.0322 28.3457 37.2782 31.5916 37.2782 35.5957V52.2495H7.02344V35.5957Z" stroke="black" stroke-width="1.5"/>
<path d="M47.6719 18.3223C47.6719 22.3263 50.9178 25.5723 54.9219 25.5723H57.9747C61.9788 25.5723 65.2247 22.3263 65.2247 18.3223V14.8906V8.99923C65.2247 7.75659 64.2174 6.74923 62.9747 6.74923H49.9219C48.6792 6.74923 47.6719 7.75659 47.6719 8.99923V10.4449V18.3223Z" stroke="black" stroke-width="1.5"/>
<path d="M20.6211 25.5723H23.6739C27.678 25.5723 30.9239 22.3263 30.9239 18.3223V15.6406H13.3711V18.3223C13.3711 22.3263 16.617 25.5723 20.6211 25.5723Z" stroke="black" stroke-width="1.5"/>
<path d="M30.7213 15.5276V15.5276C30.7213 10.617 26.7406 6.63623 21.83 6.63623H17.8607C10.7579 6.63623 5 12.3941 5 19.4969V28.3527H14" stroke="black" stroke-width="1.5"/>
</g>
<defs>
<clipPath id="clip0_3577_169741">
<rect width="58" height="58" fill="white"/>
</clipPath>
</defs>
</svg>
