<svg width="58" height="58" viewBox="0 0 58 58" fill="none" xmlns="http://www.w3.org/2000/svg">
<g clip-path="url(#clip0_3575_146490)">
<path d="M57.9997 0H24.0117V58H57.9997V0Z" fill="#FFF145"/>
<circle cx="31.8833" cy="8.10787" r="4.35787" fill="#FFF145" stroke="black" stroke-width="1.5"/>
<circle cx="47.6704" cy="8.10787" r="4.35787" fill="#FFF145" stroke="black" stroke-width="1.5"/>
<path d="M34.4472 23.8662L29.903 25.7373C27.9235 26.5524 25.6434 25.9469 24.329 24.2571V24.2571C23.7593 23.5246 22.7077 23.3837 21.9653 23.9405L21.1307 24.5665C20.2039 25.2616 19.8092 26.4611 20.1421 27.5708L20.3868 28.3867C20.7593 29.6283 21.7127 30.6111 22.9425 31.021L25.7909 31.9705C27.2185 32.4463 28.7134 32.6889 30.2181 32.6889H32.1254" stroke="black" stroke-width="1.5"/>
<path d="M43.8907 24.318L48.4559 26.1715C50.4279 26.9721 52.6917 26.3732 54.0098 24.7022V24.7022C54.5812 23.9779 55.6246 23.8382 56.3664 24.3868L57.1846 24.9918C58.1231 25.6858 58.523 26.8954 58.1833 28.012L57.9473 28.7875C57.5772 30.004 56.6381 30.9642 55.4301 31.3612L52.5213 32.3172C51.1105 32.7809 49.635 33.0172 48.15 33.0172H46.2125" stroke="black" stroke-width="1.5"/>
<path d="M29.7926 38.2103L29.4665 38.3835C26.3479 40.0405 25.116 43.8796 26.6881 47.0419L26.8584 47.3844C27.867 49.4131 26.9808 51.8734 24.9101 52.7929L23.9209 53.2323C22.4423 53.8889 21.924 55.7273 22.8419 57.0595V57.0595C23.5145 58.0358 24.7653 58.429 25.8756 58.0133L30.2887 56.3607C32.3938 55.5725 33.669 53.4279 33.3562 51.2019V51.2019C33.0949 49.3427 33.8498 47.486 35.3345 46.3367L36.5905 45.3644" stroke="black" stroke-width="1.5"/>
<path d="M50.7014 38.4871L51.0318 38.6519C54.1918 40.2285 55.5217 44.0348 54.031 47.2363L53.8695 47.583C52.9132 49.6369 53.8621 52.0737 55.9556 52.94L56.9558 53.3538C58.4507 53.9723 59.0159 55.7969 58.1324 57.1522V57.1522C57.485 58.1454 56.2447 58.5705 55.1241 58.1833L50.6701 56.6443C48.5455 55.9102 47.2159 53.799 47.4716 51.5657V51.5657C47.6852 49.7004 46.883 47.8636 45.3694 46.7527L44.0889 45.8129" stroke="black" stroke-width="1.5"/>
<path d="M51.1014 35.5043C51.1014 42.3241 45.9805 47.7562 39.7782 47.7562C33.576 47.7562 28.4551 42.3241 28.4551 35.5043C28.4551 28.6845 33.576 23.2524 39.7782 23.2524C45.9805 23.2524 51.1014 28.6845 51.1014 35.5043Z" fill="#FFF145" stroke="black" stroke-width="1.5"/>
<circle cx="39.7782" cy="16.9306" r="9.46574" fill="#FFF145" stroke="black" stroke-width="1.5"/>
</g>
<defs>
<clipPath id="clip0_3575_146490">
<rect width="58" height="58" fill="white"/>
</clipPath>
</defs>
</svg>
