<svg width="58" height="58" viewBox="0 0 58 58" fill="none" xmlns="http://www.w3.org/2000/svg">
<g clip-path="url(#clip0_3580_142400)">
<path d="M57.9997 0H24.0117V58H57.9997V0Z" fill="#FFF145"/>
<path d="M16.75 29.5C16.75 16.3832 27.3832 5.75 40.5 5.75C52.3371 5.75 62.1528 14.4105 63.9542 25.7405L37.0503 53.0014C25.5688 51.3312 16.75 41.4449 16.75 29.5Z" stroke="black" stroke-width="1.5"/>
<path d="M36.9569 52.7571C34.644 50.0909 33.7822 46.4003 34.3416 42.4331C34.9405 38.1855 37.1683 33.6697 40.9151 29.9229C44.6619 26.1761 49.1776 23.9483 53.4253 23.3494C57.3924 22.79 61.083 23.6518 63.7493 25.9647L36.9569 52.7571Z" stroke="black" stroke-width="1.5"/>
</g>
<defs>
<clipPath id="clip0_3580_142400">
<rect width="58" height="58" fill="white"/>
</clipPath>
</defs>
</svg>
