<svg width="58" height="58" viewBox="0 0 58 58" fill="none" xmlns="http://www.w3.org/2000/svg">
<g clip-path="url(#clip0_3543_143740)">
<path d="M57.7888 0H23.8008V58H57.7888V0Z" fill="#FFF145"/>
<path d="M51.9367 18.7535L44.5339 17.6784L41.2165 11.0742L37.9298 17.6784L30.6191 18.7535L35.9946 23.9753L34.7352 31.3474L41.3394 27.8764L47.9742 31.3474L46.592 23.9753L51.9367 18.7535ZM41.2165 26.1255L36.7625 28.5522L37.5305 23.361L33.6908 19.8285L38.8206 19.0913L41.0936 14.4531L43.3974 19.0913L48.5271 19.8285L44.9332 23.361L45.7933 28.46L41.2165 26.1255Z" fill="black"/>
<path d="M58.2631 42.4368L55.5907 41.7917L53.5941 51.0068L44.6555 36.9384C46.788 36.4588 48.8015 35.553 50.5751 34.2756C52.3487 32.9982 53.8457 31.3755 54.9764 29.5049L58.2631 34.2046V31.563L55.8058 28.092C56.9831 25.6337 57.5181 22.9172 57.3608 20.1961C57.2036 17.475 56.3592 14.8382 54.9066 12.5319C53.454 10.2256 51.4405 8.32513 49.0543 7.00798C46.6681 5.69084 43.9869 5 41.2613 5C38.5357 5 35.8545 5.69084 33.4683 7.00798C31.082 8.32513 29.0686 10.2256 27.616 12.5319C26.1633 14.8382 25.319 17.475 25.1618 20.1961C25.0045 22.9172 25.5395 25.6337 26.7168 28.092L14 45.9078L25.826 43.5733L28.2834 55L39.5872 37.1535C40.1266 37.235 40.6701 37.2863 41.2152 37.307C41.8012 37.2877 42.3857 37.2364 42.9661 37.1535L54.3006 55L56.758 43.5733L58.2631 43.8805V42.4368ZM28.9899 51.0068L26.9933 41.7917L17.5017 43.6654L27.5462 29.7199C28.6912 31.5845 30.2011 33.1985 31.9851 34.4653C33.7692 35.7321 35.7907 36.6255 37.9285 37.092L28.9899 51.0068ZM41.2767 35.6483C38.3853 35.654 35.5577 34.7987 33.1543 33.1914C30.7509 31.5842 28.8804 29.2977 27.7812 26.6234C26.6821 23.9491 26.4041 21.0081 26.9826 18.1753C27.5611 15.3424 28.97 12.7459 31.0297 10.7167C33.0894 8.68751 35.7066 7.3175 38.5477 6.78127C41.3889 6.24504 44.3254 6.56688 46.983 7.70576C49.6406 8.84465 51.899 10.749 53.4702 13.1761C55.0415 15.6033 55.8546 18.4433 55.8058 21.3342C55.8058 23.2488 55.4282 25.1446 54.6945 26.9131C53.9609 28.6816 52.8857 30.288 51.5304 31.6405C50.1752 32.9929 48.5665 34.0647 46.7965 34.7946C45.0264 35.5245 43.1298 35.8981 41.2152 35.8941L41.2767 35.6483Z" fill="black"/>
</g>
<defs>
<clipPath id="clip0_3543_143740">
<rect width="58" height="58" fill="white"/>
</clipPath>
</defs>
</svg>
