<svg width="58" height="58" viewBox="0 0 58 58" fill="none" xmlns="http://www.w3.org/2000/svg">
<g clip-path="url(#clip0_3575_144279)">
<path d="M57.9997 0H24.0117V58H57.9997V0Z" fill="#FFF145"/>
<path d="M68.6296 10H34.3888V14.7778M17.6665 26.7223H34.3888V14.7778M17.6665 26.7223L24.0369 14.7778H34.3888M17.6665 26.7223L13.685 32.2964V45.0371H20.5938M68.6296 45.0371H62.4779M52.7036 18.7593H71.8148M55.8888 26.7223H75M60.6666 34.6852H71.8148M35.2748 45.0371H47.7969" stroke="black" stroke-width="1.5"/>
<circle cx="7.96298" cy="7.96298" r="7.21298" transform="matrix(-1 0 0 1 63.0586 37.0742)" stroke="black" stroke-width="1.5"/>
<circle cx="7.96298" cy="7.96298" r="7.21298" transform="matrix(-1 0 0 1 35.9805 37.0742)" stroke="black" stroke-width="1.5"/>
</g>
<defs>
<clipPath id="clip0_3575_144279">
<rect width="58" height="58" fill="white"/>
</clipPath>
</defs>
</svg>
