<svg width="58" height="58" viewBox="0 0 58 58" fill="none" xmlns="http://www.w3.org/2000/svg">
<g clip-path="url(#clip0_3543_143401)">
<path d="M57.7146 0H23.7266V58H57.7146V0Z" fill="#FFF145"/>
<path d="M57.715 50.2571L50.523 44.1961C50.813 42.9491 51.625 39.2661 52.321 35.0321L57.715 43.0361V40.6001L52.64 33.0601C53.527 28.7557 53.6546 24.3294 53.017 19.9811C51.712 15.4861 41.417 5.77109 41.04 5.48109L40.547 5.01709L40.054 5.48109C39.619 5.88709 29.266 15.6021 27.961 19.9811C27.3507 24.3381 27.5374 28.7698 28.512 33.0601L19 44.3701V55.7671L31.992 45.3271H33.152L35.211 51.1271H36.023C35.3355 52.2853 34.9747 53.6082 34.979 54.9551C34.979 59.0151 40.083 62.4371 40.286 62.5821L40.692 62.8431L41.098 62.5821C41.301 62.4371 46.434 59.1021 46.434 55.0131C46.4489 53.6503 46.0984 52.3085 45.419 51.1271H46.115L48.145 45.3271H49.363L57.715 52.2001V50.2571ZM20.45 52.6061V44.7471L28.86 34.8001C29.643 39.1501 30.6 42.9201 30.919 44.2251L20.45 52.6061ZM40.75 60.9581C39.619 60.1171 36.487 57.5361 36.487 54.8101C36.5076 53.4284 36.9643 52.0886 37.792 50.9821H43.795C44.6118 52.1126 45.0485 53.4734 45.042 54.8681C44.984 57.5941 41.823 60.1171 40.692 60.9001L40.75 60.9581ZM45.245 49.5321H36.226L34.689 45.1821H46.695L45.245 49.5321ZM49.189 43.7321H32.369C31.615 40.6001 27.845 25.4041 29.353 20.3001C30.397 16.7041 38.43 8.70009 40.547 6.81509C42.635 8.70009 50.581 16.6461 51.625 20.3001C52.2143 24.6266 52.0475 29.0226 51.132 33.2921C50.407 37.9031 49.479 42.2241 49.015 43.7321H49.189Z" fill="black"/>
<path d="M40.7497 18.5889C39.8377 18.5889 38.9462 18.8593 38.1879 19.366C37.4297 19.8726 36.8387 20.5928 36.4897 21.4353C36.1407 22.2779 36.0494 23.205 36.2273 24.0994C36.4052 24.9939 36.8443 25.8155 37.4892 26.4603C38.1341 27.1052 38.9557 27.5444 39.8501 27.7223C40.7446 27.9002 41.6717 27.8089 42.5142 27.4599C43.3568 27.1109 44.0769 26.5199 44.5836 25.7616C45.0902 25.0033 45.3607 24.1118 45.3607 23.1999C45.3607 21.977 44.8749 20.8041 44.0101 19.9394C43.1454 19.0747 41.9726 18.5889 40.7497 18.5889ZM40.7497 26.3609C40.1245 26.3609 39.5133 26.1755 38.9935 25.8281C38.4737 25.4808 38.0685 24.9871 37.8293 24.4095C37.59 23.8319 37.5274 23.1964 37.6494 22.5832C37.7714 21.97 38.0724 21.4068 38.5145 20.9647C38.9566 20.5226 39.5198 20.2216 40.133 20.0996C40.7462 19.9776 41.3817 20.0402 41.9593 20.2795C42.5369 20.5187 43.0306 20.9239 43.3779 21.4437C43.7253 21.9635 43.9107 22.5747 43.9107 23.1999C43.9107 24.0382 43.5776 24.8422 42.9848 25.435C42.392 26.0278 41.588 26.3609 40.7497 26.3609Z" fill="black"/>
</g>
<defs>
<clipPath id="clip0_3543_143401">
<rect width="58" height="58" fill="white"/>
</clipPath>
</defs>
</svg>
