<svg width="58" height="58" viewBox="0 0 58 58" fill="none" xmlns="http://www.w3.org/2000/svg">
<g clip-path="url(#clip0_3543_143828)">
<path d="M57.9997 0H24.0117V58H57.9997V0Z" fill="#FFF145"/>
<circle cx="42.1637" cy="29.0909" r="5.03182" stroke="black" stroke-width="1.5"/>
<circle cx="55.6541" cy="28.1273" r="4.06818" stroke="black" stroke-width="1.5"/>
<circle cx="27.7088" cy="28.1273" r="4.06818" stroke="black" stroke-width="1.5"/>
<path d="M48.6953 42.5816C48.6953 38.7382 51.811 35.6226 55.6544 35.6226C59.4978 35.6226 62.6135 38.7382 62.6135 42.5816V49.5407H48.6953V42.5816Z" stroke="black" stroke-width="1.5"/>
<path d="M20.75 42.5816C20.75 38.7382 23.8657 35.6226 27.7091 35.6226C31.5525 35.6226 34.6682 38.7382 34.6682 42.5816V49.5407H20.75V42.5816Z" stroke="black" stroke-width="1.5"/>
<path d="M52.7637 36.3184L55.8473 39.6911L58.5455 36.3184" stroke="black" stroke-width="1.5" stroke-linecap="round" stroke-linejoin="round"/>
<path d="M24.8184 36.3184L27.902 39.6911L30.6002 36.3184" stroke="black" stroke-width="1.5" stroke-linecap="round" stroke-linejoin="round"/>
<path d="M33.2773 45.7637C33.2773 41.7596 36.5233 38.5137 40.5273 38.5137H43.8001C47.8041 38.5137 51.0501 41.7596 51.0501 45.7637V57.25H33.2773V45.7637Z" fill="#FFF145" stroke="black" stroke-width="1.5"/>
<path d="M38.3096 39.209L42.1641 44.0272L45.5368 39.209" stroke="black" stroke-width="1.5" stroke-linecap="round" stroke-linejoin="round"/>
<path d="M42.5125 19.6416L42.5114 19.6425C42.0382 20.0626 41.3256 20.0626 40.8524 19.6425L40.8513 19.6416C38.479 17.5437 36.5712 15.8527 35.2477 14.2737C33.9319 12.7037 33.2773 11.3401 33.2773 9.91008C33.2773 7.58425 35.1382 5.75 37.5623 5.75C38.9005 5.75 40.194 6.34574 41.054 7.2803C41.3919 7.64753 41.9719 7.64753 42.3098 7.2803C43.1697 6.34574 44.4633 5.75 45.8014 5.75C48.2256 5.75 50.0864 7.58425 50.0864 9.91008C50.0864 11.3401 49.4319 12.7037 48.116 14.2737C46.7926 15.8527 44.8848 17.5437 42.5125 19.6416Z" stroke="black" stroke-width="1.5"/>
</g>
<defs>
<clipPath id="clip0_3543_143828">
<rect width="58" height="58" fill="white"/>
</clipPath>
</defs>
</svg>
