<svg width="58" height="58" viewBox="0 0 58 58" fill="none" xmlns="http://www.w3.org/2000/svg">
<g clip-path="url(#clip0_3575_146421)">
<path d="M57.9997 0H24.0117V58H57.9997V0Z" fill="#FFF145"/>
<circle cx="50.2753" cy="19.3095" r="8.78993" fill="#FFF145" stroke="black" stroke-width="1.5"/>
<circle cx="28.8114" cy="19.3095" r="8.78993" stroke="black" stroke-width="1.5"/>
<rect x="18.0501" y="38.1506" width="19.065" height="7.47358" rx="3.73679" transform="rotate(-36.8902 18.0501 38.1506)" stroke="black" stroke-width="1.5"/>
<path d="M58.5033 40.8913C57.2478 42.5293 54.9023 42.8395 53.2643 41.584L44.0643 34.5327C42.4263 33.2773 42.1162 30.9317 43.3716 29.2937C44.627 27.6557 46.9726 27.3456 48.6106 28.601L57.8106 35.6523C59.4486 36.9077 59.7587 39.2533 58.5033 40.8913Z" fill="#FFF145" stroke="black" stroke-width="1.5"/>
<path d="M48.0352 62.715C45.9916 63.1449 43.965 61.9149 43.403 59.9036L40.5629 49.7378C39.8713 47.2624 41.3986 44.7136 43.9076 44.1561C46.4008 43.602 48.8523 45.2401 49.2946 47.7555L51.1222 58.1512C51.4923 60.256 50.1266 62.2751 48.0352 62.715Z" fill="#FFF145" stroke="black" stroke-width="1.5"/>
<path d="M30.8877 62.9606C28.8659 62.4376 27.597 60.4351 27.9874 58.3835L29.9606 48.0145C30.4411 45.4897 32.9419 43.8851 35.4373 44.5006C37.9171 45.1122 39.3853 47.669 38.6636 50.119L35.6813 60.244C35.0774 62.294 32.9567 63.4958 30.8877 62.9606Z" fill="#FFF145" stroke="black" stroke-width="1.5"/>
<path d="M30.8846 29.2612C31.3781 28.0274 32.5732 27.2183 33.9021 27.2183H45.1807C46.5097 27.2183 47.7047 28.0274 48.1983 29.2612L51.2895 36.9893C51.7184 38.0615 52.0385 39.174 52.2451 40.3101L53.8772 49.287C54.0167 50.0543 53.4273 50.7606 52.6474 50.7606H26.4355C25.6556 50.7606 25.0661 50.0543 25.2057 49.287L26.8378 40.3101C27.0444 39.174 27.3645 38.0615 27.7933 36.9893L30.8846 29.2612Z" fill="#FFF145" stroke="black" stroke-width="1.5"/>
<circle cx="28.809" cy="12.1552" r="4.01996" fill="#FFF145" stroke="black" stroke-width="1.5"/>
<circle cx="50.2758" cy="12.1552" r="4.01996" fill="#FFF145" stroke="black" stroke-width="1.5"/>
<circle cx="39.5451" cy="18.1174" r="12.3674" fill="#FFF145" stroke="black" stroke-width="1.5"/>
<path d="M27.6182 16.9247L30.7793 17.3199C34.4883 17.7836 38.0089 15.5648 39.1909 12.0188V12.0188C39.3209 11.629 39.8573 11.5909 40.0411 11.9584L40.1319 12.1401C41.9167 15.7096 45.7854 17.7366 49.7361 17.1721L51.468 16.9247" stroke="black" stroke-width="1.5"/>
</g>
<defs>
<clipPath id="clip0_3575_146421">
<rect width="58" height="58" fill="white"/>
</clipPath>
</defs>
</svg>
