<svg width="58" height="58" viewBox="0 0 58 58" fill="none" xmlns="http://www.w3.org/2000/svg">
<g clip-path="url(#clip0_3543_143494)">
<path d="M57.9997 0H24.0117V58H57.9997V0Z" fill="#FFF145"/>
<path d="M36.5856 56.9504H10V42H13.2426C20.1684 42 26.8495 44.5616 32 49.1918V49.1918" stroke="black" stroke-width="1.5"/>
<path d="M62.4209 56.9418V42.7754L55.8323 42.995C42.9144 43.4256 30.5733 48.3703 20.9423 56.9418H62.4209Z" stroke="black" stroke-width="1.5"/>
<path d="M51.5996 49.7731C51.8034 50.1337 52.2609 50.2608 52.6215 50.057C52.9821 49.8532 53.1092 49.3957 52.9054 49.0351L51.5996 49.7731ZM39.2563 27.935L51.5996 49.7731L52.9054 49.0351L40.5621 27.1969L39.2563 27.935Z" fill="black"/>
<path d="M29.7954 12.3893C29.3047 7.72064 25.1221 4.3337 20.4534 4.8244C15.7847 5.3151 12.3978 9.49762 12.8885 14.1663C13.3792 18.835 17.5617 22.222 22.2304 21.7313" stroke="black" stroke-width="1.5"/>
<path d="M23.7318 36.4416C18.8064 27.8361 21.7897 16.8671 30.3952 11.9416C39.0007 7.01621 49.9698 9.99952 54.8952 18.6051L55.1365 19.0267L23.9731 36.8632L23.7318 36.4416Z" stroke="black" stroke-width="1.5"/>
<path d="M31.839 32.3135L28.3762 25.1567C26.2035 20.6664 27.2239 15.2832 30.8892 11.8995V11.8995" stroke="black" stroke-width="1.5"/>
<path d="M47.4668 22.9117L43.114 16.3972C40.471 12.4415 35.5651 10.6607 31 11.9998V11.9998" stroke="black" stroke-width="1.5" stroke-linecap="round"/>
</g>
<defs>
<clipPath id="clip0_3543_143494">
<rect width="58" height="58" fill="white"/>
</clipPath>
</defs>
</svg>
