<svg width="58" height="58" viewBox="0 0 58 58" fill="none" xmlns="http://www.w3.org/2000/svg">
<g clip-path="url(#clip0_3575_146431)">
<path d="M57.9997 0H24.0117V58H57.9997V0Z" fill="#FFF145"/>
<path d="M13.1063 37.9826L12.3893 37.7623L13.5226 38.6064L13.1063 37.9826ZM19.5208 17.1066L19.6027 16.3611L18.9861 16.2934L18.8039 16.8864L19.5208 17.1066ZM38.7181 19.9707C39.1298 20.016 39.5003 19.7189 39.5455 19.3071C39.5908 18.8954 39.2937 18.525 38.8819 18.4797L38.7181 19.9707ZM25.8093 30.9329L25.9589 31.6679L25.8093 30.9329ZM20.1195 33.3026L20.5358 33.9264L20.1195 33.3026ZM30.3567 29.2419L25.6597 30.198L25.9589 31.6679L30.6559 30.7118L30.3567 29.2419ZM19.7032 32.6787L12.69 37.3587L13.5226 38.6064L20.5358 33.9264L19.7032 32.6787ZM13.8232 38.2029L20.2377 17.3269L18.8039 16.8864L12.3893 37.7623L13.8232 38.2029ZM19.4389 17.8522L38.7181 19.9707L38.8819 18.4797L19.6027 16.3611L19.4389 17.8522ZM25.6597 30.198C23.5322 30.6311 21.5091 31.4736 19.7032 32.6787L20.5358 33.9264C22.18 32.8292 24.0219 32.0621 25.9589 31.6679L25.6597 30.198Z" fill="black"/>
<path d="M64.4858 47.6169L64.6918 48.3381L64.5918 46.8744L64.4858 47.6169ZM41.9985 54.0399L41.3566 54.4278L41.6531 54.9185L42.2045 54.761L41.9985 54.0399ZM32.8112 37.3871C32.597 37.0326 32.1359 36.9189 31.7814 37.1331C31.4269 37.3473 31.3132 37.8084 31.5274 38.1629L32.8112 37.3871ZM49.3207 39.4801L49.9638 39.0942L49.3207 39.4801ZM60.7784 47.0874L60.8845 46.3449L60.7784 47.0874ZM47.779 38.3682L48.6776 39.8659L49.9638 39.0942L49.0652 37.5965L47.779 38.3682ZM60.6724 47.8299L64.3798 48.3594L64.5918 46.8744L60.8845 46.3449L60.6724 47.8299ZM64.2798 46.8957L41.7925 53.3187L42.2045 54.761L64.6918 48.3381L64.2798 46.8957ZM42.6404 53.6519L32.8112 37.3871L31.5274 38.1629L41.3566 54.4278L42.6404 53.6519ZM48.6776 39.8659C51.2728 44.1912 55.6789 47.1167 60.6724 47.8299L60.8845 46.3449C56.3382 45.6956 52.3266 43.0321 49.9638 39.0942L48.6776 39.8659Z" fill="black"/>
<path d="M50.0304 4.2599L50.6147 3.78968L49.2804 4.25997L50.0304 4.2599ZM62.8747 20.2201L63.4368 20.7166L63.8555 20.2426L63.459 19.7499L62.8747 20.2201ZM50.7813 13.1224L50.7804 4.25983L49.2804 4.25997L49.2813 13.1225L50.7813 13.1224ZM49.4462 4.73012L62.2904 20.6903L63.459 19.7499L50.6147 3.78968L49.4462 4.73012ZM62.3126 19.7236L49.4618 34.2735L50.5861 35.2665L63.4368 20.7166L62.3126 19.7236ZM48.1303 20.6878C49.8467 18.5398 50.7815 15.8719 50.7813 13.1224L49.2813 13.1225C49.2815 15.5317 48.4624 17.8694 46.9585 19.7515L48.1303 20.6878Z" fill="black"/>
<circle cx="40.3952" cy="29.9528" r="12.0964" fill="#FFF145" stroke="black" stroke-width="1.5"/>
</g>
<defs>
<clipPath id="clip0_3575_146431">
<rect width="58" height="58" fill="white"/>
</clipPath>
</defs>
</svg>
