<svg width="58" height="58" viewBox="0 0 58 58" fill="none" xmlns="http://www.w3.org/2000/svg">
<g clip-path="url(#clip0_3580_142361)">
<path d="M57.9997 0H24.0117V58H57.9997V0Z" fill="#FFF145"/>
<path d="M17.5 14.1895H12V25.5H63.8084V14.1895H32.5" stroke="black" stroke-width="1.5"/>
<path d="M17.4551 25.0957V51.0004H58.3572V25.0957" stroke="black" stroke-width="1.5"/>
<path d="M33.8145 14.1895V50.3196" stroke="black" stroke-width="1.5"/>
<path d="M42.6758 14.1895V50.3196" stroke="black" stroke-width="1.5"/>
<circle cx="38.1548" cy="14.1802" r="5.38532" fill="#FFF145" stroke="black" stroke-width="1.5"/>
<path d="M17.4582 22.2162L17.7072 6.14285C17.7083 6.07347 17.778 6.02624 17.8428 6.05096L19.8975 6.83436C23.3919 8.1667 26.6822 9.9825 29.6723 12.2287L32.4684 14.3293C32.5227 14.3701 32.5214 14.4519 32.4659 14.491L29.606 16.5039C26.5478 18.6564 23.2029 20.3695 19.6689 21.5929L17.5909 22.3123C17.5253 22.335 17.4571 22.2856 17.4582 22.2162Z" stroke="black" stroke-width="1.5"/>
<path d="M58.3596 22.4484L58.6087 6.37507C58.6097 6.30569 58.5415 6.25633 58.476 6.27903L56.398 6.9984C52.864 8.22185 49.519 9.93485 46.4608 12.0874L43.601 14.1003C43.5454 14.1394 43.5442 14.2212 43.5984 14.262L46.3946 16.3626C49.3847 18.6088 52.675 20.4246 56.1694 21.7569L58.224 22.5403C58.2889 22.5651 58.3586 22.5178 58.3596 22.4484Z" fill="#FFF145" stroke="black" stroke-width="1.5"/>
</g>
<defs>
<clipPath id="clip0_3580_142361">
<rect width="58" height="58" fill="white"/>
</clipPath>
</defs>
</svg>
