<svg width="58" height="58" viewBox="0 0 58 58" fill="none" xmlns="http://www.w3.org/2000/svg">
<g clip-path="url(#clip0_3543_143389)">
<path d="M57.9997 0H24.0117V58H57.9997V0Z" fill="#FFF145"/>
<path d="M52.5187 15.486C52.3982 15.0179 52.1846 14.5789 51.8906 14.1953C51.5966 13.8116 51.2283 13.4911 50.8077 13.253C49.9646 12.7649 48.9652 12.622 48.0191 12.8545C47.073 13.087 46.2536 13.6767 45.7327 14.5C45.4905 14.916 45.3335 15.376 45.271 15.8533C45.2084 16.3305 45.2416 16.8155 45.3684 17.2798C45.4953 17.7441 45.7134 18.1785 46.0099 18.5577C46.3065 18.9368 46.6756 19.2531 47.0957 19.488C47.6629 19.8062 48.3014 19.9758 48.9517 19.981C49.5967 19.9931 50.2341 19.8395 50.8028 19.5349C51.3714 19.2302 51.8524 18.7847 52.1997 18.241C52.4357 17.827 52.5856 17.3695 52.6404 16.8961C52.6952 16.4227 52.6538 15.9431 52.5187 15.486ZM50.8947 17.516C50.587 18.0229 50.0947 18.3906 49.5215 18.5421C48.9482 18.6935 48.3386 18.6168 47.8207 18.328C47.5654 18.181 47.3416 17.9848 47.1625 17.7509C46.9833 17.517 46.8522 17.2499 46.7767 16.965C46.6996 16.6884 46.6804 16.3988 46.7203 16.1143C46.7603 15.8299 46.8584 15.5568 47.0087 15.312C47.2095 14.9759 47.4941 14.6976 47.8347 14.5045C48.1753 14.3113 48.5602 14.2098 48.9517 14.21C49.35 14.2162 49.7398 14.3262 50.0827 14.529C50.3403 14.6661 50.5662 14.8556 50.7461 15.0854C50.9259 15.3152 51.0555 15.5801 51.1267 15.863C51.2501 16.3861 51.167 16.9367 50.8947 17.4V17.516Z" fill="black"/>
<path d="M33.8367 31.3507L33.1221 32.6123L43.5937 38.5441L44.3084 37.2825L33.8367 31.3507Z" fill="black"/>
<path d="M30.5654 37.004L41.0344 42.92L41.7304 41.644L31.2614 35.728L30.5654 37.004Z" fill="black"/>
<path d="M57.9997 40.1069L53.5047 55.1869L44.3407 51.7069L57.9997 28.7099V25.8679L41.7887 53.1859L21.0247 40.3389L40.4257 8.4389L49.8797 6.5829L57.9997 11.2229V9.5699L50.1117 5.0459L39.5267 7.1629L19.0527 40.8319L42.2817 55.1869L43.5867 52.9829L54.4327 57.1009L57.9997 45.1529V40.1069Z" fill="black"/>
</g>
<defs>
<clipPath id="clip0_3543_143389">
<rect width="58" height="58" fill="white"/>
</clipPath>
</defs>
</svg>
