<svg width="58" height="58" viewBox="0 0 58 58" fill="none" xmlns="http://www.w3.org/2000/svg">
<g clip-path="url(#clip0_3575_144125)">
<path d="M57.9997 0H24.0117V58H57.9997V0Z" fill="#FFF145"/>
<path d="M23.7709 49.3246L14.7946 19.9025C14.7642 19.8029 14.8873 19.729 14.961 19.8026L32.1134 36.955C32.1613 37.0029 32.2419 36.9903 32.273 36.9301L42.0564 17.9387C42.0936 17.8664 42.197 17.8664 42.2342 17.9387L52.0176 36.9301C52.0487 36.9903 52.1294 37.0029 52.1773 36.955L69.3296 19.8026C69.4033 19.729 69.5264 19.8029 69.496 19.9025L60.5198 49.3246M23.7709 49.3246L25.1972 53.9999H59.0934L60.5198 49.3246M23.7709 49.3246H60.5198" stroke="black" stroke-width="1.5"/>
<circle cx="12.9221" cy="15.427" r="2.17208" stroke="black" stroke-width="1.5"/>
<circle cx="42.1438" cy="11.9221" r="2.17208" stroke="black" stroke-width="1.5"/>
</g>
<defs>
<clipPath id="clip0_3575_144125">
<rect width="58" height="58" fill="white"/>
</clipPath>
</defs>
</svg>
