<svg width="58" height="58" viewBox="0 0 58 58" fill="none" xmlns="http://www.w3.org/2000/svg">
<g clip-path="url(#clip0_3543_145188)">
<path d="M57.9997 0H24.0117V58H57.9997V0Z" fill="#FFF145"/>
<path d="M56.6147 10.3501L56.0927 9.82812C54.8603 11.1496 53.3701 12.2046 51.7142 12.9278C50.0582 13.651 48.2717 14.0272 46.4647 14.0331C44.6593 14.0344 42.8729 13.6643 41.2166 12.9459C39.5603 12.2275 38.0694 11.1761 36.8367 9.85712L35.7637 10.8431C37.1329 12.3122 38.7892 13.4846 40.6298 14.2877C42.4705 15.0908 44.4564 15.5076 46.4647 15.5121C48.1666 15.4616 49.8458 15.1081 51.4237 14.4681L38.8377 27.2571L39.8817 28.2721L52.6417 15.3091C51.6503 17.989 51.4484 20.8971 52.0601 23.6882C52.6718 26.4794 54.0713 29.0365 56.0927 31.0561L57.1077 30.0411C54.5768 27.4698 53.1583 24.0065 53.1583 20.3986C53.1583 16.7907 54.5768 13.3275 57.1077 10.7561L56.6147 10.3501Z" fill="black"/>
<path d="M19.3211 47.615L19.8431 48.137C22.4071 45.5922 25.8731 44.1641 29.4856 44.1641C33.0981 44.1641 36.5641 45.5922 39.1281 48.137L40.1431 47.093C37.3049 44.2794 33.4676 42.7048 29.4711 42.714C27.7083 42.7346 25.9622 43.0583 24.3091 43.671L37.0981 30.882L36.0541 29.867L23.2941 42.627C24.2981 39.9819 24.5063 37.1009 23.8931 34.3389C23.2799 31.577 21.8721 29.0547 19.8431 27.083L18.8281 28.098C20.1136 29.3398 21.1375 30.8262 21.8398 32.4698C22.542 34.1133 22.9083 35.8807 22.9171 37.668C22.9221 39.4313 22.576 41.178 21.8988 42.8061C21.2217 44.4343 20.2271 45.9113 18.9731 47.151L19.3211 47.615Z" fill="black"/>
<path d="M57.717 6H15V51.936H57.717V50.486H16.45V7.45H57.717V6Z" fill="black"/>
</g>
<defs>
<clipPath id="clip0_3543_145188">
<rect width="58" height="58" fill="white"/>
</clipPath>
</defs>
</svg>
