<svg width="58" height="58" viewBox="0 0 58 58" fill="none" xmlns="http://www.w3.org/2000/svg">
<g clip-path="url(#clip0_3575_144306)">
<path d="M57.9997 0H24.0117V58H57.9997V0Z" fill="#FFF145"/>
<path d="M58.7697 54.25H20.6758V49.7115V34.5673V19.4231V5.75H48.357L58.7697 16.5526V54.25Z" stroke="black" stroke-width="1.5"/>
<path d="M17.3496 51.5938V31.9067H23.5771V47.3731L23.3651 47.2189L17.3496 51.5938Z" fill="white"/>
<path d="M17.3496 51.5938V31.9067H29.3806V51.5938L23.3651 47.2189L17.3496 51.5938Z" stroke="black" stroke-width="1.5"/>
<path d="M22.3069 16.9973C22.6519 16.7549 23.1119 16.7549 23.4568 16.9973L25.3786 18.3479C25.5426 18.4632 25.7375 18.5265 25.9379 18.5296L28.3505 18.5676C28.7337 18.5736 29.072 18.8194 29.1961 19.182L29.9778 21.4648C30.0427 21.6544 30.1631 21.8201 30.3234 21.9405L32.2017 23.3509C32.5389 23.6041 32.6811 24.0415 32.5571 24.4446L31.8665 26.6897C31.8076 26.8812 31.8076 27.0861 31.8665 27.2777L32.5571 29.5228C32.6811 29.9258 32.5389 30.3633 32.2017 30.6165L30.3234 32.0268C30.1631 32.1472 30.0427 32.3129 29.9778 32.5026L29.2169 34.7248C29.0803 35.1237 28.7081 35.3941 28.2865 35.4007L25.9379 35.4377C25.7375 35.4409 25.5426 35.5042 25.3786 35.6194L23.4568 36.97C23.1119 37.2124 22.6519 37.2124 22.3069 36.97L20.3851 35.6194C20.2211 35.5042 20.0263 35.4409 19.8258 35.4377L17.4772 35.4007C17.0556 35.3941 16.6835 35.1237 16.5469 34.7248L15.786 32.5026C15.721 32.3129 15.6006 32.1472 15.4403 32.0268L13.562 30.6165C13.2248 30.3633 13.0827 29.9258 13.2066 29.5228L13.8972 27.2777C13.9562 27.0861 13.9562 26.8812 13.8972 26.6897L13.2066 24.4446C13.0827 24.0415 13.2248 23.6041 13.562 23.3509L15.4403 21.9405C15.6006 21.8201 15.721 21.6544 15.786 21.4648L16.5469 19.2425C16.6835 18.8436 17.0556 18.5732 17.4772 18.5666L19.8258 18.5296C20.0263 18.5265 20.2211 18.4632 20.3851 18.3479L22.3069 16.9973Z" fill="#FFF145"/>
<path d="M20.3851 35.6194L22.4822 37.0932C22.722 37.2617 23.0417 37.2617 23.2815 37.0932C23.4667 36.9631 23.5769 36.7509 23.5769 36.5245V17.4428C23.5769 17.2164 23.4667 17.0043 23.2815 16.8741C23.0417 16.7056 22.722 16.7056 22.4822 16.8741L20.3851 18.3479C20.2211 18.4632 20.0263 18.5265 19.8258 18.5296L17.4772 18.5666C17.0556 18.5732 16.6835 18.8436 16.5469 19.2425L15.786 21.4648C15.721 21.6544 15.6006 21.8201 15.4403 21.9405L13.562 23.3509C13.2248 23.6041 13.0827 24.0415 13.2066 24.4446L13.8972 26.6897C13.9562 26.8812 13.9562 27.0861 13.8972 27.2777L13.2066 29.5228C13.0827 29.9258 13.2248 30.3633 13.562 30.6165L15.4403 32.0268C15.6006 32.1472 15.721 32.3129 15.786 32.5026L16.5469 34.7248C16.6835 35.1237 17.0556 35.3941 17.4772 35.4007L19.8258 35.4377C20.0263 35.4409 20.2211 35.5042 20.3851 35.6194Z" fill="white"/>
<path d="M22.7381 17.611C22.8244 17.5504 22.9394 17.5504 23.0256 17.611L24.9474 18.9615C25.2344 19.1632 25.5754 19.274 25.9261 19.2795L28.3387 19.3175C28.4057 19.3186 28.4649 19.3615 28.4866 19.4249L29.2682 21.7077C29.3818 22.0396 29.5926 22.3296 29.8731 22.5402L31.7514 23.9506C31.8357 24.0139 31.8713 24.1233 31.8403 24.2241L31.1496 26.4691C31.0465 26.8044 31.0465 27.1629 31.1496 27.4982L31.8403 29.7433C31.8713 29.844 31.8357 29.9534 31.7514 30.0167L29.8731 31.4271C29.5926 31.6377 29.3818 31.9278 29.2682 32.2596L28.5073 34.4819C28.4731 34.5816 28.3801 34.6492 28.2747 34.6508L25.9261 34.6878C25.5754 34.6933 25.2344 34.8041 24.9474 35.0058L23.0256 36.3564C22.9394 36.417 22.8244 36.417 22.7381 36.3564L20.8163 35.0058L20.3851 35.6194L20.8163 35.0058C20.5293 34.8041 20.1884 34.6933 19.8376 34.6878L17.489 34.6508C17.3836 34.6492 17.2906 34.5816 17.2564 34.4819L16.4955 32.2596C16.3819 31.9278 16.1712 31.6377 15.8907 31.4271L14.0123 30.0167C13.928 29.9534 13.8925 29.844 13.9235 29.7433L14.6141 27.4982C14.7172 27.1629 14.7172 26.8044 14.6141 26.4691L13.9235 24.2241C13.8925 24.1233 13.928 24.0139 14.0123 23.9506L15.8907 22.5402C16.1712 22.3296 16.3819 22.0396 16.4955 21.7077L17.2564 19.4855C17.2906 19.3858 17.3836 19.3182 17.489 19.3165L19.8376 19.2795C20.1884 19.274 20.5293 19.1632 20.8163 18.9615L22.7381 17.611Z" stroke="black" stroke-width="1.5"/>
</g>
<defs>
<clipPath id="clip0_3575_144306">
<rect width="58" height="58" fill="white"/>
</clipPath>
</defs>
</svg>
