<svg width="58" height="58" viewBox="0 0 58 58" fill="none" xmlns="http://www.w3.org/2000/svg">
<g clip-path="url(#clip0_3543_143653)">
<path d="M57.7458 0H23.7578V58H57.7458V0Z" fill="#FFF145"/>
<path d="M34.5462 26.3032H27.0352V33.5822H34.5462V26.3032ZM33.0962 32.1032H28.4852V27.7532H33.0092L33.0962 32.1032Z" fill="black"/>
<path d="M44.4347 26.3032H37.0107V33.5822H44.4347V26.3032ZM42.9847 32.1032H38.4607V27.7532H42.9847V32.1032Z" fill="black"/>
<path d="M54.4113 26.3032H46.9873V33.5822H54.4113V26.3032ZM52.9613 32.1032H48.4373V27.7532H52.9613V32.1032Z" fill="black"/>
<path d="M27.0645 43.239H34.5465V35.96H27.0645V43.239ZM28.5145 37.439H33.0095V41.818H28.5145V37.439Z" fill="black"/>
<path d="M37.04 43.239H44.464V35.96H37.04V43.239ZM38.49 37.439H43.014V41.818H38.49V37.439Z" fill="black"/>
<path d="M47.0156 43.239H54.4396V35.96H47.0156V43.239ZM48.4656 37.439H52.9896V41.818H48.4656V37.439Z" fill="black"/>
<path d="M57.746 53.3892H24.483V45.6462H16.45V20.0392H57.746V18.5892H16.45V12.2672H29.065V15.4572H30.515V12.2672H39.012V15.4572H40.346V12.2672H49.046V15.4572H50.496V12.2672H57.746V10.8172H50.438V7.74316H49.046V10.8172H40.346V7.74316H38.896V10.8172H30.515V7.74316H29.065V10.8172H15V46.7192L23.497 54.8392H57.746V53.3892ZM22.946 52.4032L17.494 47.0962H22.946V52.4032Z" fill="black"/>
</g>
<defs>
<clipPath id="clip0_3543_143653">
<rect width="58" height="58" fill="white"/>
</clipPath>
</defs>
</svg>
