<svg width="58" height="58" viewBox="0 0 58 58" fill="none" xmlns="http://www.w3.org/2000/svg">
<g clip-path="url(#clip0_3543_145289)">
<path d="M57.9997 0H24.0117V58H57.9997V0Z" fill="#FFF145"/>
<mask id="path-2-inside-1_3543_145289" fill="white">
<rect width="12.866" height="13.9381" rx="1" transform="matrix(-1 0 0 1 64.2471 41.062)"/>
</mask>
<rect width="12.866" height="13.9381" rx="1" transform="matrix(-1 0 0 1 64.2471 41.062)" stroke="black" stroke-width="3" mask="url(#path-2-inside-1_3543_145289)"/>
<mask id="path-3-inside-2_3543_145289" fill="white">
<rect width="12.866" height="24.6598" rx="1" transform="matrix(-1 0 0 1 46.0205 30.3398)"/>
</mask>
<rect width="12.866" height="24.6598" rx="1" transform="matrix(-1 0 0 1 46.0205 30.3398)" stroke="black" stroke-width="3" mask="url(#path-3-inside-2_3543_145289)"/>
<mask id="path-4-inside-3_3543_145289" fill="white">
<rect width="12.866" height="33.2371" rx="1" transform="matrix(-1 0 0 1 27.7939 21.7627)"/>
</mask>
<rect width="12.866" height="33.2371" rx="1" transform="matrix(-1 0 0 1 27.7939 21.7627)" stroke="black" stroke-width="3" mask="url(#path-4-inside-3_3543_145289)"/>
<path d="M68 54.4639H10.1031M66.9278 33.0206L10.1031 4.60825M10.1031 4.60825L12.2474 11.0412M10.1031 4.60825L16.5361 3" stroke="black" stroke-width="1.5" stroke-linecap="round"/>
<path d="M63.1748 51.7837L57.2779 46.4229" stroke="black" stroke-width="1.5" stroke-linecap="round"/>
<path d="M44.9482 42.1343L39.0513 36.7734" stroke="black" stroke-width="1.5" stroke-linecap="round"/>
<path d="M26.7217 32.4844L20.8248 27.1235" stroke="black" stroke-width="1.5" stroke-linecap="round"/>
<path d="M26.7217 45.3506L20.8248 39.9897" stroke="black" stroke-width="1.5" stroke-linecap="round"/>
<path d="M25.1133 54.464L20.8246 50.7114" stroke="black" stroke-width="1.5" stroke-linecap="round"/>
<path d="M44.9482 52.8559L39.0513 47.4951" stroke="black" stroke-width="1.5" stroke-linecap="round"/>
</g>
<defs>
<clipPath id="clip0_3543_145289">
<rect width="58" height="58" fill="white"/>
</clipPath>
</defs>
</svg>
