<svg width="58" height="58" viewBox="0 0 58 58" fill="none" xmlns="http://www.w3.org/2000/svg">
<g clip-path="url(#clip0_3543_143559)">
<path d="M57.9997 0H24.0117V58H57.9997V0Z" fill="#FFF145"/>
<rect x="30.0596" y="17.3135" width="33.1909" height="39.9364" rx="6.25" stroke="black" stroke-width="1.5"/>
<path d="M30.2725 23.791H63.5179M30.2725 48.3637L63.0361 47.8819" stroke="black" stroke-width="1.5"/>
<path d="M24.5 56.5V32.5L27.4606 33.3059C40.6737 36.9023 38.1928 56.338 24.5 56.5Z" fill="#FFF145"/>
<circle cx="24.0091" cy="44.991" r="12.2591" stroke="black" stroke-width="1.5"/>
<path d="M38.9458 12.709V12.709C38.9458 14.2685 38.4151 15.7815 37.4409 16.9993L37.0186 17.5272" stroke="black" stroke-width="1.5"/>
<path d="M54.3637 12.709V12.709C54.3637 14.2685 54.8945 15.7815 55.8687 16.9993L56.291 17.5272" stroke="black" stroke-width="1.5"/>
<path d="M15.3359 53.6638L32.1996 36.3184" stroke="black" stroke-width="1.5"/>
<mask id="path-9-inside-1_3543_143559" fill="white">
<rect x="31.2363" y="5" width="29.8727" height="8.67273" rx="1"/>
</mask>
<rect x="31.2363" y="5" width="29.8727" height="8.67273" rx="1" stroke="black" stroke-width="3" mask="url(#path-9-inside-1_3543_143559)"/>
<path d="M44.7271 28.8774H49.5453C49.6633 28.8774 49.7589 28.9731 49.7589 29.0911V31.9456C49.7589 32.9121 50.5424 33.6956 51.5089 33.6956H54.3635C54.4815 33.6956 54.5771 33.7913 54.5771 33.9093V38.7274C54.5771 38.8454 54.4815 38.9411 54.3635 38.9411H51.5089C50.5425 38.9411 49.7589 39.7246 49.7589 40.6911V43.5456C49.7589 43.6636 49.6633 43.7593 49.5453 43.7593H44.7271C44.6091 43.7593 44.5135 43.6636 44.5135 43.5456V40.6911C44.5135 39.7246 43.73 38.9411 42.7635 38.9411H39.9089C39.791 38.9411 39.6953 38.8454 39.6953 38.7274V33.9093C39.6953 33.7913 39.791 33.6956 39.9089 33.6956H42.7635C43.73 33.6956 44.5135 32.9121 44.5135 31.9456V29.0911C44.5135 28.9731 44.6091 28.8774 44.7271 28.8774Z" stroke="black" stroke-width="1.5"/>
</g>
<defs>
<clipPath id="clip0_3543_143559">
<rect width="58" height="58" fill="white"/>
</clipPath>
</defs>
</svg>
