<svg width="58" height="58" viewBox="0 0 58 58" fill="none" xmlns="http://www.w3.org/2000/svg">
<g clip-path="url(#clip0_3575_146531)">
<path d="M57.9997 0H24.0117V58H57.9997V0Z" fill="#FFF145"/>
<path d="M14.75 20.2932V18.8052C14.75 18.1148 15.3096 17.5552 16 17.5552H22.3023L21.2123 21.5432H16C15.3096 21.5432 14.75 20.9836 14.75 20.2932Z" stroke="black" stroke-width="1.5"/>
<path d="M22.8425 57.25C21.0677 57.25 19.6289 55.8112 19.6289 54.0364V49.25H26.0561V54.0364C26.0561 55.8112 24.6173 57.25 22.8425 57.25Z" stroke="black" stroke-width="1.5"/>
<path d="M59.9636 56.75C58.1888 56.75 56.75 55.3112 56.75 53.5364V48.75H63.1772V53.5364C63.1772 55.3112 61.7384 56.75 59.9636 56.75Z" stroke="black" stroke-width="1.5"/>
<rect x="58.6543" y="17.5552" width="8.86636" height="3.98807" rx="1.25" stroke="black" stroke-width="1.5"/>
<path d="M20.4555 24.5925L25.5579 4.75H57.0263L62.4122 24.5925H20.4555Z" stroke="black" stroke-width="1.5"/>
<rect x="16.248" y="24.75" width="50.5" height="24.5" stroke="black" stroke-width="1.5"/>
<circle cx="27.0489" cy="37.0489" r="2.29893" stroke="black" stroke-width="1.5"/>
<circle cx="55.0997" cy="37.0489" r="2.29893" stroke="black" stroke-width="1.5"/>
</g>
<defs>
<clipPath id="clip0_3575_146531">
<rect width="58" height="58" fill="white"/>
</clipPath>
</defs>
</svg>
