<svg width="58" height="58" viewBox="0 0 58 58" fill="none" xmlns="http://www.w3.org/2000/svg">
<g clip-path="url(#clip0_3580_142351)">
<path d="M57.9997 0H24.0117V58H57.9997V0Z" fill="#FFF145"/>
<path d="M52.8235 52.7059H22C19.7909 52.7059 18 50.915 18 48.7059V11C18 8.79086 19.7909 7 22 7H52.8235V42.9118" stroke="black" stroke-width="1.5"/>
<path d="M55 42.9121H22.8971C20.1925 42.9121 18 45.1046 18 47.8092V47.8092C18 50.5137 20.1925 52.7062 22.8971 52.7062H55" stroke="black" stroke-width="1.5"/>
<circle cx="35.9398" cy="24.9554" r="9.58823" stroke="black" stroke-width="1.5"/>
<path d="M40.0949 24.9554C40.0949 27.7245 39.5617 30.1947 38.7328 31.9446C37.8768 33.7517 36.8416 34.5437 35.9478 34.5437C35.0541 34.5437 34.0189 33.7517 33.1629 31.9446C32.334 30.1947 31.8008 27.7245 31.8008 24.9554C31.8008 22.1864 32.334 19.7162 33.1629 17.9663C34.0189 16.1591 35.0541 15.3672 35.9478 15.3672C36.8416 15.3672 37.8768 16.1591 38.7328 17.9663C39.5617 19.7162 40.0949 22.1864 40.0949 24.9554Z" stroke="black" stroke-width="1.5"/>
<path d="M26.7031 25.498H45.7472" stroke="black" stroke-width="1.5"/>
<path d="M27.25 47.8092H49.0147M49.0147 47.8092V42.9121M49.0147 47.8092V52.7062" stroke="black" stroke-width="1.5"/>
</g>
<defs>
<clipPath id="clip0_3580_142351">
<rect width="58" height="58" fill="white"/>
</clipPath>
</defs>
</svg>
