<svg width="58" height="58" viewBox="0 0 58 58" fill="none" xmlns="http://www.w3.org/2000/svg">
<g clip-path="url(#clip0_3575_146441)">
<path d="M57.9997 0H24.0117V58H57.9997V0Z" fill="#FFF145"/>
<path d="M43.75 19.6667C43.75 20.0809 44.0858 20.4167 44.5 20.4167C44.9142 20.4167 45.25 20.0809 45.25 19.6667H43.75ZM15.75 31.4444C15.75 31.0302 15.4142 30.6944 15 30.6944C14.5858 30.6944 14.25 31.0302 14.25 31.4444H15.75ZM14.25 43.2222C14.25 43.6364 14.5858 43.9722 15 43.9722C15.4142 43.9722 15.75 43.6364 15.75 43.2222H14.25ZM74.75 31.4444C74.75 31.0302 74.4142 30.6944 74 30.6944C73.5858 30.6944 73.25 31.0302 73.25 31.4444H74.75ZM73.25 43.2222C73.25 43.6364 73.5858 43.9722 74 43.9722C74.4142 43.9722 74.75 43.6364 74.75 43.2222H73.25ZM25.325 20.4167H63.675V18.9167H25.325V20.4167ZM63.675 20.4167C64.8914 20.4167 65.875 21.4005 65.875 22.6111H67.375C67.375 20.5694 65.7171 18.9167 63.675 18.9167V20.4167ZM65.875 22.6111V52.0556H67.375V22.6111H65.875ZM65.875 52.0556C65.875 53.2662 64.8914 54.25 63.675 54.25V55.75C65.7171 55.75 67.375 54.0973 67.375 52.0556H65.875ZM63.675 54.25H25.325V55.75H63.675V54.25ZM25.325 54.25C24.1086 54.25 23.125 53.2662 23.125 52.0556H21.625C21.625 54.0973 23.2829 55.75 25.325 55.75V54.25ZM23.125 52.0556V22.6111H21.625V52.0556H23.125ZM23.125 22.6111C23.125 21.4005 24.1086 20.4167 25.325 20.4167V18.9167C23.2829 18.9167 21.625 20.5694 21.625 22.6111H23.125ZM36.375 31.4444C36.375 32.6551 35.3914 33.6389 34.175 33.6389V35.1389C36.2171 35.1389 37.875 33.4862 37.875 31.4444H36.375ZM34.175 33.6389C32.9586 33.6389 31.975 32.6551 31.975 31.4444H30.475C30.475 33.4862 32.1329 35.1389 34.175 35.1389V33.6389ZM31.975 31.4444C31.975 30.2338 32.9586 29.25 34.175 29.25V27.75C32.1329 27.75 30.475 29.4027 30.475 31.4444H31.975ZM34.175 29.25C35.3914 29.25 36.375 30.2338 36.375 31.4444H37.875C37.875 29.4027 36.2171 27.75 34.175 27.75V29.25ZM57.025 31.4444C57.025 32.6551 56.0414 33.6389 54.825 33.6389V35.1389C56.8671 35.1389 58.525 33.4862 58.525 31.4444H57.025ZM54.825 33.6389C53.6086 33.6389 52.625 32.6551 52.625 31.4444H51.125C51.125 33.4862 52.7829 35.1389 54.825 35.1389V33.6389ZM52.625 31.4444C52.625 30.2338 53.6086 29.25 54.825 29.25V27.75C52.7829 27.75 51.125 29.4027 51.125 31.4444H52.625ZM54.825 29.25C56.0414 29.25 57.025 30.2338 57.025 31.4444H58.525C58.525 29.4027 56.8671 27.75 54.825 27.75V29.25ZM38.6 39.5278C37.6192 39.5278 36.6782 39.9167 35.9842 40.6094L37.0439 41.671C37.4563 41.2593 38.0161 41.0278 38.6 41.0278V39.5278ZM35.9842 40.6094C35.2902 41.3021 34.9 42.2419 34.9 43.2222H36.4C36.4 42.6407 36.6314 42.0827 37.0439 41.671L35.9842 40.6094ZM34.9 43.2222C34.9 44.2025 35.2902 45.1424 35.9842 45.8351L37.0439 44.7734C36.6314 44.3618 36.4 43.8038 36.4 43.2222H34.9ZM35.9842 45.8351C36.6782 46.5278 37.6192 46.9167 38.6 46.9167V45.4167C38.0161 45.4167 37.4563 45.1851 37.0439 44.7734L35.9842 45.8351ZM50.4 46.9167C51.3808 46.9167 52.3218 46.5278 53.0158 45.8351L51.9561 44.7734C51.5437 45.1851 50.9839 45.4167 50.4 45.4167V46.9167ZM53.0158 45.8351C53.7098 45.1424 54.1 44.2025 54.1 43.2222H52.6C52.6 43.8038 52.3686 44.3618 51.9561 44.7734L53.0158 45.8351ZM54.1 43.2222C54.1 42.2419 53.7098 41.3021 53.0158 40.6094L51.9561 41.671C52.3686 42.0827 52.6 42.6407 52.6 43.2222H54.1ZM53.0158 40.6094C52.3218 39.9167 51.3808 39.5278 50.4 39.5278V41.0278C50.9839 41.0278 51.5437 41.2593 51.9561 41.671L53.0158 40.6094ZM38.6 46.9167H50.4V45.4167H38.6V46.9167ZM50.4 39.5278H38.6V41.0278H50.4V39.5278ZM43.75 7.88889V19.6667H45.25V7.88889H43.75ZM14.25 31.4444V43.2222H15.75V31.4444H14.25ZM73.25 31.4444V43.2222H74.75V31.4444H73.25ZM46.7 4.94444C46.7 6.15507 45.7164 7.13889 44.5 7.13889V8.63889C46.5421 8.63889 48.2 6.98616 48.2 4.94444H46.7ZM44.5 7.13889C43.2836 7.13889 42.3 6.15507 42.3 4.94444H40.8C40.8 6.98616 42.4579 8.63889 44.5 8.63889V7.13889ZM42.3 4.94444C42.3 3.73382 43.2836 2.75 44.5 2.75V1.25C42.4579 1.25 40.8 2.90273 40.8 4.94444H42.3ZM44.5 2.75C45.7164 2.75 46.7 3.73382 46.7 4.94444H48.2C48.2 2.90273 46.5421 1.25 44.5 1.25V2.75Z" fill="black"/>
</g>
<defs>
<clipPath id="clip0_3575_146441">
<rect width="58" height="58" fill="white"/>
</clipPath>
</defs>
</svg>
