<svg width="58" height="58" viewBox="0 0 58 58" fill="none" xmlns="http://www.w3.org/2000/svg">
<g clip-path="url(#clip0_3543_145117)">
<path d="M57.9997 0H24.0117V58H57.9997V0Z" fill="#FFF145"/>
<rect x="10.1221" y="6.75" width="20.3605" height="22.5465" rx="9.25" stroke="black" stroke-width="1.5"/>
<path d="M15.9307 30.0464V32.2324C15.9307 34.6471 17.8881 36.6045 20.3028 36.6045V36.6045C22.7174 36.6045 24.6749 34.6471 24.6749 32.2324V30.0464" stroke="black" stroke-width="1.5"/>
<path d="M45.4414 30.0464V32.2324C45.4414 34.6471 47.3989 36.6045 49.8135 36.6045V36.6045C52.2281 36.6045 54.1856 34.6471 54.1856 32.2324V30.0464" stroke="black" stroke-width="1.5"/>
<rect x="39.6338" y="6.75" width="20.3605" height="22.5465" rx="9.25" stroke="black" stroke-width="1.5"/>
<path d="M5.75 44.2559C5.75 36.2189 12.2653 29.7036 20.3023 29.7036C28.3394 29.7036 34.8546 36.2189 34.8546 44.2559V52.2501H5.75V44.2559Z" stroke="black" stroke-width="1.5"/>
<path d="M35.2617 44.2559C35.2617 36.2189 41.777 29.7036 49.814 29.7036C57.8511 29.7036 64.3664 36.2189 64.3664 44.2559V52.2501H35.2617V44.2559Z" stroke="black" stroke-width="1.5"/>
<path d="M10.4648 18.57H16.0223C17.9994 18.57 19.8314 17.5327 20.8486 15.8374V15.8374V15.8374C21.8657 17.5327 23.6978 18.57 25.6748 18.57H30.1393" stroke="black" stroke-width="1.5" stroke-linecap="round"/>
<path d="M39.9766 18.57H47.1736C49.1506 18.57 50.9827 17.5327 51.9998 15.8374V15.8374V15.8374C53.017 17.5327 54.849 18.57 56.826 18.57H59.651" stroke="black" stroke-width="1.5" stroke-linecap="round"/>
<path d="M39.4306 19.1162V19.1162C35.666 23.7705 34.4272 29.9768 36.1163 35.7197L36.698 37.6976" stroke="black" stroke-width="1.5" stroke-linecap="round"/>
</g>
<defs>
<clipPath id="clip0_3543_145117">
<rect width="58" height="58" fill="white"/>
</clipPath>
</defs>
</svg>
