<svg width="20" height="20" viewBox="0 0 20 20" fill="none" xmlns="http://www.w3.org/2000/svg">
<g clip-path="url(#clip0_3522_142425)">
<path d="M1.77556 16.0183C0.620268 14.7912 0 13.415 0 11.184C0 7.25826 2.75587 3.73967 6.7635 2L7.76513 3.54562C4.02445 5.56907 3.29314 8.19483 3.00151 9.85037C3.60384 9.53856 4.39235 9.42976 5.16516 9.50154C7.1886 9.68886 8.78358 11.35 8.78358 13.415C8.78358 14.4561 8.36998 15.4547 7.63375 16.1909C6.89753 16.9271 5.899 17.3407 4.85783 17.3407C3.65431 17.3407 2.50351 16.7911 1.77556 16.0183ZM12.992 16.0183C11.8367 14.7912 11.2164 13.415 11.2164 11.184C11.2164 7.25826 13.9723 3.73967 17.9799 2L18.9816 3.54562C15.2409 5.56907 14.5096 8.19483 14.2179 9.85037C14.8203 9.53856 15.6088 9.42976 16.3816 9.50154C18.405 9.68886 20 11.35 20 13.415C20 14.4561 19.5864 15.4547 18.8502 16.1909C18.114 16.9271 17.1154 17.3407 16.0743 17.3407C14.8707 17.3407 13.7199 16.7911 12.992 16.0183Z" fill="black"/>
</g>
<defs>
<clipPath id="clip0_3522_142425">
<rect width="20" height="20" fill="white"/>
</clipPath>
</defs>
</svg>
